<svg width="62" height="63" viewBox="0 0 62 63" fill="none" xmlns="http://www.w3.org/2000/svg">
<g clip-path="url(#clip0_216_166)">
<path d="M54 47.7051C54 53.7802 49.0751 58.7051 43 58.7051C36.9249 58.7051 32 53.7802 32 47.7051C32 41.6299 36.9249 36.7051 43 36.7051C49.0751 36.7051 54 41.6299 54 47.7051Z" stroke="#8A8D8E" stroke-width="2" stroke-miterlimit="10"/>
<path d="M33 52.2051L53 43.2051" stroke="#8A8D8E" stroke-width="2" stroke-miterlimit="10"/>
<path d="M20.9368 47.4665C20.9368 48.9767 19.6959 50.2198 18.1418 50.2198C16.5878 50.2198 15.3469 48.9767 15.3469 47.4665C15.3469 45.9562 16.5878 44.7131 18.1418 44.7131C19.6959 44.7131 20.9368 45.9562 20.9368 47.4665Z" stroke="#8A8D8E" stroke-width="2" stroke-miterlimit="10"/>
<path d="M31.0818 51.8305C31.0818 53.3407 29.8409 54.5838 28.2869 54.5838C26.7329 54.5838 25.4919 53.3407 25.4919 51.8305C25.4919 50.3202 26.7329 49.0771 28.2869 49.0771C29.8409 49.0771 31.0818 50.3202 31.0818 51.8305Z" stroke="#8A8D8E" stroke-width="2" stroke-miterlimit="10"/>
<path d="M26.1941 35.506C26.1941 37.0163 24.9532 38.2593 23.3992 38.2593C21.8452 38.2593 20.6042 37.0163 20.6042 35.506C20.6042 33.9958 21.8452 32.7527 23.3992 32.7527C24.9532 32.7527 26.1941 33.9958 26.1941 35.506Z" stroke="#8A8D8E" stroke-width="2" stroke-miterlimit="10"/>
<mask id="path-6-inside-1_216_166" fill="white">
<path d="M33.529 43.6232C33.0152 43.6226 32.5069 43.517 32.0362 43.3129C31.4374 43.0559 30.9156 42.6505 30.5215 42.1358C30.1274 41.6211 29.8743 41.0146 29.7865 40.3748C29.6986 39.735 29.7791 39.0837 30.0202 38.4837C30.2613 37.8837 30.6547 37.3553 31.1626 36.9497C31.6705 36.5441 32.2754 36.2749 32.9193 36.1681C33.5631 36.0614 34.2239 36.1207 34.8377 36.3403C35.4516 36.5599 35.9979 36.9325 36.4236 37.4219C36.8494 37.9113 37.1402 38.5011 37.2681 39.1342"/>
</mask>
<path d="M32.0362 43.3129L32.8318 41.478L32.825 41.475L32.0362 43.3129ZM33.5314 41.6232C33.2898 41.6229 33.0515 41.5732 32.8318 41.478L31.2407 45.1479C31.9622 45.4607 32.7405 45.6223 33.5266 45.6232L33.5314 41.6232ZM32.825 41.475C32.5396 41.3526 32.2937 41.1605 32.1094 40.9199L28.9336 43.3517C29.5375 44.1405 30.3352 44.7593 31.2475 45.1508L32.825 41.475ZM32.1094 40.9199C31.9254 40.6795 31.8084 40.398 31.7679 40.1028L27.8051 40.6468C27.9402 41.6311 28.3294 42.5627 28.9336 43.3517L32.1094 40.9199ZM31.7679 40.1028C31.7274 39.8078 31.7644 39.5072 31.876 39.2293L28.1644 37.738C27.7939 38.6602 27.6699 39.6623 27.8051 40.6468L31.7679 40.1028ZM31.876 39.2293C31.9877 38.9513 32.1711 38.7039 32.4108 38.5124L29.9145 35.387C29.1384 36.0068 28.5348 36.8161 28.1644 37.738L31.876 39.2293ZM32.4108 38.5124C32.6507 38.3208 32.9383 38.1923 33.2464 38.1412L32.5921 34.1951C31.6126 34.3575 30.6903 34.7673 29.9145 35.387L32.4108 38.5124ZM33.2464 38.1412C33.5547 38.0901 33.871 38.1186 34.164 38.2234L35.5115 34.4572C34.5767 34.1228 33.5714 34.0327 32.5921 34.1951L33.2464 38.1412ZM34.164 38.2234C34.457 38.3282 34.7151 38.5051 34.9146 38.7345L37.9326 36.1093C37.2807 35.3598 36.4462 34.7916 35.5115 34.4572L34.164 38.2234ZM34.9146 38.7345C35.114 38.9637 35.2486 39.238 35.3077 39.5304L39.2285 38.7381C39.0317 37.7642 38.5847 36.859 37.9326 36.1093L34.9146 38.7345Z" fill="#8A8D8E" mask="url(#path-6-inside-1_216_166)"/>
<path d="M31.4463 23.5404C31.4463 25.0507 30.2054 26.2938 28.6514 26.2938C27.0974 26.2938 25.8564 25.0507 25.8564 23.5404C25.8564 22.0302 27.0974 20.7871 28.6514 20.7871C30.2054 20.7871 31.4463 22.0302 31.4463 23.5404Z" stroke="#8A8D8E" stroke-width="2" stroke-miterlimit="10"/>
<path d="M41.5964 27.9042C41.5964 29.4145 40.3555 30.6575 38.8015 30.6575C37.2475 30.6575 36.0066 29.4145 36.0066 27.9042C36.0066 26.3939 37.2475 25.1509 38.8015 25.1509C40.3555 25.1509 41.5964 26.3939 41.5964 27.9042Z" stroke="#8A8D8E" stroke-width="2" stroke-miterlimit="10"/>
<path d="M36.7034 11.5797C36.7034 13.09 35.4625 14.3331 33.9084 14.3331C32.3544 14.3331 31.1135 13.09 31.1135 11.5797C31.1135 10.0695 32.3544 8.82642 33.9084 8.82642C35.4625 8.82642 36.7034 10.0695 36.7034 11.5797Z" stroke="#8A8D8E" stroke-width="2" stroke-miterlimit="10"/>
<path d="M46.8535 15.9386C46.8535 17.4489 45.6126 18.692 44.0586 18.692C42.5046 18.692 41.2637 17.4489 41.2637 15.9386C41.2637 14.4284 42.5046 13.1853 44.0586 13.1853C45.6126 13.1853 46.8535 14.4284 46.8535 15.9386Z" stroke="#8A8D8E" stroke-width="2" stroke-miterlimit="10"/>
<mask id="path-12-inside-2_216_166" fill="white">
<path d="M43.578 37.0073L54.5378 12.0702L29.6279 1.36572L7.66797 51.3451L32.5728 62.0496L35.295 55.8541V55.8491"/>
</mask>
<path d="M54.5378 12.0702L56.3687 12.8749L57.1801 11.0288L55.3274 10.2327L54.5378 12.0702ZM29.6279 1.36572L30.4175 -0.471796L28.5949 -1.25505L27.7969 0.561196L29.6279 1.36572ZM7.66797 51.3451L5.83692 50.5405L5.0259 52.3864L6.8782 53.1825L7.66797 51.3451ZM32.5728 62.0496L31.783 63.887L33.6057 64.6705L34.4038 62.8541L32.5728 62.0496ZM35.295 55.8541L37.126 56.6586L37.295 56.2741V55.8541H35.295ZM45.409 37.812L56.3687 12.8749L52.7068 11.2655L41.7471 36.2026L45.409 37.812ZM55.3274 10.2327L30.4175 -0.471796L28.8383 3.20324L53.7481 13.9077L55.3274 10.2327ZM27.7969 0.561196L5.83692 50.5405L9.49902 52.1496L31.459 2.17025L27.7969 0.561196ZM6.8782 53.1825L31.783 63.887L33.3625 60.2121L8.45774 49.5076L6.8782 53.1825ZM34.4038 62.8541L37.126 56.6586L33.4639 55.0495L30.7417 61.245L34.4038 62.8541ZM37.295 55.8541V55.8491H33.295V55.8541H37.295Z" fill="#8A8D8E" mask="url(#path-12-inside-2_216_166)"/>
</g>
<defs>
<clipPath id="clip0_216_166">
<rect width="49" height="62" fill="white" transform="translate(7 0.705078)"/>
</clipPath>
</defs>
</svg>
