<svg width="84" height="88" viewBox="0 0 84 88" fill="none" xmlns="http://www.w3.org/2000/svg">
<g clip-path="url(#clip0_253_39)">
<path d="M47.4159 84.5998L49.9488 74.9092H71.9051V50.697H81.7661C81.7661 50.697 65.9855 16.7084 66.1136 16.8513V16.6941C63.2144 11.6206 58.9214 7.49356 53.7482 4.8067C48.575 2.11984 42.7405 0.986974 36.943 1.54362C29.4011 2.27949 22.4028 5.81205 17.3143 11.4518C12.2258 17.0915 9.4124 24.4335 9.42313 32.0447C9.44047 38.7235 11.6623 45.2079 15.741 50.4826C17.1303 52.2807 18.0753 54.3842 18.4983 56.6204C18.9213 58.8565 18.8103 61.1615 18.1743 63.3462L12.0271 84.5998" stroke="#D7E2E6" stroke-width="3" stroke-miterlimit="10"/>
<path d="M59.2122 65.9618C59.2122 63.9489 60.0083 62.0185 61.4253 60.5952C62.8423 59.1719 64.764 58.3723 66.768 58.3723H71.905" stroke="#D7E2E6" stroke-width="3" stroke-miterlimit="10"/>
<path d="M56.9071 23.8263H56.6794C56.6755 21.9231 55.949 20.0931 54.6481 18.7094C53.3472 17.3257 51.5699 16.4925 49.6785 16.3797C48.4833 13.321 44.8547 11.0913 40.5716 11.0913C35.9612 11.0913 32.1192 13.6498 31.2227 17.0658H31.0235C29.1065 17.0641 27.2633 17.8068 25.879 19.1387C24.4946 20.4706 23.6765 22.2885 23.5957 24.2122C22.0801 24.688 20.7557 25.6382 19.8161 26.924C18.8765 28.2098 18.3711 29.7637 18.3735 31.3587C18.3735 33.3463 19.1585 35.2528 20.5564 36.6596C21.9544 38.0664 23.851 38.8587 25.8298 38.8625V38.8625V53.4841H36.2173V40.4347H56.9071C59.1073 40.4347 61.2174 39.5568 62.7731 37.9941C64.3289 36.4314 65.2029 34.3119 65.2029 32.1019C65.1878 29.9018 64.3073 27.797 62.7532 26.2467C61.199 24.6963 59.0975 23.8263 56.9071 23.8263V23.8263Z" stroke="#D7E2E6" stroke-width="3" stroke-miterlimit="10"/>
<path d="M56.9069 40.4918C55.8182 40.4918 54.7402 40.2762 53.7345 39.8572C52.7288 39.4383 51.8152 38.8243 51.0459 38.0504C50.2767 37.2764 49.667 36.3577 49.2516 35.3468C48.8363 34.3359 48.6234 33.2527 48.6253 32.1591" stroke="#D7E2E6" stroke-width="3" stroke-miterlimit="10"/>
</g>
<defs>
<clipPath id="clip0_253_39">
<rect width="76" height="85" fill="white" transform="translate(8)"/>
</clipPath>
</defs>
</svg>
