<svg width="100" height="100" viewBox="0 0 100 100" fill="none" xmlns="http://www.w3.org/2000/svg">
<g clip-path="url(#clip0_129_67)">
<path d="M61.8701 89.03H24.2201L25.5301 86.46C26.8301 83.88 30.22 76.28 30.16 72.19C30.096 70.1315 29.6694 68.1004 28.9001 66.19C27.5367 63.9733 26.0476 61.8365 24.4401 59.79C21.8401 56.31 19.1501 52.72 17.9601 49.87C15.5874 43.5833 15.3624 36.6881 17.32 30.26C18.75 26.01 24.45 19.43 27.6 17.07C32.5452 13.3103 38.5408 11.1882 44.7501 11C51.6801 10.84 59.2901 13.21 63.1901 15.65C68.4701 18.93 70.1901 22.65 71.5301 25.65C71.7701 26.18 72 26.65 72.2401 27.17C72.3001 27.28 72.39 27.49 72.5201 27.78C73.4436 29.9473 74.5685 32.0231 75.88 33.98C76.09 34.26 76.68 35.07 76.38 37.82C77.89 39.61 82.38 44.87 83.82 46.59C84.98 47.94 84.44 51.17 83.2 52.26C82.5516 52.7473 81.8146 53.1039 81.0301 53.31C80.8001 53.39 80.4701 53.5 80.2201 53.6C80.2201 53.75 80.2201 53.93 80.2201 54.11C80.7911 54.9996 81.2638 55.9484 81.63 56.94C81.7687 57.511 81.7896 58.1043 81.6916 58.6836C81.5936 59.263 81.3788 59.8163 81.0601 60.31L80.91 60.47C81.5 61.66 81.7001 63.76 80.7701 64.9C80.4611 65.3008 80.0451 65.6058 79.57 65.78L79.7701 66.07C80.4663 66.8712 80.9022 67.8652 81.0201 68.92C81.0201 73.38 78.19 74.62 77.0201 75.15C75.3177 75.6999 73.539 75.9767 71.7501 75.97C69.9401 76.09 67.46 76.24 66.63 76.83C65.3 77.77 63.3301 83.17 62.2701 87.62L61.8701 89.03ZM29.8701 85.49H59.1C59.93 82.38 61.93 75.83 64.51 74C66.16 72.82 68.86 72.66 71.51 72.5C72.8808 72.4928 74.2451 72.3114 75.57 71.96C76.1817 71.7937 76.7124 71.4112 77.0636 70.8834C77.4148 70.3557 77.5628 69.7185 77.48 69.09C77.2987 68.7652 77.0983 68.4513 76.88 68.15C76.3711 67.5223 75.9875 66.8025 75.7501 66.03C75.5838 65.5626 75.536 65.0613 75.6111 64.5709C75.6861 64.0805 75.8816 63.6163 76.1801 63.22C76.3991 62.997 76.6607 62.8202 76.9492 62.7C77.2378 62.5798 77.5475 62.5186 77.86 62.52V62.34C77.4139 62.1601 77.0347 61.846 76.7749 61.4411C76.5151 61.0362 76.3876 60.5606 76.41 60.08C76.4987 59.6109 76.7157 59.1756 77.037 58.8225C77.3583 58.4694 77.7713 58.2124 78.23 58.08C78.236 58.0068 78.236 57.9332 78.23 57.86C77.8576 57.0663 77.4333 56.298 76.9601 55.56L76.6901 55.13V54.62C76.6901 52.05 77.33 51.45 77.61 51.19C78.2964 50.6334 79.0944 50.231 79.95 50.01C80.23 49.92 80.6101 49.79 80.8401 49.69C80.9411 49.3664 80.9917 49.0291 80.9901 48.69C78.9901 46.33 73.2401 39.55 73.2401 39.55L72.7201 38.94L72.8401 38.14C72.9652 37.4138 73.0055 36.6755 72.9601 35.94C71.5609 33.8336 70.3559 31.6044 69.36 29.28L69.14 28.79C68.88 28.27 68.6301 27.72 68.3701 27.15C67.0801 24.31 65.7501 21.37 61.3701 18.65C57.9901 16.54 51.0301 14.4 44.8701 14.53C39.3971 14.7028 34.1146 16.5801 29.76 19.9C26.76 22.17 21.7601 28.15 20.7101 31.39C19.0304 37.0051 19.2234 43.0143 21.26 48.51C22.26 50.95 24.9501 54.51 27.3101 57.67C29.0108 59.8386 30.5867 62.1023 32.0301 64.45C33.0899 66.8793 33.6706 69.4905 33.7401 72.14C33.7501 76.18 31.39 82.12 29.89 85.49H29.8701Z" fill="#8A8C8D"/>
<path d="M56.2999 58.02C56.3683 57.9508 56.4066 57.8574 56.4066 57.76C56.4066 57.6627 56.3683 57.5693 56.2999 57.5L55.6499 56.21C55.9369 55.6972 56.1459 55.1445 56.2699 54.57L57.7299 53.99C57.8266 53.9752 57.9135 53.9227 57.9716 53.844C58.0297 53.7653 58.0542 53.6668 58.0399 53.57L57.4799 50.64C57.4693 50.5931 57.4495 50.5487 57.4215 50.5095C57.3935 50.4704 57.3579 50.4373 57.3169 50.4121C57.2759 50.3869 57.2302 50.3702 57.1827 50.363C57.1351 50.3558 57.0865 50.3582 57.0399 50.37L55.5899 50.29C55.2904 49.7834 54.9162 49.325 54.4799 48.93L54.6999 47.38C54.7196 47.3361 54.7304 47.2887 54.7315 47.2406C54.7325 47.1925 54.724 47.1446 54.7063 47.0999C54.6886 47.0551 54.662 47.0144 54.6283 46.98C54.5946 46.9457 54.5543 46.9185 54.5099 46.9L51.6799 45.9C51.5858 45.8755 51.4857 45.8891 51.4015 45.9377C51.3173 45.9864 51.2556 46.0662 51.2299 46.16L50.4399 47.37C49.8491 47.3751 49.2624 47.4695 48.6999 47.65L47.4699 46.65C47.4106 46.5744 47.3242 46.5249 47.229 46.5118C47.1339 46.4987 47.0373 46.5232 46.9599 46.58L44.6899 48.58C44.6215 48.6493 44.5831 48.7427 44.5831 48.84C44.5831 48.9373 44.6215 49.0308 44.6899 49.1L45.3499 50.39C45.0585 50.9008 44.8493 51.4542 44.7299 52.03L43.2699 52.61C43.1725 52.6249 43.0847 52.677 43.025 52.7553C42.9653 52.8337 42.9384 52.9322 42.9499 53.03L43.5199 55.96C43.5304 56.007 43.5503 56.0513 43.5783 56.0905C43.6062 56.1296 43.6418 56.1628 43.6828 56.188C43.7239 56.2131 43.7695 56.2298 43.8171 56.237C43.8647 56.2443 43.9132 56.2419 43.9599 56.23L45.4099 56.31C45.7089 56.8141 46.0795 57.2722 46.5099 57.67L46.2899 59.22C46.2534 59.3102 46.2539 59.4112 46.2913 59.5011C46.3288 59.5909 46.4001 59.6624 46.4899 59.7L49.3199 60.7C49.3658 60.7137 49.4141 60.7181 49.4617 60.7129C49.5094 60.7077 49.5556 60.693 49.5975 60.6697C49.6394 60.6464 49.6762 60.615 49.7058 60.5772C49.7355 60.5395 49.7572 60.4963 49.7699 60.45L50.5599 59.24C51.1503 59.23 51.7362 59.1357 52.2999 58.96L53.5299 59.96C53.5892 60.0356 53.6755 60.0852 53.7707 60.0982C53.8659 60.1113 53.9624 60.0868 54.0399 60.03L56.2999 58.02Z" fill="#8A8C8D"/>
<path d="M34.1198 35.99C34.1443 35.9658 34.1637 35.937 34.177 35.9053C34.1903 35.8735 34.1971 35.8394 34.1971 35.805C34.1971 35.7706 34.1903 35.7365 34.177 35.7048C34.1637 35.673 34.1443 35.6442 34.1198 35.62L33.6598 34.68C33.8717 34.311 34.03 33.9136 34.1298 33.5L35.1798 33.09C35.2497 33.0824 35.3138 33.0479 35.3587 32.9937C35.4035 32.9396 35.4254 32.8701 35.4198 32.8L35.0398 30.66C35.021 30.5933 34.9773 30.5364 34.9177 30.5011C34.8582 30.4657 34.7873 30.4546 34.7198 30.47L33.6698 30.4C33.4642 30.0249 33.1971 29.6869 32.8798 29.4L33.0598 28.28C33.0867 28.2149 33.0872 28.1419 33.061 28.0765C33.0348 28.0111 32.9842 27.9586 32.9198 27.93L30.9198 27.19C30.8863 27.1793 30.851 27.1755 30.8161 27.1789C30.7811 27.1822 30.7472 27.1926 30.7163 27.2095C30.6855 27.2263 30.6584 27.2492 30.6366 27.2768C30.6149 27.3044 30.599 27.3361 30.5898 27.37L30.0098 28.24C29.5834 28.2409 29.1594 28.3015 28.7498 28.42L27.8698 27.72C27.8499 27.6912 27.8244 27.6668 27.7948 27.6481C27.7652 27.6294 27.7321 27.6168 27.6976 27.6112C27.663 27.6056 27.6277 27.6071 27.5937 27.6154C27.5597 27.6238 27.5278 27.639 27.4998 27.66L25.8398 29.06C25.8153 29.0842 25.7959 29.113 25.7826 29.1447C25.7693 29.1765 25.7625 29.2106 25.7625 29.245C25.7625 29.2794 25.7693 29.3135 25.7826 29.3453C25.7959 29.377 25.8153 29.4058 25.8398 29.43L26.3098 30.37C26.0979 30.739 25.9396 31.1364 25.8398 31.55L24.7798 31.96C24.7117 31.97 24.65 32.0055 24.6073 32.0594C24.5645 32.1133 24.544 32.1814 24.5498 32.25L24.9298 34.38C24.9465 34.4485 24.9893 34.5078 25.0491 34.5452C25.1089 34.5826 25.1809 34.5951 25.2498 34.58L26.2498 34.65C26.4586 35.0203 26.7215 35.3574 27.0298 35.65L26.8598 36.77C26.8329 36.8351 26.8324 36.9081 26.8586 36.9735C26.8848 37.0389 26.9354 37.0915 26.9998 37.12L28.9998 37.85C29.0333 37.8607 29.0686 37.8645 29.1035 37.8611C29.1385 37.8578 29.1724 37.8473 29.2033 37.8305C29.2341 37.8137 29.2612 37.7908 29.283 37.7632C29.3047 37.7356 29.3206 37.7039 29.3298 37.67L29.9098 36.8C30.3362 36.7999 30.7604 36.7393 31.1698 36.62L32.0498 37.33C32.0949 37.3851 32.1593 37.4209 32.2299 37.4302C32.3005 37.4395 32.372 37.4215 32.4298 37.38L34.1198 35.99Z" fill="#8A8C8D"/>
<path d="M39.0099 40.34C38.9237 40.2539 38.8068 40.2055 38.685 40.2055C38.5631 40.2055 38.4462 40.2539 38.36 40.34L36.7899 41.24C36.1322 40.9184 35.4317 40.6928 34.71 40.57L33.8799 38.79C33.8558 38.6708 33.7855 38.566 33.6843 38.4985C33.5831 38.4311 33.4593 38.4065 33.34 38.43L29.71 39.32C29.5953 39.3568 29.4996 39.4372 29.4435 39.5437C29.3874 39.6503 29.3754 39.7746 29.4099 39.89V41.73C28.7965 42.1361 28.2471 42.6316 27.78 43.2L25.78 43.03C25.7242 43.0093 25.6648 42.9999 25.6054 43.0023C25.5459 43.0047 25.4876 43.0189 25.4336 43.044C25.3797 43.0691 25.3312 43.1046 25.2911 43.1486C25.251 43.1925 25.22 43.244 25.1999 43.3L24.15 46.9C24.1259 47.0192 24.1488 47.143 24.2141 47.2455C24.2794 47.3481 24.3818 47.4214 24.5 47.45L26.0699 48.35C26.1114 49.0861 26.2665 49.8114 26.53 50.5L25.4099 52.1C25.3635 52.1377 25.325 52.1843 25.2968 52.2371C25.2685 52.2899 25.2511 52.3478 25.2455 52.4074C25.2399 52.467 25.2463 52.5271 25.2642 52.5842C25.2822 52.6413 25.3113 52.6943 25.3499 52.74L27.9499 55.44C27.9918 55.4823 28.0416 55.5159 28.0966 55.5389C28.1515 55.5618 28.2104 55.5736 28.27 55.5736C28.3295 55.5736 28.3884 55.5618 28.4434 55.5389C28.4983 55.5159 28.5481 55.4823 28.59 55.44L30.1599 54.53C30.8189 54.8574 31.5235 55.0833 32.25 55.2L33.0699 56.98C33.0942 57.0998 33.1641 57.2054 33.265 57.2745C33.3658 57.3435 33.4895 57.3706 33.61 57.35L37.24 56.45C37.2975 56.4329 37.351 56.4045 37.3974 56.3664C37.4438 56.3283 37.4821 56.2813 37.51 56.2282C37.538 56.1751 37.555 56.1169 37.5602 56.0571C37.5653 55.9973 37.5584 55.9371 37.5399 55.88V54.07C38.1555 53.6666 38.7053 53.1708 39.17 52.6L41.12 52.77C41.2354 52.8089 41.3615 52.8014 41.4715 52.7492C41.5816 52.697 41.6671 52.6041 41.71 52.49L42.71 48.9C42.7232 48.8409 42.7247 48.7798 42.7143 48.7201C42.7038 48.6604 42.6817 48.6034 42.6492 48.5523C42.6167 48.5012 42.5744 48.457 42.5247 48.4223C42.4751 48.3876 42.4191 48.363 42.36 48.35L40.8 47.45C40.7509 46.7149 40.596 45.9908 40.34 45.3L41.46 43.7C41.506 43.6607 41.5439 43.6126 41.5713 43.5587C41.5988 43.5047 41.6153 43.4458 41.62 43.3854C41.6246 43.325 41.6173 43.2643 41.5984 43.2067C41.5795 43.1492 41.5495 43.0959 41.5099 43.05L39.0099 40.34Z" fill="#8A8C8D"/>
<path d="M61.94 38.2L60.56 35.85C61.0465 34.855 61.3835 33.7935 61.56 32.7L64.22 31.43C64.3094 31.4132 64.3946 31.3789 64.4708 31.3291C64.5469 31.2792 64.6124 31.2148 64.6635 31.1395C64.7146 31.0642 64.7503 30.9795 64.7686 30.8904C64.7869 30.8012 64.7873 30.7094 64.77 30.62L63.3899 25.17C63.3627 25.0832 63.3185 25.0025 63.2599 24.9328C63.2013 24.8631 63.1295 24.8057 63.0486 24.7639C62.9678 24.722 62.8794 24.6966 62.7887 24.6891C62.698 24.6816 62.6066 24.6921 62.52 24.72H59.7899C59.168 23.8065 58.4169 22.988 57.56 22.29L57.81 19.35C57.865 19.1762 57.851 18.9878 57.771 18.824C57.6909 18.6602 57.5509 18.5334 57.3799 18.47L51.96 16.94C51.8712 16.9195 51.7793 16.9171 51.6896 16.9328C51.5999 16.9485 51.5143 16.982 51.4378 17.0315C51.3613 17.0809 51.2955 17.1452 51.2444 17.2205C51.1932 17.2959 51.1577 17.3807 51.1399 17.47L49.7899 19.84C48.6867 19.9111 47.6008 20.1505 46.5699 20.55L44.1399 18.87C44.0804 18.7975 44.0067 18.738 43.9233 18.6949C43.8399 18.6519 43.7486 18.6263 43.655 18.6198C43.5614 18.6132 43.4675 18.6258 43.3789 18.6568C43.2903 18.6878 43.209 18.7365 43.1399 18.8L39.1399 22.73C39.0734 22.7952 39.0206 22.873 38.9845 22.9588C38.9484 23.0447 38.9298 23.1369 38.9298 23.23C38.9298 23.3231 38.9484 23.4153 38.9845 23.5012C39.0206 23.5871 39.0734 23.6648 39.1399 23.73L40.52 26.07C40.0273 27.0662 39.6901 28.1318 39.52 29.23L36.8499 30.49C36.6711 30.5262 36.5139 30.6318 36.4127 30.7835C36.3115 30.9353 36.2746 31.1211 36.31 31.3L37.69 36.75C37.7452 36.9232 37.8664 37.0676 38.0275 37.1518C38.1885 37.2361 38.3762 37.2534 38.55 37.2H41.28C41.8991 38.1187 42.6505 38.9409 43.5099 39.64L43.27 42.58C43.2401 42.666 43.2275 42.7571 43.2329 42.848C43.2384 42.9389 43.2618 43.0277 43.3017 43.1095C43.3417 43.1913 43.3975 43.2644 43.4658 43.3246C43.5342 43.3847 43.6137 43.4308 43.6999 43.46L49.12 44.99C49.2086 45.0091 49.3001 45.0105 49.3893 44.9942C49.4785 44.9779 49.5636 44.9442 49.6398 44.895C49.716 44.8458 49.7817 44.782 49.8332 44.7074C49.8847 44.6327 49.921 44.5487 49.94 44.46L51.28 42.1C52.3864 42.0217 53.475 41.7791 54.5099 41.38L56.93 43.06C56.9903 43.1313 57.0644 43.1898 57.1477 43.232C57.2311 43.2742 57.322 43.2993 57.4152 43.3059C57.5084 43.3124 57.602 43.3002 57.6904 43.27C57.7788 43.2398 57.8602 43.1922 57.93 43.13L61.93 39.2C61.9997 39.137 62.0556 39.0603 62.0942 38.9746C62.1328 38.8889 62.1532 38.7962 62.1541 38.7022C62.1551 38.6083 62.1365 38.5151 62.0996 38.4287C62.0628 38.3423 62.0084 38.2644 61.94 38.2Z" fill="#8A8C8D"/>
</g>
<defs>
<clipPath id="clip0_129_67">
<rect width="68.46" height="78.03" fill="white" transform="translate(16 11)"/>
</clipPath>
</defs>
</svg>
