<svg width="100" height="100" viewBox="0 0 100 100" fill="none" xmlns="http://www.w3.org/2000/svg">
<g clip-path="url(#clip0_129_34)">
<path d="M47.5199 45.62C47.1307 45.6337 46.7429 45.5661 46.3813 45.4215C46.0197 45.2768 45.6923 45.0584 45.4199 44.78C44.6399 43.98 44.6299 43.09 44.6299 41.56C44.6299 40.03 44.6299 39.15 45.4199 38.35C45.8051 37.9566 46.2933 37.6798 46.8286 37.5511C47.3639 37.4224 47.9247 37.4472 48.4465 37.6226C48.9684 37.7979 49.4303 38.1167 49.7794 38.5425C50.1284 38.9683 50.3504 39.4838 50.4199 40.03H48.8599C48.8232 39.7835 48.718 39.5522 48.5562 39.3625C48.3944 39.1729 48.1826 39.0326 47.9449 38.9575C47.7072 38.8825 47.4532 38.8757 47.2118 38.938C46.9705 39.0004 46.7515 39.1292 46.5799 39.31C46.2899 39.65 46.1999 40.04 46.1999 41.56C46.1999 43.08 46.2899 43.48 46.5799 43.82C46.7066 43.9571 46.8617 44.0649 47.0345 44.1357C47.2072 44.2066 47.3934 44.2387 47.5799 44.23C47.8994 44.2374 48.2104 44.1259 48.4524 43.9172C48.6944 43.7084 48.8503 43.4172 48.8899 43.1H50.4399C50.3737 43.8162 50.0325 44.4788 49.488 44.9488C48.9435 45.4187 48.238 45.6593 47.5199 45.62Z" fill="#8A8C8D"/>
<path d="M51.8201 46.24V45.24L53.5301 43.33C53.6052 43.2636 53.6655 43.1821 53.7068 43.0907C53.7482 42.9993 53.7698 42.9003 53.7701 42.8C53.7701 42.678 53.7216 42.561 53.6353 42.4747C53.5491 42.3884 53.4321 42.34 53.3101 42.34C53.1881 42.34 53.0711 42.3884 52.9848 42.4747C52.8985 42.561 52.8501 42.678 52.8501 42.8H51.8501C51.8501 42.4022 52.0081 42.0206 52.2894 41.7393C52.5707 41.458 52.9522 41.3 53.3501 41.3C53.7479 41.3 54.1294 41.458 54.4107 41.7393C54.692 42.0206 54.8501 42.4022 54.8501 42.8C54.841 43.0224 54.7856 43.2404 54.6874 43.4401C54.5893 43.6398 54.4505 43.8169 54.2801 43.96L53.1301 45.24H54.8501V46.24H51.8201Z" fill="#8A8C8D"/>
<path d="M60.61 45.55V42.21H57.9599V45.55H56.4399V37.55H57.9599V40.81H60.61V37.55H62.1299V45.55H60.61Z" fill="#8A8C8D"/>
<path d="M66.62 45.88C66.3317 46.1529 65.9469 46.3003 65.55 46.29C65.3514 46.3043 65.1521 46.2764 64.9651 46.2082C64.7781 46.1399 64.6077 46.0328 64.465 45.894C64.3224 45.7551 64.2108 45.5876 64.1375 45.4025C64.0642 45.2174 64.031 45.0189 64.04 44.82H65.04C65.04 45.14 65.21 45.34 65.51 45.34C65.5718 45.3411 65.6331 45.3292 65.6899 45.3051C65.7468 45.281 65.7979 45.2452 65.84 45.2C65.9545 45.0334 66.0043 44.8307 65.98 44.63C65.98 44.13 65.84 43.91 65.51 43.91C65.4046 43.8981 65.2985 43.9265 65.2132 43.9896C65.1278 44.0527 65.0695 44.1457 65.05 44.25H64.05V41.46H66.87V42.41H65V43.23C65.1813 43.0938 65.4034 43.0233 65.63 43.03C65.7961 43.0212 65.9622 43.0458 66.1185 43.1025C66.2749 43.1592 66.4182 43.2468 66.54 43.36C66.695 43.5308 66.8132 43.7317 66.8872 43.9502C66.9612 44.1687 66.9894 44.4001 66.97 44.63C67.0042 44.8513 66.9906 45.0773 66.9303 45.2929C66.8699 45.5085 66.7641 45.7086 66.62 45.88Z" fill="#8A8C8D"/>
<path d="M68.7999 39.16C68.7655 38.6638 68.8621 38.1672 69.0799 37.72C69.3542 37.2861 69.6912 36.8952 70.0799 36.56L71.0799 37.56C70.8393 37.7734 70.6335 38.0231 70.4699 38.3C70.3382 38.595 70.2798 38.9175 70.2999 39.24V43.99C70.2825 44.3123 70.3407 44.6342 70.4699 44.93C70.636 45.2051 70.8415 45.4544 71.0799 45.67L70.0799 46.67C69.6898 46.34 69.3525 45.9522 69.0799 45.52C68.8584 45.0741 68.7616 44.5765 68.7999 44.08V39.16Z" fill="#8A8C8D"/>
<path d="M76.7801 44.78C76.5122 45.0588 76.1884 45.2778 75.83 45.4226C75.4715 45.5674 75.0864 45.6346 74.7001 45.62C74.3107 45.635 73.9226 45.5679 73.5608 45.4232C73.199 45.2785 72.8717 45.0593 72.6001 44.78C71.8201 43.98 71.8101 43.09 71.8101 41.56C71.8101 40.03 71.8101 39.15 72.6001 38.35C72.8717 38.0706 73.199 37.8515 73.5608 37.7068C73.9226 37.5621 74.3107 37.495 74.7001 37.51C75.0864 37.4953 75.4715 37.5626 75.83 37.7074C76.1884 37.8522 76.5122 38.0711 76.7801 38.35C77.5601 39.15 77.5801 40.04 77.5801 41.56C77.5801 43.08 77.5601 43.98 76.7801 44.78ZM75.6701 39.32C75.5443 39.181 75.3895 39.0714 75.2167 38.9988C75.0439 38.9263 74.8573 38.8925 74.6701 38.9C74.4831 38.8952 74.2973 38.9301 74.1249 39.0025C73.9525 39.0749 73.7975 39.1831 73.6701 39.32C73.3901 39.66 73.3 40.04 73.3 41.56C73.3 43.08 73.3901 43.46 73.6701 43.79C73.7948 43.9315 73.9489 44.0441 74.1216 44.1201C74.2943 44.1961 74.4814 44.2336 74.6701 44.23C74.8591 44.2364 75.0471 44.2002 75.2202 44.124C75.3933 44.0478 75.5471 43.9337 75.6701 43.79C75.9601 43.46 76.0601 43.09 76.0601 41.56C76.0601 40.03 75.9601 39.66 75.6701 39.32Z" fill="#8A8C8D"/>
<path d="M83.3099 45.55V42.21H80.6699V45.55H79.1399V37.55H80.6699V40.81H83.3099V37.55H84.8399V45.55H83.3099Z" fill="#8A8C8D"/>
<path d="M88.26 45.45C87.9856 45.8808 87.6485 46.2684 87.26 46.6L86.26 45.6C86.5014 45.3847 86.7103 45.1354 86.88 44.86C87.0051 44.5632 87.0598 44.2415 87.04 43.92V39.16C87.0609 38.8385 87.0061 38.5165 86.88 38.22C86.7129 37.9428 86.5037 37.6931 86.26 37.48L87.26 36.48C87.6465 36.8175 87.9832 37.208 88.26 37.64C88.4855 38.0848 88.5857 38.5826 88.55 39.08V43.97C88.5976 44.481 88.4969 44.9948 88.26 45.45Z" fill="#8A8C8D"/>
<path d="M5.7801 72.44C5.3541 72.1265 4.83903 71.9574 4.3101 71.9574C3.78118 71.9574 3.2661 72.1265 2.8401 72.44C2.5771 72.6615 2.36569 72.9378 2.22066 73.2496C2.07564 73.5614 2.00049 73.9011 2.00049 74.245C2.00049 74.5889 2.07564 74.9286 2.22066 75.2404C2.36569 75.5521 2.5771 75.8285 2.8401 76.05C3.15616 76.2717 3.49073 76.4657 3.8401 76.63C4.88794 77.1962 5.87624 77.8662 6.7901 78.63C6.93129 78.7735 7.11253 78.8711 7.3101 78.91C7.8401 78.91 7.9701 78.46 7.9701 77.99C7.98272 77.7835 7.98272 77.5765 7.9701 77.37C7.6501 75.51 7.3301 73.58 5.7801 72.44ZM5.7801 76.39L5.0601 75.96C4.5072 75.7192 4.0024 75.3805 3.5701 74.96C3.4127 74.7861 3.29951 74.5769 3.2401 74.35C3.20085 74.1457 3.22258 73.9343 3.3026 73.7423C3.38262 73.5502 3.51738 73.386 3.6901 73.27C4.3001 72.88 5.1301 73.33 5.5601 73.8C6.25104 74.6993 6.65212 75.7874 6.7101 76.92C6.6401 76.79 5.8601 76.47 5.7301 76.39H5.7801Z" fill="#8A8C8D"/>
<path d="M22.0101 71.31C21.6318 71.4626 21.2877 71.6888 20.9976 71.9755C20.7074 72.2622 20.4772 72.6036 20.3201 72.98C19.8279 74.0414 19.5818 75.2002 19.6001 76.37C19.6001 76.61 19.6001 76.85 19.6001 77.09C19.5982 77.1893 19.6214 77.2874 19.6676 77.3753C19.7137 77.4632 19.7813 77.5381 19.8641 77.5929C19.9468 77.6477 20.0421 77.6808 20.141 77.689C20.24 77.6973 20.3394 77.6804 20.4301 77.64C20.8784 77.3483 21.2971 77.0133 21.6801 76.64C22.1101 76.3 22.5701 75.97 23.0101 75.64C23.6783 75.2589 24.2258 74.6975 24.5901 74.02C24.711 73.6755 24.7405 73.3055 24.6757 72.9462C24.6108 72.5868 24.4538 72.2505 24.2201 71.97C23.9517 71.6624 23.6017 71.4372 23.2105 71.3203C22.8194 71.2035 22.4032 71.1999 22.0101 71.31ZM22.5501 74.46L20.8001 75.65C20.8653 75.388 20.9022 75.1198 20.9101 74.85C20.9567 74.63 21.0167 74.41 21.0901 74.19C21.2538 73.7215 21.4863 73.28 21.7801 72.88C21.8889 72.7174 22.0324 72.5808 22.2001 72.48C22.3685 72.4193 22.5501 72.4048 22.7261 72.4382C22.902 72.4717 23.0657 72.5517 23.2001 72.67C23.9801 73.35 23.1401 74.07 22.5501 74.46Z" fill="#8A8C8D"/>
<path d="M8.4901 71.87C8.35065 71.8884 8.22264 71.9569 8.12992 72.0627C8.0372 72.1685 7.98608 72.3043 7.98608 72.445C7.98608 72.5857 8.0372 72.7215 8.12992 72.8273C8.22264 72.9331 8.35065 73.0016 8.4901 73.02C8.57197 73.0308 8.65521 73.024 8.73425 73.0001C8.81328 72.9761 8.88629 72.9356 8.94839 72.8811C9.0105 72.8267 9.06027 72.7596 9.09436 72.6844C9.12845 72.6092 9.14609 72.5276 9.14609 72.445C9.14609 72.3624 9.12845 72.2808 9.09436 72.2055C9.06027 72.1303 9.0105 72.0633 8.94839 72.0088C8.88629 71.9544 8.81328 71.9138 8.73425 71.8899C8.65521 71.8659 8.57197 71.8592 8.4901 71.87Z" fill="#8A8C8D"/>
<path d="M21.36 66.57C21.4344 66.5713 21.5083 66.5578 21.5774 66.5303C21.6465 66.5027 21.7094 66.4617 21.7625 66.4096C21.8156 66.3574 21.8577 66.2952 21.8865 66.2266C21.9152 66.158 21.9301 66.0844 21.93 66.01C21.93 65.8588 21.87 65.7138 21.7631 65.6069C21.6562 65.5001 21.5112 65.44 21.36 65.44C21.2097 65.4426 21.0662 65.5035 20.9598 65.6098C20.8535 65.7161 20.7926 65.8596 20.79 66.01C20.7927 66.1594 20.8539 66.3019 20.9605 66.4066C21.0671 66.5113 21.2106 66.57 21.36 66.57Z" fill="#8A8C8D"/>
<path d="M19.03 70.16C18.8814 70.16 18.739 70.219 18.634 70.324C18.529 70.429 18.47 70.5715 18.47 70.72C18.47 70.8685 18.529 71.011 18.634 71.116C18.739 71.221 18.8814 71.28 19.03 71.28C19.1785 71.28 19.3209 71.221 19.4259 71.116C19.531 71.011 19.59 70.8685 19.59 70.72C19.59 70.5715 19.531 70.429 19.4259 70.324C19.3209 70.219 19.1785 70.16 19.03 70.16Z" fill="#8A8C8D"/>
<path d="M15.57 80.05H12.01L12.07 70.39H11.55L10.9 80.1H9.84002C9.23002 80.1 9.02001 79.88 9.10001 79.28C9.31001 77.8 10.21 68.91 10.58 66.62H16.58C16.92 68.67 17.92 75.82 18.17 77.47C18.25 78.02 18.32 78.57 18.42 79.13C18.52 79.69 18.36 80.13 17.61 80.13H16.61L16.01 74.13H15.26L15.57 80.05Z" fill="#8A8C8D"/>
<path d="M66.5899 19C58.4573 19.0106 50.6609 22.2467 44.9111 27.9983C39.1614 33.7499 35.9279 41.5473 35.9199 49.68C35.9199 50.07 35.9199 50.45 35.9199 50.83H29.0599L28.9999 49C28.9999 49 28.9999 47.36 28.9999 46.51H30.8099C31.1384 46.5181 31.4651 46.46 31.7706 46.3392C32.0761 46.2184 32.3543 46.0374 32.5884 45.807C32.8226 45.5766 33.0081 45.3014 33.1337 44.9978C33.2594 44.6943 33.3227 44.3685 33.3199 44.04C33.3155 43.6976 33.2408 43.3596 33.1005 43.0473C32.9601 42.7349 32.757 42.4546 32.5038 42.224C32.2507 41.9933 31.9528 41.8171 31.6288 41.7064C31.3047 41.5956 30.9613 41.5526 30.6199 41.58C29.2699 41.58 22.8399 41.58 21.1699 41.58C20.8303 41.5553 20.4892 41.6008 20.1679 41.7137C19.8466 41.8266 19.552 42.0044 19.3024 42.2361C19.0528 42.4679 18.8537 42.7485 18.7173 43.0606C18.581 43.3726 18.5104 43.7094 18.5099 44.05C18.5084 44.3786 18.5731 44.7041 18.7 45.0071C18.8268 45.3102 19.0134 45.5847 19.2485 45.8142C19.4836 46.0437 19.7625 46.2236 20.0685 46.3431C20.3745 46.4626 20.7015 46.5194 21.0299 46.51H22.8299C22.8299 47.36 22.8299 48.97 22.8299 48.97V50.85C21.3799 50.85 16.5899 50.78 15.1499 50.93C13.5924 51.1486 12.1574 51.8958 11.0851 53.0464C10.0128 54.1969 9.36845 55.681 9.25992 57.25C9.17992 59.63 9.25992 62.02 9.25992 64.4C9.25992 64.5644 9.32524 64.7221 9.44152 64.8384C9.55779 64.9547 9.71549 65.02 9.87992 65.02H17.2199C17.3942 65.0201 17.5617 64.9522 17.6867 64.8309C17.8118 64.7095 17.8847 64.5442 17.8899 64.37C17.8899 63.89 17.8899 63.37 17.8899 62.94V59.47H37.5399C39.3427 64.8161 42.5852 69.5614 46.9106 73.1837C51.2361 76.8061 56.4769 79.1651 62.0565 80.0013C67.6361 80.8375 73.3383 80.1184 78.5356 77.9232C83.7329 75.7279 88.224 72.1416 91.5147 67.5588C94.8054 62.976 96.7683 57.5743 97.1874 51.948C97.6064 46.3217 96.4654 40.6888 93.8898 35.6691C91.3143 30.6493 87.4041 26.4373 82.5893 23.4964C77.7745 20.5555 72.2418 18.9996 66.5999 19H66.5899ZM21.1099 45.1C20.8247 45.0733 20.5597 44.9411 20.3668 44.7294C20.174 44.5176 20.067 44.2415 20.067 43.955C20.067 43.6685 20.174 43.3924 20.3668 43.1806C20.5597 42.9689 20.8247 42.8367 21.1099 42.81H30.5399C30.8251 42.8367 31.0901 42.9689 31.283 43.1806C31.4759 43.3924 31.5828 43.6685 31.5828 43.955C31.5828 44.2415 31.4759 44.5176 31.283 44.7294C31.0901 44.9411 30.8251 45.0733 30.5399 45.1H21.1099ZM94.5899 49.68C94.5899 50.06 94.5899 50.44 94.5899 50.82H38.6199C38.6199 50.44 38.6199 50.06 38.6199 49.68C38.6199 42.2539 41.5699 35.132 46.8209 29.881C52.072 24.63 59.1939 21.68 66.6199 21.68C74.046 21.68 81.1679 24.63 86.4189 29.881C91.6699 35.132 94.6199 42.2539 94.6199 49.68H94.5899Z" fill="#8A8C8D"/>
</g>
<defs>
<clipPath id="clip0_129_34">
<rect width="95.28" height="61.36" fill="white" transform="translate(2 19)"/>
</clipPath>
</defs>
</svg>
