<svg width="85" height="85" viewBox="0 0 85 85" fill="none" xmlns="http://www.w3.org/2000/svg">
<path d="M70.6362 38.8285C68.1385 37.4756 65.3946 36.6303 62.5646 36.3418C63.968 33.4489 64.695 30.2784 64.6914 27.0672C64.6909 22.0869 62.9405 17.2629 59.7422 13.4275C56.5439 9.59205 52.0983 6.98572 47.1723 6.05811V6.18037C50.691 7.06733 53.8116 9.09414 56.0407 11.9403C58.2698 14.7865 59.4801 18.2896 59.4802 21.8956C59.4802 26.1945 57.761 30.3174 54.7008 33.3572C51.6406 36.397 47.4901 38.1048 43.1623 38.1048C38.8366 38.1035 34.6885 36.3962 31.6296 33.3581C28.5706 30.32 26.8512 26.1998 26.8493 21.9029C26.849 18.2968 28.0592 14.7935 30.2883 11.9472C32.5175 9.10099 35.6384 7.07427 39.1573 6.18769V6.06543C34.2317 6.99356 29.7867 9.60011 26.5889 13.4355C23.391 17.2708 21.641 22.0945 21.6405 27.0745C21.6362 30.2748 22.3581 33.4349 23.7526 36.3198C20.8115 36.5751 17.9554 37.4318 15.3635 38.8359C10.9596 41.2155 7.52972 45.0471 5.66527 49.6698C3.80082 54.2924 3.61868 59.4165 5.15029 64.1583L5.25862 64.0996C4.36238 60.6048 4.66433 56.9129 6.11675 53.6076C7.56918 50.3023 10.0892 47.5721 13.2785 45.8487C17.0807 43.7956 21.5483 43.3269 25.6984 44.5458C29.8486 45.7646 33.3413 48.5712 35.4083 52.348C37.4753 56.1246 37.9475 60.5622 36.721 64.6846C35.4944 68.807 32.6696 72.2766 28.8678 74.3303C25.6775 76.0522 22.0005 76.6687 18.418 76.0824C14.8355 75.4961 11.5519 73.7404 9.08639 71.0928L8.97809 71.1515C12.1519 75.0067 16.5807 77.6409 21.5004 78.5997C26.4202 79.5585 31.5226 78.7819 35.9277 76.4038C38.7109 74.9049 41.1253 72.8122 42.9974 70.2761C44.871 72.8117 47.2861 74.9043 50.0696 76.4038C54.4746 78.7819 59.577 79.5585 64.4968 78.5997C69.4166 77.6409 73.8452 75.0067 77.0191 71.1515L76.9108 71.0928C74.4453 73.7404 71.1617 75.4961 67.5792 76.0824C63.9967 76.6687 60.3197 76.0522 57.1294 74.3303C53.3276 72.2766 50.5028 68.807 49.2762 64.6846C48.0497 60.5622 48.5219 56.1246 50.589 52.348C52.6559 48.5712 56.1487 45.7646 60.2988 44.5458C64.4489 43.3269 68.9164 43.7956 72.7187 45.8487C75.908 47.5721 78.428 50.3023 79.8805 53.6076C81.3329 56.9129 81.6348 60.6048 80.7386 64.0996L80.8469 64.1583C82.3806 59.4158 82.1999 54.2903 80.3358 49.666C78.4717 45.0418 75.0412 41.2088 70.6362 38.8285Z" stroke="#E7F6FE" stroke-width="2" stroke-miterlimit="10"/>
<path d="M43 53.5194C46.3511 53.5194 49.0678 50.8208 49.0678 47.492C49.0678 44.1632 46.3511 41.4646 43 41.4646C39.6488 41.4646 36.9321 44.1632 36.9321 47.492C36.9321 50.8208 39.6488 53.5194 43 53.5194Z" stroke="#E7F6FE" stroke-width="2" stroke-miterlimit="10"/>
<path d="M32.3018 28.2606C35.5778 26.4557 39.2635 25.5114 43.0097 25.5171C46.8516 25.5112 50.6281 26.5043 53.9638 28.3975V28.3975" stroke="#E7F6FE" stroke-width="2" stroke-miterlimit="10"/>
<path d="M54.082 66.513C57.4337 64.588 60.2176 61.8223 62.1551 58.4927C64.0926 55.1632 65.1158 51.3865 65.1223 47.5408" stroke="#E7F6FE" stroke-width="2" stroke-miterlimit="10"/>
<path d="M20.8801 47.5408C20.8866 51.3865 21.9098 55.1632 23.8473 58.4927C25.7848 61.8223 28.5687 64.588 31.9204 66.513" stroke="#E7F6FE" stroke-width="2" stroke-miterlimit="10"/>
</svg>
