<svg width="1272" height="36" viewBox="0 0 1272 36" fill="none" xmlns="http://www.w3.org/2000/svg">
<path d="M3.646 22.6396L14.4434 1.27344H17.9473V29H14.4434V7.61475L3.646 29H0.161133V1.27344H3.646V22.6396ZM25.2788 1.27344H28.6685L35.9238 23.8774L43.1602 1.27344H46.5498L37.2378 29H34.5718L25.2788 1.27344ZM24.1743 1.27344H27.145L27.6592 18.1836V29H24.1743V1.27344ZM44.6646 1.27344H47.6353V29H44.1504V18.1836L44.6646 1.27344ZM68.5635 26.0103V29H56.5283V26.0103H68.5635ZM57.1567 1.27344V29H53.6528V1.27344H57.1567ZM66.9448 13.1943V16.1841H56.5283V13.1943H66.9448ZM68.373 1.27344V4.28223H56.5283V1.27344H68.373ZM76.6948 1.27344V29H73.1909V1.27344H76.6948ZM81.9888 13.9751V16.8696H76.4092V13.9751H81.9888ZM98.4609 12.7373V17.5552C98.4609 19.5103 98.2451 21.2305 97.8135 22.7158C97.3945 24.1885 96.7788 25.4199 95.9663 26.4102C95.1538 27.4004 94.1763 28.1431 93.0337 28.6382C91.8911 29.1333 90.6025 29.3809 89.168 29.3809C87.7842 29.3809 86.521 29.1333 85.3784 28.6382C84.2358 28.1431 83.252 27.4004 82.4268 26.4102C81.6016 25.4199 80.9604 24.1885 80.5034 22.7158C80.0591 21.2305 79.8369 19.5103 79.8369 17.5552V12.7373C79.8369 10.7822 80.0591 9.06836 80.5034 7.5957C80.9478 6.11035 81.5825 4.87256 82.4077 3.88232C83.2329 2.89209 84.2168 2.14941 85.3594 1.6543C86.502 1.14648 87.7651 0.892578 89.1489 0.892578C90.5835 0.892578 91.8721 1.14648 93.0146 1.6543C94.1699 2.14941 95.1475 2.89209 95.9473 3.88232C96.7598 4.87256 97.3818 6.11035 97.8135 7.5957C98.2451 9.06836 98.4609 10.7822 98.4609 12.7373ZM94.9951 17.5552V12.6992C94.9951 11.1758 94.8682 9.86816 94.6143 8.77637C94.3604 7.67188 93.9858 6.77051 93.4907 6.07227C92.9956 5.37402 92.3862 4.85986 91.6626 4.52979C90.939 4.18701 90.1011 4.01562 89.1489 4.01562C88.2476 4.01562 87.4351 4.18701 86.7114 4.52979C86.0005 4.85986 85.3911 5.37402 84.8833 6.07227C84.3755 6.77051 83.9819 7.67188 83.7026 8.77637C83.436 9.86816 83.3027 11.1758 83.3027 12.6992V17.5552C83.3027 19.0913 83.436 20.4116 83.7026 21.5161C83.9819 22.6079 84.3755 23.5093 84.8833 24.2202C85.4038 24.9185 86.0259 25.439 86.7495 25.7817C87.4731 26.1118 88.2793 26.2769 89.168 26.2769C90.1201 26.2769 90.958 26.1118 91.6816 25.7817C92.418 25.439 93.0273 24.9185 93.5098 24.2202C94.0049 23.5093 94.373 22.6079 94.6143 21.5161C94.8682 20.4116 94.9951 19.0913 94.9951 17.5552ZM111.239 1.27344V29H107.773V1.27344H111.239ZM118.532 1.27344V4.28223H100.499V1.27344H118.532ZM135.976 20.1831H139.479C139.391 22.0874 139.003 23.7314 138.318 25.1152C137.645 26.4863 136.661 27.54 135.366 28.2764C134.084 29.0127 132.478 29.3809 130.548 29.3809C129.165 29.3809 127.914 29.1079 126.797 28.562C125.68 28.0161 124.721 27.2354 123.921 26.2197C123.134 25.1914 122.531 23.96 122.112 22.5254C121.693 21.0908 121.484 19.4785 121.484 17.6885V12.5659C121.484 10.7886 121.693 9.18262 122.112 7.74805C122.544 6.31348 123.16 5.08838 123.959 4.07275C124.772 3.04443 125.756 2.25732 126.911 1.71143C128.079 1.16553 129.399 0.892578 130.872 0.892578C132.675 0.892578 134.198 1.25439 135.442 1.97803C136.699 2.68896 137.664 3.73633 138.337 5.12012C139.022 6.49121 139.403 8.17334 139.479 10.1665H135.976C135.887 8.70654 135.658 7.51953 135.29 6.60547C134.922 5.67871 134.376 4.99951 133.652 4.56787C132.941 4.12354 132.015 3.90137 130.872 3.90137C129.856 3.90137 128.974 4.10449 128.225 4.51074C127.489 4.91699 126.879 5.50098 126.397 6.2627C125.927 7.01172 125.572 7.91943 125.331 8.98584C125.102 10.0396 124.988 11.2202 124.988 12.5278V17.6885C124.988 18.9072 125.083 20.0435 125.273 21.0972C125.477 22.1509 125.794 23.0776 126.226 23.8774C126.67 24.6646 127.248 25.2803 127.958 25.7246C128.669 26.1689 129.533 26.3911 130.548 26.3911C131.831 26.3911 132.846 26.1816 133.595 25.7627C134.344 25.3438 134.896 24.6772 135.252 23.7632C135.62 22.8491 135.861 21.6558 135.976 20.1831ZM157.075 18.2026H151.058L149.287 17.46C147.56 16.8252 146.233 15.854 145.307 14.5464C144.393 13.2261 143.936 11.5884 143.936 9.6333C143.936 7.84326 144.272 6.32617 144.945 5.08203C145.618 3.83789 146.576 2.89209 147.82 2.24463C149.077 1.59717 150.556 1.27344 152.257 1.27344H159.836V29H156.333V4.28223H152.257C150.645 4.28223 149.439 4.76465 148.639 5.72949C147.839 6.69434 147.439 7.99561 147.439 9.6333C147.439 10.6997 147.617 11.6519 147.973 12.4897C148.341 13.3276 148.887 13.9878 149.61 14.4702C150.334 14.9526 151.242 15.1938 152.333 15.1938H157.094L157.075 18.2026ZM152.391 16.2983L146.754 29H143.021L148.849 16.2983H152.391ZM193.124 1.27344V29H189.62V4.28223H178.784V29H175.28V1.27344H193.124ZM208.167 18.1265H202.112V15.1367H208.167C209.31 15.1367 210.23 14.9082 210.929 14.4512C211.64 13.9941 212.154 13.3594 212.471 12.5469C212.801 11.7344 212.966 10.8076 212.966 9.7666C212.966 8.81445 212.801 7.91943 212.471 7.08154C212.154 6.24365 211.64 5.5708 210.929 5.06299C210.23 4.54248 209.31 4.28223 208.167 4.28223H202.835V29H199.332V1.27344H208.167C209.958 1.27344 211.468 1.63525 212.7 2.35889C213.931 3.08252 214.864 4.08545 215.499 5.36768C216.146 6.63721 216.47 8.09082 216.47 9.72852C216.47 11.5059 216.146 13.0229 215.499 14.2798C214.864 15.5366 213.931 16.4951 212.7 17.1553C211.468 17.8027 209.958 18.1265 208.167 18.1265ZM238.998 12.7373V17.5552C238.998 19.5103 238.782 21.2305 238.351 22.7158C237.932 24.1885 237.316 25.4199 236.503 26.4102C235.691 27.4004 234.713 28.1431 233.571 28.6382C232.428 29.1333 231.14 29.3809 229.705 29.3809C228.321 29.3809 227.058 29.1333 225.916 28.6382C224.773 28.1431 223.789 27.4004 222.964 26.4102C222.139 25.4199 221.498 24.1885 221.041 22.7158C220.596 21.2305 220.374 19.5103 220.374 17.5552V12.7373C220.374 10.7822 220.596 9.06836 221.041 7.5957C221.485 6.11035 222.12 4.87256 222.945 3.88232C223.77 2.89209 224.754 2.14941 225.896 1.6543C227.039 1.14648 228.302 0.892578 229.686 0.892578C231.121 0.892578 232.409 1.14648 233.552 1.6543C234.707 2.14941 235.685 2.89209 236.484 3.88232C237.297 4.87256 237.919 6.11035 238.351 7.5957C238.782 9.06836 238.998 10.7822 238.998 12.7373ZM235.532 17.5552V12.6992C235.532 11.1758 235.405 9.86816 235.151 8.77637C234.897 7.67188 234.523 6.77051 234.028 6.07227C233.533 5.37402 232.923 4.85986 232.2 4.52979C231.476 4.18701 230.638 4.01562 229.686 4.01562C228.785 4.01562 227.972 4.18701 227.249 4.52979C226.538 4.85986 225.928 5.37402 225.42 6.07227C224.913 6.77051 224.519 7.67188 224.24 8.77637C223.973 9.86816 223.84 11.1758 223.84 12.6992V17.5552C223.84 19.0913 223.973 20.4116 224.24 21.5161C224.519 22.6079 224.913 23.5093 225.42 24.2202C225.941 24.9185 226.563 25.439 227.287 25.7817C228.01 26.1118 228.816 26.2769 229.705 26.2769C230.657 26.2769 231.495 26.1118 232.219 25.7817C232.955 25.439 233.564 24.9185 234.047 24.2202C234.542 23.5093 234.91 22.6079 235.151 21.5161C235.405 20.4116 235.532 19.0913 235.532 17.5552ZM252.804 1.27344V29H249.338V1.27344H252.804ZM260.098 1.27344V4.28223H242.064V1.27344H260.098ZM267.848 22.6396L278.646 1.27344H282.149V29H278.646V7.61475L267.848 29H264.363V1.27344H267.848V22.6396ZM296.774 16.0317H291.138L291.1 13.0801H296.336C297.124 13.0801 297.822 12.9023 298.431 12.5469C299.041 12.1914 299.517 11.6836 299.859 11.0234C300.215 10.3506 300.393 9.55078 300.393 8.62402C300.393 7.6084 300.24 6.7832 299.936 6.14844C299.644 5.50098 299.193 5.03125 298.583 4.73926C297.987 4.43457 297.225 4.28223 296.298 4.28223H291.88V29H288.376V1.27344H296.298C297.492 1.27344 298.558 1.41943 299.498 1.71143C300.437 1.99072 301.23 2.43506 301.878 3.04443C302.538 3.64111 303.04 4.40283 303.382 5.32959C303.725 6.25635 303.896 7.36719 303.896 8.66211C303.896 9.80469 303.636 10.8394 303.116 11.7661C302.608 12.6802 301.897 13.4292 300.983 14.0132C300.069 14.5972 299.015 14.9717 297.822 15.1367L296.774 16.0317ZM296.641 29H289.69L291.728 26.0103H296.641C297.555 26.0103 298.33 25.8071 298.964 25.4009C299.599 24.9946 300.082 24.4233 300.412 23.687C300.754 22.938 300.926 22.0557 300.926 21.04C300.926 20.0117 300.786 19.123 300.507 18.374C300.228 17.625 299.783 17.0474 299.174 16.6411C298.564 16.2349 297.765 16.0317 296.774 16.0317H292.261L292.299 13.0801H298.393L299.174 14.1465C300.316 14.2607 301.275 14.6416 302.049 15.2891C302.836 15.9238 303.427 16.7363 303.82 17.7266C304.227 18.7168 304.43 19.8086 304.43 21.002C304.43 22.7285 304.106 24.1885 303.458 25.3818C302.824 26.5625 301.922 27.4639 300.754 28.0859C299.586 28.6953 298.215 29 296.641 29ZM327.7 12.7373V17.5552C327.7 19.5103 327.484 21.2305 327.053 22.7158C326.634 24.1885 326.018 25.4199 325.206 26.4102C324.393 27.4004 323.416 28.1431 322.273 28.6382C321.13 29.1333 319.842 29.3809 318.407 29.3809C317.023 29.3809 315.76 29.1333 314.618 28.6382C313.475 28.1431 312.491 27.4004 311.666 26.4102C310.841 25.4199 310.2 24.1885 309.743 22.7158C309.298 21.2305 309.076 19.5103 309.076 17.5552V12.7373C309.076 10.7822 309.298 9.06836 309.743 7.5957C310.187 6.11035 310.822 4.87256 311.647 3.88232C312.472 2.89209 313.456 2.14941 314.599 1.6543C315.741 1.14648 317.004 0.892578 318.388 0.892578C319.823 0.892578 321.111 1.14648 322.254 1.6543C323.409 2.14941 324.387 2.89209 325.187 3.88232C325.999 4.87256 326.621 6.11035 327.053 7.5957C327.484 9.06836 327.7 10.7822 327.7 12.7373ZM324.234 17.5552V12.6992C324.234 11.1758 324.107 9.86816 323.854 8.77637C323.6 7.67188 323.225 6.77051 322.73 6.07227C322.235 5.37402 321.625 4.85986 320.902 4.52979C320.178 4.18701 319.34 4.01562 318.388 4.01562C317.487 4.01562 316.674 4.18701 315.951 4.52979C315.24 4.85986 314.63 5.37402 314.123 6.07227C313.615 6.77051 313.221 7.67188 312.942 8.77637C312.675 9.86816 312.542 11.1758 312.542 12.6992V17.5552C312.542 19.0913 312.675 20.4116 312.942 21.5161C313.221 22.6079 313.615 23.5093 314.123 24.2202C314.643 24.9185 315.265 25.439 315.989 25.7817C316.712 26.1118 317.519 26.2769 318.407 26.2769C319.359 26.2769 320.197 26.1118 320.921 25.7817C321.657 25.439 322.267 24.9185 322.749 24.2202C323.244 23.5093 323.612 22.6079 323.854 21.5161C324.107 20.4116 324.234 19.0913 324.234 17.5552ZM351.142 1.27344V29H347.638V4.28223H336.803V29H333.299V1.27344H351.142ZM375.384 12.7373V17.5552C375.384 19.5103 375.168 21.2305 374.736 22.7158C374.317 24.1885 373.702 25.4199 372.889 26.4102C372.077 27.4004 371.099 28.1431 369.957 28.6382C368.814 29.1333 367.525 29.3809 366.091 29.3809C364.707 29.3809 363.444 29.1333 362.301 28.6382C361.159 28.1431 360.175 27.4004 359.35 26.4102C358.524 25.4199 357.883 24.1885 357.426 22.7158C356.982 21.2305 356.76 19.5103 356.76 17.5552V12.7373C356.76 10.7822 356.982 9.06836 357.426 7.5957C357.871 6.11035 358.505 4.87256 359.331 3.88232C360.156 2.89209 361.14 2.14941 362.282 1.6543C363.425 1.14648 364.688 0.892578 366.072 0.892578C367.506 0.892578 368.795 1.14648 369.938 1.6543C371.093 2.14941 372.07 2.89209 372.87 3.88232C373.683 4.87256 374.305 6.11035 374.736 7.5957C375.168 9.06836 375.384 10.7822 375.384 12.7373ZM371.918 17.5552V12.6992C371.918 11.1758 371.791 9.86816 371.537 8.77637C371.283 7.67188 370.909 6.77051 370.414 6.07227C369.918 5.37402 369.309 4.85986 368.585 4.52979C367.862 4.18701 367.024 4.01562 366.072 4.01562C365.17 4.01562 364.358 4.18701 363.634 4.52979C362.923 4.85986 362.314 5.37402 361.806 6.07227C361.298 6.77051 360.905 7.67188 360.625 8.77637C360.359 9.86816 360.226 11.1758 360.226 12.6992V17.5552C360.226 19.0913 360.359 20.4116 360.625 21.5161C360.905 22.6079 361.298 23.5093 361.806 24.2202C362.327 24.9185 362.949 25.439 363.672 25.7817C364.396 26.1118 365.202 26.2769 366.091 26.2769C367.043 26.2769 367.881 26.1118 368.604 25.7817C369.341 25.439 369.95 24.9185 370.433 24.2202C370.928 23.5093 371.296 22.6079 371.537 21.5161C371.791 20.4116 371.918 19.0913 371.918 17.5552ZM384.486 1.27344V29H380.982V1.27344H384.486ZM398.75 1.27344L388.733 16.5269H383.096L382.506 13.48H386.619L394.408 1.27344H398.75ZM395.131 29L386.791 16.0508L388.752 12.8325L399.397 29H395.131ZM411.661 3.72998L404.082 29H400.501L409.433 1.27344H411.68L411.661 3.72998ZM417.792 29L410.213 3.72998L410.175 1.27344H412.441L421.373 29H417.792ZM417.792 18.7358V21.7446H404.424V18.7358H417.792ZM432.437 15.689H429.732V13.3467H432.322C433.401 13.3467 434.271 13.1499 434.931 12.7563C435.591 12.3628 436.074 11.8169 436.378 11.1187C436.683 10.4204 436.835 9.61426 436.835 8.7002C436.835 7.82422 436.664 7.02441 436.321 6.30078C435.991 5.56445 435.477 4.98047 434.779 4.54883C434.081 4.10449 433.173 3.88232 432.056 3.88232C431.23 3.88232 430.481 4.08545 429.809 4.4917C429.136 4.88525 428.603 5.4375 428.209 6.14844C427.828 6.84668 427.638 7.65283 427.638 8.56689H424.134C424.134 7.38623 424.337 6.32617 424.743 5.38672C425.162 4.43457 425.733 3.62842 426.457 2.96826C427.193 2.29541 428.038 1.78125 428.99 1.42578C429.955 1.07031 430.977 0.892578 432.056 0.892578C433.312 0.892578 434.449 1.06396 435.464 1.40674C436.48 1.73682 437.35 2.23193 438.073 2.89209C438.81 3.55225 439.368 4.37109 439.749 5.34863C440.143 6.32617 440.339 7.4624 440.339 8.75732C440.339 9.70947 440.149 10.6045 439.768 11.4424C439.4 12.2803 438.86 13.0166 438.149 13.6514C437.451 14.2861 436.62 14.7876 435.655 15.1558C434.69 15.5112 433.617 15.689 432.437 15.689ZM429.732 14.0703H432.437C433.731 14.0703 434.887 14.229 435.902 14.5464C436.931 14.8638 437.8 15.3271 438.511 15.9365C439.222 16.5459 439.762 17.3013 440.13 18.2026C440.511 19.0913 440.701 20.1133 440.701 21.2686C440.701 22.5635 440.485 23.7124 440.054 24.7153C439.635 25.7183 439.038 26.5688 438.264 27.2671C437.489 27.9653 436.575 28.4922 435.521 28.8477C434.468 29.2031 433.312 29.3809 432.056 29.3809C431.04 29.3809 430.043 29.2285 429.066 28.9238C428.088 28.6064 427.2 28.124 426.4 27.4766C425.613 26.8164 424.978 25.9785 424.496 24.9629C424.026 23.9473 423.791 22.7285 423.791 21.3066H427.295C427.295 22.2334 427.492 23.084 427.885 23.8584C428.292 24.6328 428.85 25.2549 429.561 25.7246C430.272 26.1816 431.104 26.4102 432.056 26.4102C433.147 26.4102 434.074 26.1943 434.836 25.7627C435.61 25.3184 436.194 24.7153 436.588 23.9536C436.994 23.1792 437.197 22.3096 437.197 21.3447C437.197 20.4941 437.089 19.7578 436.874 19.1357C436.67 18.501 436.359 17.9805 435.94 17.5742C435.534 17.168 435.026 16.8696 434.417 16.6792C433.82 16.4761 433.122 16.3745 432.322 16.3745H429.732V14.0703ZM454.355 3.72998L446.776 29H443.196L452.127 1.27344H454.374L454.355 3.72998ZM460.487 29L452.908 3.72998L452.87 1.27344H455.136L464.067 29H460.487ZM460.487 18.7358V21.7446H447.119V18.7358H460.487ZM482.919 13.1943V16.1841H470.903V13.1943H482.919ZM471.379 1.27344V29H467.875V1.27344H471.379ZM486.023 1.27344V29H482.52V1.27344H486.023ZM495.716 22.6396L506.514 1.27344H510.018V29H506.514V7.61475L495.716 29H492.231V1.27344H495.716V22.6396ZM529.099 18.2026H523.081L521.31 17.46C519.583 16.8252 518.257 15.854 517.33 14.5464C516.416 13.2261 515.959 11.5884 515.959 9.6333C515.959 7.84326 516.295 6.32617 516.968 5.08203C517.641 3.83789 518.6 2.89209 519.844 2.24463C521.101 1.59717 522.58 1.27344 524.281 1.27344H531.86V29H528.356V4.28223H524.281C522.668 4.28223 521.462 4.76465 520.663 5.72949C519.863 6.69434 519.463 7.99561 519.463 9.6333C519.463 10.6997 519.641 11.6519 519.996 12.4897C520.364 13.3276 520.91 13.9878 521.634 14.4702C522.357 14.9526 523.265 15.1938 524.357 15.1938H529.118L529.099 18.2026ZM524.414 16.2983L518.777 29H515.045L520.872 16.2983H524.414ZM537.935 27.1338C537.935 26.5371 538.119 26.0356 538.487 25.6294C538.868 25.2104 539.414 25.001 540.125 25.001C540.835 25.001 541.375 25.2104 541.743 25.6294C542.124 26.0356 542.314 26.5371 542.314 27.1338C542.314 27.7178 542.124 28.2129 541.743 28.6191C541.375 29.0254 540.835 29.2285 540.125 29.2285C539.414 29.2285 538.868 29.0254 538.487 28.6191C538.119 28.2129 537.935 27.7178 537.935 27.1338ZM565.566 1.27344V29H562.1V1.27344H565.566ZM572.859 1.27344V4.28223H554.826V1.27344H572.859ZM585.79 18.1265H579.734V15.1367H585.79C586.932 15.1367 587.853 14.9082 588.551 14.4512C589.262 13.9941 589.776 13.3594 590.093 12.5469C590.423 11.7344 590.588 10.8076 590.588 9.7666C590.588 8.81445 590.423 7.91943 590.093 7.08154C589.776 6.24365 589.262 5.5708 588.551 5.06299C587.853 4.54248 586.932 4.28223 585.79 4.28223H580.458V29H576.954V1.27344H585.79C587.58 1.27344 589.09 1.63525 590.322 2.35889C591.553 3.08252 592.486 4.08545 593.121 5.36768C593.769 6.63721 594.092 8.09082 594.092 9.72852C594.092 11.5059 593.769 13.0229 593.121 14.2798C592.486 15.5366 591.553 16.4951 590.322 17.1553C589.09 17.8027 587.58 18.1265 585.79 18.1265ZM613.497 26.0103V29H601.462V26.0103H613.497ZM602.09 1.27344V29H598.586V1.27344H602.09ZM611.878 13.1943V16.1841H601.462V13.1943H611.878ZM613.307 1.27344V4.28223H601.462V1.27344H613.307ZM632.273 1.27344V4.28223H621.381V29H617.877V1.27344H632.273ZM620.638 12.5659H626.941C628.655 12.5659 630.103 12.9087 631.283 13.5942C632.477 14.2671 633.378 15.2129 633.987 16.4316C634.609 17.6504 634.92 19.0786 634.92 20.7163C634.92 21.9351 634.743 23.0522 634.387 24.0679C634.044 25.0708 633.53 25.9468 632.845 26.6958C632.172 27.4321 631.34 28.0034 630.35 28.4097C629.36 28.8032 628.224 29 626.941 29H617.877V1.27344H621.381V26.0103H626.941C628.008 26.0103 628.865 25.7627 629.512 25.2676C630.172 24.7598 630.655 24.0996 630.959 23.2871C631.264 22.4746 631.417 21.605 631.417 20.6782C631.417 19.7515 631.264 18.9009 630.959 18.1265C630.655 17.3521 630.172 16.7363 629.512 16.2793C628.865 15.8096 628.008 15.5747 626.941 15.5747H620.638V12.5659ZM646.156 19.8022L652.04 1.27344H656.077L648.098 24.3726C647.844 25.02 647.571 25.6484 647.279 26.2578C647 26.8545 646.657 27.3877 646.251 27.8574C645.845 28.3271 645.337 28.7017 644.728 28.981C644.118 29.2603 643.356 29.3999 642.442 29.3999C642.163 29.3999 641.839 29.3809 641.471 29.3428C641.116 29.3174 640.887 29.2856 640.786 29.2476L640.862 26.3149C640.976 26.3403 641.211 26.3657 641.566 26.3911C641.935 26.4038 642.195 26.4102 642.347 26.4102C642.918 26.4102 643.356 26.2642 643.661 25.9722C643.979 25.6802 644.226 25.312 644.404 24.8677C644.582 24.4106 644.753 23.9473 644.918 23.4775L646.156 19.8022ZM641.738 1.27344L647.717 18.5454L648.536 21.9541L645.584 22.1826L637.834 1.27344H641.738ZM675.349 26.0103V29H663.313V26.0103H675.349ZM663.942 1.27344V29H660.438V1.27344H663.942ZM673.73 13.1943V16.1841H663.313V13.1943H673.73ZM675.158 1.27344V4.28223H663.313V1.27344H675.158ZM689.117 1.27344V29H685.651V1.27344H689.117ZM696.41 1.27344V4.28223H678.376V1.27344H696.41ZM713.854 20.1831H717.357C717.269 22.0874 716.881 23.7314 716.196 25.1152C715.523 26.4863 714.539 27.54 713.244 28.2764C711.962 29.0127 710.356 29.3809 708.426 29.3809C707.042 29.3809 705.792 29.1079 704.675 28.562C703.558 28.0161 702.599 27.2354 701.799 26.2197C701.012 25.1914 700.409 23.96 699.99 22.5254C699.571 21.0908 699.362 19.4785 699.362 17.6885V12.5659C699.362 10.7886 699.571 9.18262 699.99 7.74805C700.422 6.31348 701.038 5.08838 701.837 4.07275C702.65 3.04443 703.634 2.25732 704.789 1.71143C705.957 1.16553 707.277 0.892578 708.75 0.892578C710.553 0.892578 712.076 1.25439 713.32 1.97803C714.577 2.68896 715.542 3.73633 716.215 5.12012C716.9 6.49121 717.281 8.17334 717.357 10.1665H713.854C713.765 8.70654 713.536 7.51953 713.168 6.60547C712.8 5.67871 712.254 4.99951 711.53 4.56787C710.819 4.12354 709.893 3.90137 708.75 3.90137C707.734 3.90137 706.852 4.10449 706.103 4.51074C705.367 4.91699 704.757 5.50098 704.275 6.2627C703.805 7.01172 703.45 7.91943 703.208 8.98584C702.98 10.0396 702.866 11.2202 702.866 12.5278V17.6885C702.866 18.9072 702.961 20.0435 703.151 21.0972C703.354 22.1509 703.672 23.0776 704.104 23.8774C704.548 24.6646 705.125 25.2803 705.836 25.7246C706.547 26.1689 707.411 26.3911 708.426 26.3911C709.708 26.3911 710.724 26.1816 711.473 25.7627C712.222 25.3438 712.774 24.6772 713.13 23.7632C713.498 22.8491 713.739 21.6558 713.854 20.1831ZM734.953 18.2026H728.936L727.165 17.46C725.438 16.8252 724.111 15.854 723.185 14.5464C722.271 13.2261 721.813 11.5884 721.813 9.6333C721.813 7.84326 722.15 6.32617 722.823 5.08203C723.496 3.83789 724.454 2.89209 725.698 2.24463C726.955 1.59717 728.434 1.27344 730.135 1.27344H737.714V29H734.21V4.28223H730.135C728.523 4.28223 727.317 4.76465 726.517 5.72949C725.717 6.69434 725.317 7.99561 725.317 9.6333C725.317 10.6997 725.495 11.6519 725.851 12.4897C726.219 13.3276 726.765 13.9878 727.488 14.4702C728.212 14.9526 729.12 15.1938 730.211 15.1938H734.972L734.953 18.2026ZM730.269 16.2983L724.632 29H720.899L726.727 16.2983H730.269ZM756.662 1.27344V29H753.158V1.27344H756.662ZM770.925 1.27344L760.909 16.5269H755.272L754.682 13.48H758.795L766.583 1.27344H770.925ZM767.307 29L758.966 16.0508L760.928 12.8325L771.573 29H767.307ZM792.272 12.7373V17.5552C792.272 19.5103 792.057 21.2305 791.625 22.7158C791.206 24.1885 790.59 25.4199 789.778 26.4102C788.965 27.4004 787.988 28.1431 786.845 28.6382C785.703 29.1333 784.414 29.3809 782.979 29.3809C781.596 29.3809 780.333 29.1333 779.19 28.6382C778.047 28.1431 777.063 27.4004 776.238 26.4102C775.413 25.4199 774.772 24.1885 774.315 22.7158C773.871 21.2305 773.648 19.5103 773.648 17.5552V12.7373C773.648 10.7822 773.871 9.06836 774.315 7.5957C774.759 6.11035 775.394 4.87256 776.219 3.88232C777.044 2.89209 778.028 2.14941 779.171 1.6543C780.313 1.14648 781.577 0.892578 782.96 0.892578C784.395 0.892578 785.684 1.14648 786.826 1.6543C787.981 2.14941 788.959 2.89209 789.759 3.88232C790.571 4.87256 791.193 6.11035 791.625 7.5957C792.057 9.06836 792.272 10.7822 792.272 12.7373ZM788.807 17.5552V12.6992C788.807 11.1758 788.68 9.86816 788.426 8.77637C788.172 7.67188 787.797 6.77051 787.302 6.07227C786.807 5.37402 786.198 4.85986 785.474 4.52979C784.75 4.18701 783.913 4.01562 782.96 4.01562C782.059 4.01562 781.247 4.18701 780.523 4.52979C779.812 4.85986 779.203 5.37402 778.695 6.07227C778.187 6.77051 777.793 7.67188 777.514 8.77637C777.248 9.86816 777.114 11.1758 777.114 12.6992V17.5552C777.114 19.0913 777.248 20.4116 777.514 21.5161C777.793 22.6079 778.187 23.5093 778.695 24.2202C779.215 24.9185 779.837 25.439 780.561 25.7817C781.285 26.1118 782.091 26.2769 782.979 26.2769C783.932 26.2769 784.77 26.1118 785.493 25.7817C786.229 25.439 786.839 24.9185 787.321 24.2202C787.816 23.5093 788.185 22.6079 788.426 21.5161C788.68 20.4116 788.807 19.0913 788.807 17.5552ZM812.744 13.1943V16.1841H800.728V13.1943H812.744ZM801.204 1.27344V29H797.7V1.27344H801.204ZM815.848 1.27344V29H812.344V1.27344H815.848ZM835.767 20.1831H839.271C839.182 22.0874 838.794 23.7314 838.109 25.1152C837.436 26.4863 836.452 27.54 835.157 28.2764C833.875 29.0127 832.269 29.3809 830.339 29.3809C828.956 29.3809 827.705 29.1079 826.588 28.562C825.471 28.0161 824.512 27.2354 823.712 26.2197C822.925 25.1914 822.322 23.96 821.903 22.5254C821.484 21.0908 821.275 19.4785 821.275 17.6885V12.5659C821.275 10.7886 821.484 9.18262 821.903 7.74805C822.335 6.31348 822.951 5.08838 823.75 4.07275C824.563 3.04443 825.547 2.25732 826.702 1.71143C827.87 1.16553 829.19 0.892578 830.663 0.892578C832.466 0.892578 833.989 1.25439 835.233 1.97803C836.49 2.68896 837.455 3.73633 838.128 5.12012C838.813 6.49121 839.194 8.17334 839.271 10.1665H835.767C835.678 8.70654 835.449 7.51953 835.081 6.60547C834.713 5.67871 834.167 4.99951 833.443 4.56787C832.732 4.12354 831.806 3.90137 830.663 3.90137C829.647 3.90137 828.765 4.10449 828.016 4.51074C827.28 4.91699 826.67 5.50098 826.188 6.2627C825.718 7.01172 825.363 7.91943 825.122 8.98584C824.893 10.0396 824.779 11.2202 824.779 12.5278V17.6885C824.779 18.9072 824.874 20.0435 825.064 21.0972C825.268 22.1509 825.585 23.0776 826.017 23.8774C826.461 24.6646 827.039 25.2803 827.75 25.7246C828.46 26.1689 829.324 26.3911 830.339 26.3911C831.622 26.3911 832.637 26.1816 833.386 25.7627C834.135 25.3438 834.688 24.6772 835.043 23.7632C835.411 22.8491 835.652 21.6558 835.767 20.1831ZM851.096 19.8022L856.98 1.27344H861.018L853.039 24.3726C852.785 25.02 852.512 25.6484 852.22 26.2578C851.94 26.8545 851.598 27.3877 851.191 27.8574C850.785 28.3271 850.277 28.7017 849.668 28.981C849.059 29.2603 848.297 29.3999 847.383 29.3999C847.104 29.3999 846.78 29.3809 846.412 29.3428C846.056 29.3174 845.828 29.2856 845.726 29.2476L845.802 26.3149C845.917 26.3403 846.151 26.3657 846.507 26.3911C846.875 26.4038 847.135 26.4102 847.288 26.4102C847.859 26.4102 848.297 26.2642 848.602 25.9722C848.919 25.6802 849.167 25.312 849.344 24.8677C849.522 24.4106 849.693 23.9473 849.858 23.4775L851.096 19.8022ZM846.678 1.27344L852.658 18.5454L853.477 21.9541L850.525 22.1826L842.774 1.27344H846.678ZM879.108 1.27344V4.28223H868.749V1.27344H879.108ZM882.193 1.27344V29H878.689V1.27344H882.193ZM867.568 1.27344H871.053L870.558 14.8511C870.495 16.8062 870.374 18.5518 870.196 20.0879C870.019 21.6113 869.765 22.938 869.435 24.0679C869.104 25.1851 868.673 26.1118 868.14 26.8481C867.606 27.5718 866.953 28.1113 866.178 28.4668C865.417 28.8223 864.509 29 863.455 29H862.541V26.0103L863.208 25.9531C863.792 25.9023 864.293 25.7437 864.712 25.4771C865.144 25.1978 865.499 24.7788 865.778 24.2202C866.07 23.6616 866.305 22.938 866.483 22.0493C866.673 21.1606 866.819 20.0752 866.921 18.793C867.022 17.498 867.099 15.9873 867.149 14.2607L867.568 1.27344ZM891.048 12.5659H897.352C899.065 12.5659 900.513 12.9087 901.693 13.5942C902.887 14.2671 903.788 15.2129 904.397 16.4316C905.02 17.6504 905.331 19.0786 905.331 20.7163C905.331 21.9351 905.153 23.0522 904.797 24.0679C904.455 25.0708 903.94 25.9468 903.255 26.6958C902.582 27.4321 901.75 28.0034 900.76 28.4097C899.77 28.8032 898.634 29 897.352 29H888.287V1.27344H891.791V26.0103H897.352C898.418 26.0103 899.275 25.7627 899.922 25.2676C900.583 24.7598 901.065 24.0996 901.37 23.2871C901.674 22.4746 901.827 21.605 901.827 20.6782C901.827 19.7515 901.674 18.9009 901.37 18.1265C901.065 17.3521 900.583 16.7363 899.922 16.2793C899.275 15.8096 898.418 15.5747 897.352 15.5747H891.048V12.5659ZM913.709 1.27344V29H910.244V1.27344H913.709ZM921.003 1.27344V4.28223H902.969V1.27344H921.003ZM932.562 3.72998L924.983 29H921.403L930.334 1.27344H932.581L932.562 3.72998ZM938.694 29L931.115 3.72998L931.077 1.27344H933.343L942.274 29H938.694ZM938.694 18.7358V21.7446H925.326V18.7358H938.694ZM966.611 25.915L966.268 35.6841H963.145V29H960.841V25.915H966.611ZM946.254 29V1.27344H949.758V26.0103H960.593V1.27344H964.097V29H946.254ZM974.685 22.6396L985.482 1.27344H988.986V29H985.482V7.61475L974.685 29H971.2V1.27344H974.685V22.6396ZM1008.07 18.2026H1002.05L1000.28 17.46C998.552 16.8252 997.226 15.854 996.299 14.5464C995.385 13.2261 994.928 11.5884 994.928 9.6333C994.928 7.84326 995.264 6.32617 995.937 5.08203C996.61 3.83789 997.568 2.89209 998.812 2.24463C1000.07 1.59717 1001.55 1.27344 1003.25 1.27344H1010.83V29H1007.32V4.28223H1003.25C1001.64 4.28223 1000.43 4.76465 999.631 5.72949C998.832 6.69434 998.432 7.99561 998.432 9.6333C998.432 10.6997 998.609 11.6519 998.965 12.4897C999.333 13.3276 999.879 13.9878 1000.6 14.4702C1001.33 14.9526 1002.23 15.1938 1003.33 15.1938H1008.09L1008.07 18.2026ZM1003.38 16.2983L997.746 29H994.014L999.841 16.2983H1003.38ZM1039.98 20.1831H1043.49C1043.4 22.0874 1043.01 23.7314 1042.33 25.1152C1041.65 26.4863 1040.67 27.54 1039.37 28.2764C1038.09 29.0127 1036.49 29.3809 1034.56 29.3809C1033.17 29.3809 1031.92 29.1079 1030.8 28.562C1029.69 28.0161 1028.73 27.2354 1027.93 26.2197C1027.14 25.1914 1026.54 23.96 1026.12 22.5254C1025.7 21.0908 1025.49 19.4785 1025.49 17.6885V12.5659C1025.49 10.7886 1025.7 9.18262 1026.12 7.74805C1026.55 6.31348 1027.17 5.08838 1027.97 4.07275C1028.78 3.04443 1029.76 2.25732 1030.92 1.71143C1032.09 1.16553 1033.41 0.892578 1034.88 0.892578C1036.68 0.892578 1038.21 1.25439 1039.45 1.97803C1040.71 2.68896 1041.67 3.73633 1042.34 5.12012C1043.03 6.49121 1043.41 8.17334 1043.49 10.1665H1039.98C1039.89 8.70654 1039.67 7.51953 1039.3 6.60547C1038.93 5.67871 1038.38 4.99951 1037.66 4.56787C1036.95 4.12354 1036.02 3.90137 1034.88 3.90137C1033.86 3.90137 1032.98 4.10449 1032.23 4.51074C1031.5 4.91699 1030.89 5.50098 1030.4 6.2627C1029.94 7.01172 1029.58 7.91943 1029.34 8.98584C1029.11 10.0396 1029 11.2202 1029 12.5278V17.6885C1029 18.9072 1029.09 20.0435 1029.28 21.0972C1029.48 22.1509 1029.8 23.0776 1030.23 23.8774C1030.68 24.6646 1031.26 25.2803 1031.97 25.7246C1032.68 26.1689 1033.54 26.3911 1034.56 26.3911C1035.84 26.3911 1036.85 26.1816 1037.6 25.7627C1038.35 25.3438 1038.9 24.6772 1039.26 23.7632C1039.63 22.8491 1039.87 21.6558 1039.98 20.1831ZM1066.24 1.27344V29H1062.74V4.28223H1051.9V29H1048.4V1.27344H1066.24ZM1087.36 26.0103V29H1075.33V26.0103H1087.36ZM1075.96 1.27344V29H1072.45V1.27344H1075.96ZM1085.74 13.1943V16.1841H1075.33V13.1943H1085.74ZM1087.17 1.27344V4.28223H1075.33V1.27344H1087.17ZM1112.37 25.915L1112.02 35.6841H1108.9V29H1106.6V25.915H1112.37ZM1092.01 29V1.27344H1095.51V26.0103H1106.35V1.27344H1109.85V29H1092.01ZM1120.44 22.6396L1131.24 1.27344H1134.74V29H1131.24V7.61475L1120.44 29H1116.96V1.27344H1120.44V22.6396ZM1150.3 3.72998L1142.72 29H1139.14L1148.07 1.27344H1150.32L1150.3 3.72998ZM1156.43 29L1148.85 3.72998L1148.81 1.27344H1151.08L1160.01 29H1156.43ZM1156.43 18.7358V21.7446H1143.06V18.7358H1156.43ZM1178.92 1.27344V4.28223H1168.56V1.27344H1178.92ZM1182.01 1.27344V29H1178.5V1.27344H1182.01ZM1167.38 1.27344H1170.87L1170.37 14.8511C1170.31 16.8062 1170.19 18.5518 1170.01 20.0879C1169.83 21.6113 1169.58 22.938 1169.25 24.0679C1168.92 25.1851 1168.49 26.1118 1167.95 26.8481C1167.42 27.5718 1166.77 28.1113 1165.99 28.4668C1165.23 28.8223 1164.32 29 1163.27 29H1162.35V26.0103L1163.02 25.9531C1163.6 25.9023 1164.11 25.7437 1164.52 25.4771C1164.96 25.1978 1165.31 24.7788 1165.59 24.2202C1165.88 23.6616 1166.12 22.938 1166.3 22.0493C1166.49 21.1606 1166.63 20.0752 1166.73 18.793C1166.83 17.498 1166.91 15.9873 1166.96 14.2607L1167.38 1.27344ZM1191.85 22.6396L1202.65 1.27344H1206.15V29H1202.65V7.61475L1191.85 29H1188.37V1.27344H1191.85V22.6396ZM1226.26 20.1831H1229.77C1229.68 22.0874 1229.29 23.7314 1228.6 25.1152C1227.93 26.4863 1226.95 27.54 1225.65 28.2764C1224.37 29.0127 1222.76 29.3809 1220.83 29.3809C1219.45 29.3809 1218.2 29.1079 1217.08 28.562C1215.97 28.0161 1215.01 27.2354 1214.21 26.2197C1213.42 25.1914 1212.82 23.96 1212.4 22.5254C1211.98 21.0908 1211.77 19.4785 1211.77 17.6885V12.5659C1211.77 10.7886 1211.98 9.18262 1212.4 7.74805C1212.83 6.31348 1213.45 5.08838 1214.25 4.07275C1215.06 3.04443 1216.04 2.25732 1217.2 1.71143C1218.37 1.16553 1219.69 0.892578 1221.16 0.892578C1222.96 0.892578 1224.48 1.25439 1225.73 1.97803C1226.99 2.68896 1227.95 3.73633 1228.62 5.12012C1229.31 6.49121 1229.69 8.17334 1229.77 10.1665H1226.26C1226.17 8.70654 1225.94 7.51953 1225.58 6.60547C1225.21 5.67871 1224.66 4.99951 1223.94 4.56787C1223.23 4.12354 1222.3 3.90137 1221.16 3.90137C1220.14 3.90137 1219.26 4.10449 1218.51 4.51074C1217.77 4.91699 1217.17 5.50098 1216.68 6.2627C1216.21 7.01172 1215.86 7.91943 1215.62 8.98584C1215.39 10.0396 1215.27 11.2202 1215.27 12.5278V17.6885C1215.27 18.9072 1215.37 20.0435 1215.56 21.0972C1215.76 22.1509 1216.08 23.0776 1216.51 23.8774C1216.96 24.6646 1217.53 25.2803 1218.24 25.7246C1218.96 26.1689 1219.82 26.3911 1220.83 26.3911C1222.12 26.3911 1223.13 26.1816 1223.88 25.7627C1224.63 25.3438 1225.18 24.6772 1225.54 23.7632C1225.91 22.8491 1226.15 21.6558 1226.26 20.1831ZM1242.85 1.27344V29H1239.38V1.27344H1242.85ZM1250.14 1.27344V4.28223H1232.11V1.27344H1250.14ZM1261.7 3.72998L1254.12 29H1250.54L1259.47 1.27344H1261.72L1261.7 3.72998ZM1267.83 29L1260.25 3.72998L1260.22 1.27344H1262.48L1271.41 29H1267.83ZM1267.83 18.7358V21.7446H1254.46V18.7358H1267.83Z" fill="#D7E2E6"/>
</svg>
