<svg width="64" height="64" viewBox="0 0 64 64" fill="none" xmlns="http://www.w3.org/2000/svg">
<path d="M35.7188 14.5875C34.4979 14.4555 33.2574 14.3798 32 14.361C26.5053 14.3854 20.8094 15.7219 15.418 18.2829C11.4149 20.2627 7.51541 23.0578 4.12891 26.5055C2.46571 28.2655 0.342987 30.8139 0 33.5328C0.0405333 35.8881 2.56816 38.7952 4.12891 40.5602C7.30453 43.8726 11.1025 46.5876 15.418 48.7828C15.5646 48.854 15.7118 48.9244 15.8594 48.9938L11.8555 55.9859L17.2958 59.2011L46.7046 7.99938L41.4681 4.79895L35.7188 14.5875ZM48.1367 18.0798L44.1406 25.0055C45.979 27.3938 47.0703 30.3391 47.0703 33.5328C47.0703 41.4932 40.3225 47.9469 31.9961 47.9469C31.6361 47.9469 31.2873 47.9081 30.9336 47.8844L28.289 52.4625C29.5086 52.5931 30.7418 52.6883 32 52.7047C37.4998 52.68 43.1925 51.3281 48.5781 48.7828C52.5812 46.803 56.4845 44.008 59.871 40.5602C61.5343 38.8003 63.6569 36.2519 64 33.5328C63.9594 31.1776 61.4318 28.2705 59.871 26.5055C56.6954 23.1931 52.8936 20.4781 48.5781 18.2828C48.4324 18.2122 48.2833 18.1487 48.1367 18.0798ZM31.9961 19.1188C32.3612 19.1188 32.7235 19.1335 33.082 19.1579L29.9844 24.5211C25.637 25.4025 22.375 29.1014 22.375 33.529C22.375 34.6412 22.5798 35.706 22.957 36.693C22.9574 36.6941 22.9566 36.6958 22.957 36.6969L19.8515 42.0758C18.0088 39.6852 16.9218 36.7303 16.9218 33.5328C16.9219 25.5725 23.6698 19.1188 31.9961 19.1188ZM41.0078 30.4274L34.0274 42.5211C38.3514 41.6232 41.5899 37.9411 41.5899 33.529C41.5899 32.437 41.372 31.3989 41.0078 30.4274Z" fill="#999999"/>
</svg>
