<svg width="76" height="85" viewBox="0 0 76 85" fill="none" xmlns="http://www.w3.org/2000/svg">
<g clip-path="url(#clip0_253_58)">
<path d="M39.4159 84.5998L41.9488 74.9092H63.9051V50.697H73.7661C73.7661 50.697 57.9855 16.7084 58.1136 16.8513V16.6941C55.2144 11.6206 50.9214 7.49356 45.7482 4.8067C40.575 2.11984 34.7405 0.986974 28.943 1.54362C21.4011 2.27949 14.4028 5.81205 9.31434 11.4518C4.22585 17.0915 1.4124 24.4335 1.42313 32.0447C1.44047 38.7235 3.66234 45.2079 7.74096 50.4826C9.13029 52.2807 10.0753 54.3842 10.4983 56.6204C10.9213 58.8565 10.8103 61.1615 10.1743 63.3462L4.02707 84.5998" stroke="#8A8D8E" stroke-width="3" stroke-miterlimit="10"/>
<path d="M51.2122 65.9618C51.2122 63.9489 52.0083 62.0185 53.4253 60.5952C54.8423 59.1719 56.764 58.3723 58.768 58.3723H63.905" stroke="#8A8D8E" stroke-width="3" stroke-miterlimit="10"/>
<path d="M48.9071 23.8263H48.6794C48.6755 21.9231 47.949 20.0931 46.6481 18.7094C45.3472 17.3257 43.5699 16.4925 41.6785 16.3797C40.4833 13.321 36.8547 11.0913 32.5716 11.0913C27.9612 11.0913 24.1192 13.6498 23.2227 17.0658H23.0235C21.1065 17.0641 19.2633 17.8068 17.879 19.1387C16.4946 20.4706 15.6765 22.2885 15.5957 24.2122C14.0801 24.688 12.7557 25.6382 11.8161 26.924C10.8765 28.2098 10.3711 29.7637 10.3735 31.3587C10.3735 33.3463 11.1585 35.2528 12.5564 36.6596C13.9544 38.0664 15.851 38.8587 17.8298 38.8625V38.8625V53.4841H28.2173V40.4347H48.9071C51.1073 40.4347 53.2174 39.5568 54.7731 37.9941C56.3289 36.4314 57.2029 34.3119 57.2029 32.1019C57.1878 29.9018 56.3073 27.797 54.7532 26.2467C53.199 24.6963 51.0975 23.8263 48.9071 23.8263V23.8263Z" stroke="#8A8D8E" stroke-width="3" stroke-miterlimit="10"/>
<path d="M48.9069 40.4918C47.8182 40.4918 46.7402 40.2762 45.7345 39.8572C44.7288 39.4383 43.8152 38.8243 43.0459 38.0504C42.2767 37.2764 41.667 36.3577 41.2516 35.3468C40.8363 34.3359 40.6234 33.2527 40.6253 32.1591" stroke="#8A8D8E" stroke-width="3" stroke-miterlimit="10"/>
</g>
<defs>
<clipPath id="clip0_253_58">
<rect width="76" height="85" fill="white"/>
</clipPath>
</defs>
</svg>
