<svg width="32" height="32" viewBox="0 0 32 32" fill="none" xmlns="http://www.w3.org/2000/svg">
<path fill-rule="evenodd" clip-rule="evenodd" d="M5.35798 5.35798C5.83529 4.88067 6.60916 4.88067 7.08646 5.35798L16 14.2715L24.9135 5.35798C25.3908 4.88067 26.1647 4.88067 26.642 5.35798C27.1193 5.83529 27.1193 6.60916 26.642 7.08646L17.7285 16L26.642 24.9135C27.1193 25.3908 27.1193 26.1647 26.642 26.642C26.1647 27.1193 25.3908 27.1193 24.9135 26.642L16 17.7285L7.08646 26.642C6.60916 27.1193 5.83529 27.1193 5.35798 26.642C4.88067 26.1647 4.88067 25.3908 5.35798 24.9135L14.2715 16L5.35798 7.08646C4.88067 6.60916 4.88067 5.83529 5.35798 5.35798Z" fill="#49C5EF"/>
</svg>
