<svg width="85" height="84" viewBox="0 0 85 84" fill="none" xmlns="http://www.w3.org/2000/svg">
<path d="M52.3979 40.8227V41.2768L52.6498 41.6547L68.0688 64.7832C73.0334 72.2301 67.695 82.205 58.7449 82.205H25.2272C16.2772 82.205 10.9388 72.2301 15.9034 64.7832L31.3224 41.6547L31.5743 41.2768V40.8227V16.9109H52.3979V40.8227Z" stroke="#E7F6FE" stroke-width="3"/>
<path d="M58.6625 52.0286H25.3096L16.3978 65.3993C11.5255 72.7095 16.7659 82.5 25.551 82.5H58.6517C67.4963 82.5 72.7242 72.5915 67.7317 65.2908L58.6625 52.0286Z" fill="#E7F6FE"/>
<line x1="26.8096" y1="16.2051" x2="57.1625" y2="16.2051" stroke="#E7F6FE" stroke-width="3" stroke-linecap="round"/>
<circle cx="50.5" cy="61.2051" r="3.5" fill="#8A9CA7"/>
<circle cx="32.5" cy="68.2051" r="3.5" fill="#8A9CA7"/>
<circle cx="36.751" cy="6.20508" r="3.5" fill="#E7F6FE"/>
<circle cx="47.8687" cy="9.38135" r="3.5" fill="#E7F6FE"/>
</svg>
