<svg width="84" height="84" viewBox="0 0 84 84" fill="none" xmlns="http://www.w3.org/2000/svg">
<path d="M31.9594 80C31.9594 80 32.599 73.4678 29.5715 69.8404C27.8374 67.7656 23.0546 67.4339 19.2808 67.5327C16.5092 67.6032 14.2208 65.4155 14.2208 62.6702V54.3357C14.2208 52.3526 12.9203 50.6024 11.0156 50.0096L8.94754 49.3744C7.17084 48.831 6.43884 46.735 7.47643 45.2107L11.3568 39.5296C13.2756 36.7208 14.2279 33.3686 14.0502 29.9882C13.2614 14.7234 26.1105 6.09242 39.3505 6.00067C53.422 5.90187 64.9066 16.6712 65.9371 30.6092C66.8396 42.7406 57.7429 44.9495 57.2525 56.8269C56.7622 68.7042 60.2729 76.4601 60.2729 76.4601" stroke="#8A9CA7" stroke-width="3" stroke-miterlimit="10" stroke-linecap="round"/>
<path d="M14.5 58H20.3611C22.3681 58 24 56.6603 24 55" stroke="#8A9CA7" stroke-width="3" stroke-miterlimit="10" stroke-linecap="round"/>
<path d="M20 39C20 39 21.7173 37 24.7593 37C27.8014 37 29 39 29 39" stroke="#8A9CA7" stroke-width="3" stroke-miterlimit="10" stroke-linecap="round"/>
<path d="M56 46C67.598 46 77 36.3741 77 24.5C77 12.6259 67.598 3 56 3C44.402 3 35 12.6259 35 24.5C35 36.3741 44.402 46 56 46Z" fill="white" stroke="#8A9CA7" stroke-width="3" stroke-miterlimit="10"/>
<path d="M56 12C53.6685 13.6138 50.8534 14.486 47.9661 14.486C47.0711 17.0956 45.3387 19.3756 43 20.9826C43.8951 23.5922 43.8951 26.4078 43 29.0174C45.3315 30.6313 47.0711 32.9044 47.9661 35.514C50.8534 35.514 53.6613 36.3862 56 38C58.3315 36.3862 61.1466 35.514 64.0339 35.514C64.9289 32.9044 66.6613 30.6244 69 29.0174C68.1049 26.4078 68.1049 23.5922 69 20.9826C66.6685 19.3687 64.9289 17.0956 64.0339 14.486C61.1466 14.486 58.3387 13.6138 56 12Z" fill="#8A9CA7" stroke="#8A9CA7" stroke-width="3" stroke-miterlimit="10"/>
<path d="M56 30C58.7614 30 61 27.7614 61 25C61 22.2386 58.7614 20 56 20C53.2386 20 51 22.2386 51 25C51 27.7614 53.2386 30 56 30Z" fill="white"/>
</svg>
