<svg width="310" height="300" viewBox="0 0 310 300" fill="none" xmlns="http://www.w3.org/2000/svg">
<g clip-path="url(#clip0_322_703)">
<path d="M233.838 292.292C247.666 299.709 263.713 301.846 278.997 298.306C279.54 298.161 280.047 297.905 280.487 297.554C280.927 297.203 281.289 296.765 281.551 296.267L283.588 292.257L260.906 280.643C254.856 277.531 250.28 272.153 248.172 265.679C246.064 259.205 246.595 252.16 249.65 246.077L249.892 245.593C253.013 239.495 258.424 234.887 264.936 232.78C271.449 230.674 278.53 231.242 284.624 234.359L307.307 245.973L309.551 241.583C309.811 241.044 309.946 240.453 309.946 239.855C309.946 239.256 309.811 238.665 309.551 238.127C303.302 223.86 292.191 212.283 278.202 205.461C262.632 197.477 250.583 199.309 240.708 207.708C239.24 208.943 237.365 209.584 235.449 209.507C233.534 209.431 231.716 208.641 230.351 207.293L82.9291 59.6613C81.9483 58.7339 81.2043 57.5842 80.7597 56.309C80.3151 55.0337 80.1829 53.6703 80.3743 52.3332C81.3014 46.1175 80.7973 39.7719 78.9005 33.7811C77.0036 27.7903 73.7643 22.3128 69.4298 17.767L62.3522 24.6803H62.6975L70.9835 54.1652L62.3868 62.7722L65.1142 65.5029L49.3018 81.5071L216.092 248.531C210.395 266.955 213.744 282.026 233.838 292.292Z" fill="#D8DADC"/>
<path d="M55.9648 88.1438L211.742 244.106C213.031 245.39 213.975 246.978 214.488 248.725C215.001 250.471 215.066 252.318 214.676 254.096C211.224 269.997 215.816 283.063 233.838 292.292C247.666 299.709 263.713 301.846 278.996 298.306C279.54 298.161 280.047 297.905 280.487 297.554C280.927 297.203 281.289 296.765 281.551 296.267L283.588 292.257L257.211 278.776C244.54 272.278 243.194 258.59 249.65 245.904L223.687 232.907L67.1165 76.1148L68.2213 75.216L59.2102 66.1943L49.923 75.4926L20.4731 67.1967V66.851L13.292 74.1099C17.7232 78.3334 23.0336 81.5219 28.8418 83.4463C34.6501 85.3708 40.8119 85.9834 46.8848 85.2402C48.5192 84.9969 50.1877 85.1321 51.7619 85.6355C53.336 86.1389 54.7738 86.997 55.9648 88.1438Z" fill="#B1B1B2"/>
<path d="M60.1769 85.6205L213.295 238.887C214.656 240.26 215.638 241.962 216.146 243.828C216.654 245.693 216.671 247.659 216.195 249.533C211.742 266.816 217.059 279.744 236.22 289.077C250.587 295.394 266.433 297.562 281.966 295.334L283.588 292.153L260.905 280.539C254.856 277.427 250.279 272.049 248.171 265.576C246.064 259.102 246.595 252.056 249.65 245.973L249.892 245.489C253.013 239.391 258.424 234.783 264.936 232.676C271.448 230.57 278.529 231.138 284.624 234.255L307.307 245.869L308.826 242.897C308.826 242.897 298.468 219.011 276.752 209.125C260.733 201.797 249.305 202.212 239.845 209.471C237.704 211.18 235.013 212.045 232.278 211.905C229.544 211.765 226.955 210.629 224.999 208.711L80.961 64.4314C79.6541 63.0836 78.7165 61.4211 78.2388 59.6046C77.761 57.7881 77.7591 55.8789 78.2335 54.0615C80.3884 45.6048 79.7061 36.6732 76.2918 28.643C72.8774 20.6127 66.9204 13.9292 59.3385 9.62234C51.7566 5.31545 42.9706 3.62408 34.3341 4.80884C25.6976 5.99361 17.6898 9.98876 11.5444 16.1788C5.3991 22.3687 1.45731 30.4101 0.326228 39.064C-0.804854 47.7178 0.937541 56.5039 5.28509 64.0686C9.63264 71.6333 16.3441 77.5569 24.3853 80.9267C32.4265 84.2965 41.3515 84.9255 49.7849 82.7169C51.6197 82.2539 53.5433 82.2783 55.3658 82.7875C57.1884 83.2967 58.8467 84.2732 60.1769 85.6205ZM12.8431 36.3982L32.039 17.2485C32.3411 16.9464 32.7158 16.7273 33.127 16.6123C33.5382 16.4972 33.972 16.4902 34.3867 16.5918L60.5567 23.505C60.9686 23.6201 61.344 23.8396 61.6464 24.1424C61.9488 24.4451 62.168 24.8209 62.283 25.2333L69.188 51.4345C69.3044 51.8461 69.3081 52.2815 69.1988 52.695C69.0895 53.1085 68.871 53.485 68.5664 53.785L49.4051 72.9692C49.1055 73.2742 48.7294 73.4929 48.3164 73.6023C47.9033 73.7118 47.4685 73.708 47.0574 73.5914L20.8874 66.6782C20.4723 66.5694 20.0938 66.352 19.7904 66.0483C19.487 65.7446 19.2698 65.3654 19.1612 64.9499L12.2562 38.7487C12.1523 38.3389 12.1516 37.9097 12.254 37.4995C12.3565 37.0893 12.5589 36.7109 12.8431 36.3982Z" fill="#6D6D6E"/>
<path d="M70.9324 74.9204L70.5418 75.3114C67.6025 78.2542 67.6025 83.0254 70.5417 85.9682L212.551 228.147C215.491 231.09 220.256 231.09 223.195 228.147L223.586 227.756C226.525 224.813 226.525 220.042 223.586 217.099L81.5764 74.9204C78.6371 71.9776 73.8717 71.9776 70.9324 74.9204Z" fill="#B1B1B2"/>
<path d="M103.161 201.763C100.111 198.705 95.974 196.986 91.6586 196.983C87.3432 196.98 83.2033 198.693 80.1496 201.746C77.0959 204.798 75.3785 208.941 75.3752 213.261C75.372 217.582 77.0832 221.727 80.1323 224.784L80.4776 225.06L22.0958 283.477L15.8122 277.186C15.5986 276.965 15.4629 276.68 15.4255 276.374C15.3882 276.069 15.4512 275.759 15.6051 275.493L57.9328 200.415L86.7266 171.587C88.4511 169.858 90.7778 168.867 93.2173 168.821L104.887 168.614L120.872 184.722L103.437 202.005L103.161 201.763Z" fill="#98989C"/>
<path d="M105.112 200.398L79.8203 225.72L92.2465 238.161L117.538 212.839L105.112 200.398Z" fill="#898989"/>
<path d="M92.6795 187.954L67.3877 213.276L79.8139 225.717L105.106 200.395L92.6795 187.954Z" fill="#B1B1B2"/>
<path d="M103.058 201.659C106.111 204.712 107.829 208.854 107.832 213.175C107.835 217.495 106.124 221.64 103.075 224.698C100.026 227.755 95.8883 229.474 91.5729 229.478C87.2575 229.481 83.1176 227.768 80.0639 224.715L79.7877 224.369L21.4404 282.786L27.724 289.112C27.9452 289.325 28.23 289.461 28.5352 289.499C28.8404 289.536 29.1495 289.473 29.4157 289.319L104.542 246.941L133.336 218.147C135.055 216.402 136.043 214.065 136.098 211.614L136.305 199.965L120.32 183.961L103.058 201.244V201.659Z" fill="#D8DADC"/>
<path d="M80.8228 225.372L23.097 283.132C23.0061 283.219 22.9338 283.323 22.8844 283.439C22.835 283.555 22.8096 283.68 22.8096 283.806C22.8096 283.932 22.835 284.056 22.8844 284.172C22.9338 284.288 23.0061 284.393 23.097 284.48L24.409 285.793C24.575 285.928 24.7821 286.002 24.9958 286.002C25.2095 286.002 25.4168 285.928 25.5828 285.793L97.2222 240.857C97.823 240.499 98.3694 240.057 98.8449 239.544L128.951 209.437C129.359 209.012 129.739 208.562 130.09 208.089L136.166 199.62L142.139 193.536C146.179 189.457 154.119 187.694 164.166 185.448C181.808 181.507 206.01 176.115 232.836 153.578C259.662 131.04 269.847 110.37 278.375 92.4991C283.933 80.8503 288.732 70.757 297.882 61.5624L284.072 47.7359C272.506 59.3156 266.809 71.3446 260.698 84.065C252.688 100.933 244.368 118.389 220.304 138.576C197.103 158.037 176.492 162.772 159.92 166.229C147.283 169.063 136.374 171.517 128.329 179.571L123.358 184.549C123.22 184.688 123.056 184.798 122.875 184.873C122.694 184.949 122.5 184.988 122.305 184.988C122.109 184.988 121.915 184.949 121.734 184.873C121.554 184.798 121.39 184.688 121.252 184.549L120.216 183.547L102.953 200.83L103.264 201.106C106.315 204.165 108.028 208.311 108.028 212.634C108.028 216.957 106.315 221.103 103.264 224.162C101.479 225.899 99.3262 227.211 96.9653 228.001C94.6044 228.791 92.0961 229.038 89.6266 228.725C86.425 228.505 83.3607 227.338 80.8228 225.372Z" fill="#6D6D6E"/>
<path d="M150.875 71.8286C128.364 98.6865 122.979 122.917 119.043 140.581C116.799 150.639 115.003 158.59 110.964 162.634L104.887 168.614L96.4288 174.663C95.9487 175.017 95.4985 175.41 95.0824 175.838L64.9766 205.945C64.4914 206.459 64.0524 207.014 63.6646 207.605L18.9892 279.329C18.8547 279.496 18.7812 279.703 18.7812 279.917C18.7812 280.131 18.8547 280.338 18.9892 280.505L21.0608 282.579C21.1478 282.67 21.2523 282.742 21.368 282.791C21.4837 282.841 21.6082 282.866 21.734 282.866C21.8598 282.866 21.9842 282.841 22.0999 282.791C22.2156 282.742 22.3202 282.67 22.4072 282.579C28.8979 276.115 80.2021 224.888 80.0985 224.784C78.5887 223.277 77.3902 221.487 76.5713 219.516C75.7525 217.545 75.3295 215.432 75.3263 213.298C75.3231 211.163 75.7398 209.049 76.5527 207.076C77.3656 205.103 78.5587 203.309 80.064 201.797C81.5692 200.286 83.3571 199.086 85.3255 198.266C87.294 197.446 89.4045 197.023 91.5364 197.02C93.6684 197.016 95.7801 197.434 97.751 198.247C99.7219 199.061 101.513 200.256 103.023 201.763L103.299 202.074L120.734 184.791L119.699 183.719C119.562 183.587 119.453 183.429 119.379 183.254C119.305 183.078 119.266 182.89 119.266 182.7C119.266 182.509 119.305 182.321 119.379 182.146C119.453 181.971 119.562 181.812 119.699 181.68L124.705 176.668C132.749 168.614 135.062 157.691 138.031 145.04C141.726 128.448 146.317 107.812 165.651 84.5835C185.849 60.3871 203.284 52.1604 220.097 44.1065C232.837 38.0574 244.852 32.3194 256.418 20.7397L242.608 6.91324C233.424 16.0733 223.377 20.7397 211.742 26.4431C194.031 34.7736 173.765 44.4521 150.875 71.8286Z" fill="#6D6D6E"/>
<path d="M256.797 4.11337C252.206 -0.483933 243.574 -1.69374 238.982 2.90356C230.04 11.8562 220.132 16.73 208.635 22.0532C190.578 30.6948 170.14 40.4424 146.939 68.1645C123.738 95.8866 119.906 121.085 115.866 138.956C113.691 148.704 111.999 156.239 108.34 160.041L126.224 177.809C134.682 169.34 137.168 158.175 140.034 145.213C143.693 128.828 148.216 108.469 167.343 85.6205C187.402 61.9081 204.665 53.6813 221.168 45.7311C233.458 39.8548 246.198 33.7712 258.006 21.9495C262.598 17.3522 261.389 8.71068 256.797 4.11337Z" fill="#49C5EF"/>
<path d="M250.79 14.7598C241.848 23.7124 231.939 28.5862 220.477 33.9094C202.42 42.5164 181.981 52.2986 158.781 79.9862C135.58 107.674 131.747 132.907 127.708 150.812C125.533 160.56 123.807 168.095 120.182 171.898L126.224 177.809C134.682 169.34 137.168 158.175 140.034 145.213C143.693 128.828 148.216 108.469 167.343 85.6205C187.402 61.9081 204.664 53.6813 221.167 45.7311C233.458 39.8548 246.198 33.7712 258.005 21.9495C259.241 20.5581 260.124 18.8898 260.581 17.0851C261.038 15.2803 261.054 13.3922 260.629 11.5797C260.077 8.74525 255.382 10.1625 250.79 14.7598Z" fill="#A9E7FC"/>
<path d="M300.471 47.8396C305.062 52.4369 306.271 61.0785 301.679 65.6758C292.737 74.6284 287.869 84.5489 282.552 96.0594C273.921 114.103 264.185 134.601 236.496 157.795C208.807 180.989 183.638 184.895 165.789 188.904C156.052 191.082 148.354 192.81 144.728 196.474L126.879 178.604C135.372 170.135 146.524 167.646 159.471 164.777C175.835 161.113 196.171 156.55 218.992 137.435C242.745 117.49 250.962 100.242 258.902 83.5811C264.772 71.2409 270.848 58.5206 282.656 46.6989C287.248 42.0325 295.879 43.2423 300.471 47.8396Z" fill="#A9E7FC"/>
<path d="M105.543 186.588C106.863 185.273 108.542 184.379 110.37 184.018C112.197 183.658 114.089 183.847 115.809 184.563C117.529 185.278 118.998 186.488 120.032 188.039C121.065 189.59 121.617 191.412 121.617 193.277C121.617 195.141 121.065 196.964 120.032 198.515C118.998 200.066 117.529 201.275 115.809 201.991C114.089 202.706 112.197 202.896 110.37 202.535C108.542 202.175 106.863 201.281 105.543 199.965C104.659 199.091 103.957 198.049 103.478 196.901C102.999 195.753 102.752 194.521 102.752 193.277C102.752 192.033 102.999 190.801 103.478 189.652C103.957 188.504 104.659 187.463 105.543 186.588Z" fill="#898989"/>
<path d="M112.207 199.896C115.848 199.896 118.801 196.94 118.801 193.294C118.801 189.648 115.848 186.692 112.207 186.692C108.565 186.692 105.612 189.648 105.612 193.294C105.612 196.94 108.565 199.896 112.207 199.896Z" fill="#504F53"/>
<path d="M122.184 179.157C118.926 178.095 116.016 176.172 113.76 173.591C111.31 171.305 109.45 168.459 108.339 165.296L104.887 168.752L119.767 183.65C119.499 183.379 119.349 183.012 119.349 182.63C119.349 182.249 119.499 181.882 119.767 181.611L122.184 179.157Z" fill="#39373A"/>
<path d="M294.947 58.9699C286.005 67.888 281.137 77.8431 275.82 89.3191C267.224 107.397 257.453 127.86 229.764 151.089C202.075 174.317 176.906 178.154 159.057 182.198C149.321 184.376 141.794 186.07 137.997 189.734L126.914 178.638C135.407 170.169 146.559 167.646 159.506 164.812C175.836 161.148 196.206 156.585 219.027 137.47C242.78 117.525 250.997 100.277 258.938 83.6156C264.807 71.2755 270.883 58.5551 282.691 46.7335C284.068 45.476 285.734 44.5783 287.541 44.1201C289.347 43.6618 291.239 43.6571 293.048 44.1065C295.879 44.5904 302.543 51.3654 294.947 58.9699Z" fill="#49C5EF"/>
</g>
<defs>
<clipPath id="clip0_322_703">
<rect width="310" height="300" fill="white"/>
</clipPath>
</defs>
</svg>
