<svg width="236" height="75" viewBox="0 0 236 75" fill="none" xmlns="http://www.w3.org/2000/svg">
<path fill-rule="evenodd" clip-rule="evenodd" d="M170.945 41.8255L168.683 31.3629C168.154 28.909 167.072 28.2747 165.393 28.2747C163.718 28.2747 162.64 28.909 162.116 31.3629L159.842 41.8255C158.585 47.649 156.421 49.6878 152.054 49.6878V49.0536C152.819 48.8473 153.556 47.4743 155.026 41.6486L157.605 31.2597C158.621 27.2207 160.924 24.6261 165.393 24.6261C169.868 24.6261 172.172 27.2207 173.18 31.2597L175.771 41.6486C177.238 47.4743 177.966 48.8473 178.742 49.0536V49.6878C174.373 49.6878 172.201 47.649 170.945 41.8255Z" fill="#00953B"/>
<path fill-rule="evenodd" clip-rule="evenodd" d="M97.4015 28.7653H93.142V37.0509H97.4015C99.6042 37.0509 101.522 35.4739 101.522 32.9099C101.522 30.3457 99.6042 28.7653 97.4015 28.7653ZM93.1548 41.5647C93.1548 48.1244 91.5368 49.366 87.1699 49.3532V48.7235C87.9691 48.5278 88.6038 48.1666 88.6038 41.315L88.6002 31.5733C88.6002 26.7675 88.2898 25.9573 87.2095 25.7498V25.1167H98.4142C102.818 25.1167 106.168 28.4194 106.168 32.9099C106.168 37.4026 102.818 40.7041 98.4142 40.7041H93.142L93.1548 41.5647Z" fill="#00953B"/>
<path fill-rule="evenodd" clip-rule="evenodd" d="M198.706 41.8255L198.28 40.0341H187.458L187.036 41.8255C185.672 47.649 183.788 49.6878 179.425 49.6878V49.0536C180.194 48.8473 180.958 47.4743 182.389 41.6486L184.975 31.2597C186.024 27.0132 188.471 24.6261 192.873 24.6261C197.271 24.6261 199.715 27.0132 200.762 31.2597L203.346 41.6486C204.779 47.4743 205.551 48.8473 206.315 49.0536V49.6878C201.949 49.6878 200.068 47.649 198.706 41.8255ZM196.433 31.6489C195.805 28.909 194.756 28.2747 192.873 28.2747C190.982 28.2747 189.935 28.909 189.305 31.6489L188.226 36.4536H197.514L196.433 31.6489Z" fill="#00953B"/>
<path fill-rule="evenodd" clip-rule="evenodd" d="M110.421 31.4479C110.421 26.6421 110.296 25.9481 109.08 25.6233V24.9878H114.784V40.5952L115.065 40.7711L131.236 24.4169H131.864V41.3139C131.864 48.1668 132.5 48.5279 133.3 48.7225V49.352C129.113 49.4037 127.501 48.2172 127.501 41.6035V33.8585L127.221 33.6791L111.047 50.0391H110.421V31.4479Z" fill="#00953B"/>
<path fill-rule="evenodd" clip-rule="evenodd" d="M137.539 25.088H155.27V30.1447H154.634C154.426 28.9465 153.17 28.7354 148.84 28.7354H143.521V41.4762C143.521 48.0372 141.905 49.3655 137.545 49.3526V48.7241C138.339 48.5284 138.959 48.1673 138.959 41.3145V31.5739C138.959 26.7669 138.623 25.9568 137.539 25.7504V25.088Z" fill="#00953B"/>
<path fill-rule="evenodd" clip-rule="evenodd" d="M39.9808 24.5735C40.0753 24.6911 40.3037 24.969 40.5257 25.218C40.6648 25.3633 43.1716 27.9518 44.4739 29.2931C43.588 27.5927 42.0255 24.5895 41.9235 24.4218C41.7589 24.1289 41.5687 23.8307 41.4827 23.695C40.9654 22.8689 39.9935 22.1293 38.9111 21.7189C39.0089 22.8015 39.3912 23.8628 39.9808 24.5735Z" fill="url(#paint0_radial_337_973)"/>
<path fill-rule="evenodd" clip-rule="evenodd" d="M35.8775 40.5562C35.5556 40.6279 35.2178 40.7198 35.0585 40.7529C34.1174 40.9934 33.1243 41.6945 32.3945 42.5998C33.4514 42.8498 34.5795 42.8028 35.4239 42.464C35.5684 42.4084 35.8955 42.2802 36.1972 42.1433C36.3894 42.06 39.6068 40.4537 41.2713 39.6254C39.3986 39.9459 36.0708 40.5124 35.8775 40.5562Z" fill="url(#paint1_radial_337_973)"/>
<path fill-rule="evenodd" clip-rule="evenodd" d="M49.2751 51.3335C49.2337 51.6671 49.2157 52.0197 49.2008 52.1768C49.1371 53.1536 49.4854 54.325 50.1271 55.3029C50.6869 54.3667 50.9916 53.2786 50.9343 52.366C50.9183 52.2003 50.9024 51.854 50.8664 51.5206C50.8503 51.3142 50.3246 47.7405 50.0548 45.8861C49.7797 47.781 49.289 51.1379 49.2751 51.3335Z" fill="url(#paint2_radial_337_973)"/>
<path fill-rule="evenodd" clip-rule="evenodd" d="M58.3015 23.3807C58.2207 23.5153 58.0295 23.8114 57.8617 24.1042C57.7629 24.2763 56.0932 27.4804 55.2275 29.1391C56.5638 27.7668 58.9164 25.3429 59.0513 25.1986C59.2659 24.9496 59.4901 24.6717 59.5889 24.5541C60.2155 23.7975 60.6139 22.6453 60.6776 21.4804L60.6765 21.4793V21.4783C59.6706 21.9047 58.7889 22.6037 58.3015 23.3807Z" fill="url(#paint3_radial_337_973)"/>
<path fill-rule="evenodd" clip-rule="evenodd" d="M58.6836 39.4093C60.3832 40.259 63.404 41.7628 63.5846 41.8407C63.8853 41.9743 64.2177 42.1089 64.3622 42.1624C65.2671 42.5291 66.4833 42.5516 67.5965 42.2468C66.8892 41.4229 65.9543 40.7945 65.0707 40.5668C64.9229 40.5284 64.5809 40.4386 64.2548 40.3734C64.0541 40.3284 60.5128 39.7204 58.6836 39.4093Z" fill="url(#paint4_radial_337_973)"/>
<path fill-rule="evenodd" clip-rule="evenodd" d="M61.2099 21.2894C61.0304 21.345 60.8497 21.4188 60.6777 21.4871C60.614 22.6521 60.2157 23.8053 59.5943 24.563C59.4902 24.6806 59.2661 24.9585 59.0515 25.2075C58.9166 25.3518 56.5638 27.7757 55.2276 29.148C54.9238 29.7379 54.7156 30.1312 54.7156 30.1312C53.9147 31.6606 53.2965 33.4123 53.8531 35.2216C54.4596 37.0097 55.9807 38.0603 57.5272 38.8256C57.5272 38.8256 57.9988 39.0617 58.6839 39.4038C60.5131 39.7147 64.0534 40.3229 64.2551 40.3677C64.5813 40.433 64.9233 40.5227 65.071 40.5613C65.9546 40.7888 66.8895 41.4173 67.5989 42.2413C67.7137 42.2103 67.8284 42.1794 67.94 42.1419C70.8143 41.1597 72.3884 38.087 71.5662 35.1843C70.7685 32.817 68.9384 33.1633 68.095 30.562C67.2623 27.9649 68.9394 27.1622 68.2044 24.7725C67.3695 22.4832 65.2143 21.0319 62.8914 21.0319C62.3347 21.0319 61.7685 21.1152 61.2099 21.2894Z" fill="#D8D8D8"/>
<mask id="mask0_337_973" style="mask-type:alpha" maskUnits="userSpaceOnUse" x="53" y="21" width="19" height="22">
<path fill-rule="evenodd" clip-rule="evenodd" d="M61.2099 21.2894C61.0304 21.345 60.8497 21.4188 60.6777 21.4871C60.614 22.6521 60.2157 23.8053 59.5943 24.563C59.4902 24.6806 59.2661 24.9585 59.0515 25.2075C58.9166 25.3518 56.5638 27.7757 55.2276 29.148C54.9238 29.7379 54.7156 30.1312 54.7156 30.1312C53.9147 31.6606 53.2965 33.4123 53.8531 35.2216C54.4596 37.0097 55.9807 38.0603 57.5272 38.8256C57.5272 38.8256 57.9988 39.0617 58.6839 39.4038C60.5131 39.7147 64.0534 40.3229 64.2551 40.3677C64.5813 40.433 64.9233 40.5227 65.071 40.5611C65.9546 40.7888 66.8895 41.4173 67.5989 42.2413C67.7137 42.2103 67.8284 42.1794 67.94 42.1419C70.8143 41.1597 72.3884 38.087 71.5662 35.1843C70.7685 32.817 68.9384 33.1633 68.095 30.562C67.2623 27.9649 68.9394 27.1622 68.2044 24.7725C67.3695 22.4832 65.2143 21.0319 62.8914 21.0319C62.3347 21.0319 61.7685 21.1152 61.2099 21.2894Z" fill="white"/>
</mask>
<g mask="url(#mask0_337_973)">
<path d="M72.1624 13.5684L80.6954 40.386L55.5515 48.7089L47.0186 21.8911L72.1624 13.5684Z" fill="url(#paint5_radial_337_973)"/>
<path fill-rule="evenodd" clip-rule="evenodd" d="M52.5126 39.9569C51.0118 41.0865 50.4805 42.8682 50.2417 44.5815C50.2417 44.5815 50.1663 45.1072 50.0547 45.8628C50.3245 47.717 50.8503 51.291 50.8661 51.4973C50.9023 51.8307 50.9182 52.177 50.9341 52.3427C50.9915 53.2553 50.6866 54.3434 50.1268 55.2796C50.1906 55.38 50.2564 55.4816 50.3287 55.5746C52.1377 58.0166 55.5345 58.5767 58.019 56.8902C60.017 55.395 59.1173 53.7502 61.3181 52.1428C63.518 50.5376 64.7926 51.9034 66.8278 50.4541C69.188 48.5977 69.7105 45.1777 67.9558 42.6854C67.8496 42.5304 67.7242 42.3787 67.599 42.2333C66.4837 42.5379 65.2674 42.5154 64.3624 42.1489C64.2179 42.0955 63.8855 41.9608 63.5881 41.8272C63.4086 41.7492 60.3823 40.2444 58.684 39.3958C58.0318 39.2835 57.5983 39.2066 57.5983 39.2066C56.9792 39.0997 56.3461 39.0239 55.7151 39.0239C54.5998 39.0239 53.4951 39.2568 52.5126 39.9569Z" fill="#D8D8D8"/>
</g>
<mask id="mask1_337_973" style="mask-type:alpha" maskUnits="userSpaceOnUse" x="50" y="39" width="19" height="19">
<path fill-rule="evenodd" clip-rule="evenodd" d="M52.5126 39.9569C51.0118 41.0865 50.4805 42.8682 50.2417 44.5815C50.2417 44.5815 50.1663 45.1072 50.0547 45.8628C50.3245 47.717 50.8503 51.291 50.8661 51.4973C50.9023 51.8307 50.9182 52.177 50.9341 52.3427C50.9915 53.2553 50.6866 54.3434 50.1268 55.2796C50.1906 55.38 50.2564 55.4816 50.3287 55.5746C52.1377 58.0166 55.5345 58.5767 58.019 56.8902C60.017 55.395 59.1173 53.7502 61.3181 52.1428C63.518 50.5376 64.7926 51.9034 66.8278 50.4541C69.188 48.5977 69.7105 45.1777 67.9558 42.6854C67.8496 42.5304 67.7242 42.3787 67.599 42.2333C66.4837 42.5379 65.2674 42.5154 64.3624 42.1489C64.2179 42.0955 63.8855 41.9608 63.5881 41.8272C63.4086 41.7492 60.3823 40.2444 58.684 39.3958C58.0318 39.2835 57.5983 39.2066 57.5983 39.2066C56.9792 39.0997 56.3461 39.0239 55.7151 39.0239C54.5998 39.0239 53.4951 39.2568 52.5126 39.9569Z" fill="white"/>
</mask>
<g mask="url(#mask1_337_973)">
<path d="M81.1513 52.9597L57.4864 70.4143L40.3066 46.4865L63.9716 28.9163L81.1513 52.9597Z" fill="url(#paint6_radial_337_973)"/>
<path fill-rule="evenodd" clip-rule="evenodd" d="M42.5438 39.3995C42.5438 39.3995 42.0255 39.485 41.2713 39.6154C39.6079 40.4437 36.3895 42.0501 36.1972 42.1333C35.8956 42.2702 35.5684 42.3985 35.4239 42.4541C34.5795 42.7929 33.4557 42.8398 32.3946 42.5898C32.3202 42.6838 32.2501 42.781 32.1779 42.8761C30.4316 45.3673 30.9468 48.7874 33.3133 50.6439C35.34 52.0909 36.6168 50.7293 38.8166 52.3314C41.0153 53.9389 40.1231 55.5879 42.1136 57.0842C44.6088 58.7707 47.996 58.2106 49.8082 55.7642C49.923 55.6061 50.0269 55.4512 50.1268 55.2866C49.4853 54.3086 49.1368 53.1373 49.2005 52.1605C49.2155 52.0034 49.2335 51.6505 49.275 51.3171C49.2888 51.1216 49.7795 47.7647 50.0546 45.8698C49.9601 45.2135 49.8931 44.7732 49.8931 44.7732C49.6499 43.0567 49.1251 41.2752 47.619 40.1455C46.6397 39.4497 45.535 39.2168 44.425 39.2168C43.7919 39.2168 43.1578 39.2905 42.5438 39.3995Z" fill="#D8D8D8"/>
</g>
<mask id="mask2_337_973" style="mask-type:alpha" maskUnits="userSpaceOnUse" x="31" y="39" width="20" height="20">
<path fill-rule="evenodd" clip-rule="evenodd" d="M42.5438 39.3995C42.5438 39.3995 42.0255 39.485 41.2713 39.6154C39.6079 40.4437 36.3895 42.0501 36.1972 42.1333C35.8956 42.2702 35.5684 42.3985 35.4239 42.4541C34.5795 42.7929 33.4557 42.8398 32.3946 42.5898C32.3202 42.6838 32.2501 42.781 32.1779 42.8761C30.4316 45.3673 30.9468 48.7874 33.3133 50.6439C35.34 52.0909 36.6168 50.7293 38.8166 52.3314C41.0153 53.9389 40.1231 55.5879 42.1136 57.0842C44.6088 58.7707 47.996 58.2106 49.8082 55.7642C49.923 55.6061 50.0269 55.4512 50.1268 55.2866C49.4853 54.3086 49.1368 53.1373 49.2005 52.1605C49.2155 52.0034 49.2335 51.6505 49.275 51.3171C49.2888 51.1216 49.7795 47.7647 50.0546 45.8698C49.9601 45.2135 49.8931 44.7732 49.8931 44.7732C49.6499 43.0567 49.1251 41.2752 47.619 40.1455C46.6397 39.4497 45.535 39.2168 44.425 39.2168C43.7919 39.2168 43.1578 39.2905 42.5438 39.3995Z" fill="white"/>
</mask>
<g mask="url(#mask2_337_973)">
<path d="M42.9227 70.6474L19.2578 53.1928L36.4376 29.1493L60.2164 46.6039L42.9227 70.6474Z" fill="url(#paint7_radial_337_973)"/>
<path fill-rule="evenodd" clip-rule="evenodd" d="M31.5831 25.0767C30.8428 27.4664 32.5295 28.269 31.684 30.865C30.8492 33.4642 29.019 33.1223 28.2202 35.4874C27.3906 38.3923 28.9712 41.4606 31.8455 42.4439C32.0239 42.5006 32.2088 42.5572 32.3946 42.5968C33.1244 41.6915 34.1175 40.9905 35.0608 40.7499C35.218 40.7168 35.5557 40.6249 35.8776 40.5532C36.0709 40.5094 39.3988 39.9408 41.2714 39.6224C41.8673 39.3274 42.2624 39.1276 42.2624 39.1276C43.8069 38.3645 45.329 37.3117 45.9324 35.5195C46.4878 33.7176 45.875 31.9669 45.0677 30.4375C45.0677 30.4375 44.8255 29.963 44.4739 29.2886C43.1727 27.9473 40.6649 25.3599 40.5257 25.2135C40.3037 24.9644 40.0754 24.6866 39.9808 24.569C39.3913 23.8583 39.0089 22.797 38.9112 21.7144C38.805 21.6695 38.6924 21.6321 38.583 21.5947C38.0211 21.4183 37.4528 21.335 36.8952 21.335C34.5732 21.3339 32.4159 22.7895 31.5831 25.0767Z" fill="#D8D8D8"/>
</g>
<mask id="mask3_337_973" style="mask-type:alpha" maskUnits="userSpaceOnUse" x="28" y="21" width="19" height="22">
<path fill-rule="evenodd" clip-rule="evenodd" d="M31.5831 25.0767C30.8428 27.4664 32.5295 28.269 31.684 30.865C30.8492 33.4642 29.019 33.1223 28.2202 35.4874C27.3906 38.3923 28.9712 41.4606 31.8455 42.4439C32.0239 42.5006 32.2088 42.5572 32.3946 42.5968C33.1244 41.6915 34.1175 40.9905 35.0608 40.7499C35.218 40.7168 35.5557 40.6249 35.8776 40.5532C36.0709 40.5094 39.3988 39.9408 41.2714 39.6224C41.8673 39.3274 42.2624 39.1276 42.2624 39.1276C43.8069 38.3645 45.329 37.3117 45.9324 35.5195C46.4878 33.7176 45.875 31.9669 45.0677 30.4375C45.0677 30.4375 44.8255 29.963 44.4739 29.2886C43.1727 27.9473 40.6649 25.3599 40.5257 25.2135C40.3037 24.9644 40.0754 24.6866 39.9808 24.569C39.3913 23.8583 39.0089 22.797 38.9112 21.7144C38.805 21.6695 38.6924 21.6321 38.583 21.5947C38.0211 21.4183 37.4528 21.335 36.8952 21.335C34.5732 21.3339 32.4159 22.7895 31.5831 25.0767Z" fill="white"/>
</mask>
<g mask="url(#mask3_337_973)">
<path d="M19.2588 40.8494L27.9056 13.9161L53.0495 22.2389L44.4027 49.1722L19.2588 40.8494Z" fill="url(#paint8_radial_337_973)"/>
<path fill-rule="evenodd" clip-rule="evenodd" d="M49.7835 17.3896C47.0749 17.3896 46.8317 15.5342 44.3493 15.5C41.3486 15.609 38.9246 18.0639 38.8907 21.1163C38.8843 21.3097 38.8939 21.5011 38.9108 21.6945C39.9932 22.1049 40.9651 22.8445 41.4824 23.6706C41.5685 23.8064 41.7586 24.1045 41.9232 24.3974C42.0252 24.5652 43.5898 27.5694 44.4735 29.2688C44.9334 29.7412 45.2404 30.0618 45.2404 30.0618C46.4419 31.3037 47.9065 32.4312 49.7835 32.4579C51.6679 32.4312 53.1283 31.3037 54.3296 30.0618C54.3296 30.0618 54.7035 29.6824 55.2272 29.1341C56.093 27.4754 57.7627 24.2713 57.8615 24.0992C58.0293 23.8064 58.2205 23.5103 58.3013 23.3757C58.7887 22.5987 59.6704 21.8997 60.6773 21.4733C60.6784 21.3557 60.6868 21.2339 60.6784 21.1163C60.6401 18.0639 58.2259 15.609 55.2272 15.5C52.7396 15.5342 52.4994 17.3896 49.7835 17.3896Z" fill="#D8D8D8"/>
</g>
<mask id="mask4_337_973" style="mask-type:alpha" maskUnits="userSpaceOnUse" x="38" y="15" width="23" height="18">
<path fill-rule="evenodd" clip-rule="evenodd" d="M49.7835 17.3896C47.0749 17.3896 46.8317 15.5342 44.3493 15.5C41.3486 15.609 38.9246 18.0639 38.8907 21.1163C38.8843 21.3097 38.8939 21.5011 38.9108 21.6945C39.9932 22.1049 40.9651 22.8445 41.4824 23.6706C41.5685 23.8064 41.7586 24.1045 41.9232 24.3974C42.0252 24.5652 43.5898 27.5694 44.4735 29.2688C44.9334 29.7412 45.2404 30.0618 45.2404 30.0618C46.4419 31.3037 47.9065 32.4312 49.7835 32.4579C51.6679 32.4312 53.1283 31.3037 54.3296 30.0618C54.3296 30.0618 54.7035 29.6824 55.2272 29.1341C56.093 27.4754 57.7627 24.2713 57.8615 24.0992C58.0293 23.8064 58.2205 23.5103 58.3013 23.3757C58.7887 22.5987 59.6704 21.8997 60.6773 21.4733C60.6784 21.3557 60.6868 21.2339 60.6784 21.1163C60.6401 18.0639 58.2259 15.609 55.2272 15.5C52.7396 15.5342 52.4994 17.3896 49.7835 17.3896Z" fill="white"/>
</mask>
<g mask="url(#mask4_337_973)">
<path d="M38.4863 14.2507H61.8099V32.6302H38.4863V14.2507Z" fill="url(#paint9_radial_337_973)"/>
</g>
<defs>
<radialGradient id="paint0_radial_337_973" cx="0" cy="0" r="1" gradientUnits="userSpaceOnUse" gradientTransform="translate(45.9765 33.2447) rotate(-75.4843) scale(11.3792 8.8055)">
<stop stop-color="#F4ECE0"/>
<stop offset="0.5112" stop-color="#B48C80"/>
<stop offset="1" stop-color="#933F39"/>
</radialGradient>
<radialGradient id="paint1_radial_337_973" cx="0" cy="0" r="1" gradientUnits="userSpaceOnUse" gradientTransform="translate(46.4959 40.124) rotate(-165.368) scale(10.3385 5.28501)">
<stop stop-color="#F4EDEB"/>
<stop offset="0.5112" stop-color="#B49B9E"/>
<stop offset="1" stop-color="#785830"/>
</radialGradient>
<radialGradient id="paint2_radial_337_973" cx="0" cy="0" r="1" gradientUnits="userSpaceOnUse" gradientTransform="translate(50.1193 39.2279) rotate(104.733) scale(8.50248 4.43892)">
<stop stop-color="#EFEBE0"/>
<stop offset="0.5112" stop-color="#AE9954"/>
<stop offset="1" stop-color="#91592F"/>
</radialGradient>
<radialGradient id="paint3_radial_337_973" cx="0" cy="0" r="1" gradientUnits="userSpaceOnUse" gradientTransform="translate(53.873 33.0626) rotate(75.9204) scale(11.4936 8.64902)">
<stop stop-color="#E2DDDB"/>
<stop offset="0.5112" stop-color="#9D8F8C"/>
<stop offset="1" stop-color="#2B2E2E"/>
</radialGradient>
<radialGradient id="paint4_radial_337_973" cx="0" cy="0" r="1" gradientUnits="userSpaceOnUse" gradientTransform="translate(52.6875 39.2605) rotate(53.6596) scale(7.10085 14.3229)">
<stop stop-color="#B4C9B6"/>
<stop offset="0.5112" stop-color="#889281"/>
<stop offset="1" stop-color="#194936"/>
</radialGradient>
<radialGradient id="paint5_radial_337_973" cx="0" cy="0" r="1" gradientUnits="userSpaceOnUse" gradientTransform="translate(50.5864 36.2295) rotate(72.2671) scale(18.0073 17.3996)">
<stop stop-color="#8FD0F1"/>
<stop offset="0.5112" stop-color="#4B97D1"/>
<stop offset="1" stop-color="#0064AD"/>
</radialGradient>
<radialGradient id="paint6_radial_337_973" cx="0" cy="0" r="1" gradientUnits="userSpaceOnUse" gradientTransform="translate(50.5938 36.9655) rotate(143.565) scale(17.8501 17.9357)">
<stop stop-color="#FFF0E2"/>
<stop offset="0.5112" stop-color="#FFD02A"/>
<stop offset="1" stop-color="#F59324"/>
</radialGradient>
<radialGradient id="paint7_radial_337_973" cx="0" cy="0" r="1" gradientUnits="userSpaceOnUse" gradientTransform="translate(49.8472 37.1589) rotate(-143.565) scale(17.8507 17.9211)">
<stop stop-color="#EDE6F1"/>
<stop offset="0.5112" stop-color="#C2A4CE"/>
<stop offset="1" stop-color="#8D5BA4"/>
</radialGradient>
<radialGradient id="paint8_radial_337_973" cx="0" cy="0" r="1" gradientUnits="userSpaceOnUse" gradientTransform="translate(49.432 36.5807) rotate(-72.2672) scale(18.006 17.3996)">
<stop stop-color="#F6F8E8"/>
<stop offset="0.5112" stop-color="#B2D138"/>
<stop offset="1" stop-color="#74BD43"/>
</radialGradient>
<radialGradient id="paint9_radial_337_973" cx="0" cy="0" r="1" gradientUnits="userSpaceOnUse" gradientTransform="translate(50.1237 36.5494) scale(17.7527 13.9894)">
<stop stop-color="#FFF5E5"/>
<stop offset="0.5112" stop-color="#FAB678"/>
<stop offset="1" stop-color="#E91D26"/>
</radialGradient>
</defs>
</svg>
