<svg width="236" height="75" viewBox="0 0 236 75" fill="none" xmlns="http://www.w3.org/2000/svg">
<g clip-path="url(#clip0_337_958)">
<path d="M154.575 47.2351C153.698 47.2351 152.959 46.9231 152.36 46.2999C151.782 45.6515 151.494 44.8601 151.494 43.9242C151.494 42.9645 151.782 42.1731 152.359 41.5492C152.959 40.9007 153.698 40.5773 154.574 40.5773C155.452 40.5773 156.179 40.9007 156.756 41.5492C157.356 42.1731 157.656 42.9645 157.656 43.9242C157.656 44.8601 157.356 45.6515 156.756 46.2999C156.179 46.9231 155.452 47.2351 154.575 47.2351V47.2351ZM162.011 46.8039V28.9524H166.165L166.511 32.0836H166.649C167.272 30.8594 168.022 29.9602 168.9 29.3844C169.776 28.8086 170.653 28.5203 171.531 28.5203C172.015 28.5203 172.407 28.5563 172.707 28.6281C173.029 28.6771 173.318 28.7604 173.573 28.8805L172.742 33.4508C172.446 33.3614 172.145 33.2895 171.842 33.2352C171.521 33.1839 171.197 33.1598 170.873 33.1633C170.226 33.1633 169.546 33.4034 168.831 33.8828C168.138 34.363 167.56 35.214 167.099 36.4383V46.8039H162.011ZM180.961 47.2351C179.091 47.2351 177.73 46.5997 176.876 45.3281C176.046 44.0565 175.63 42.2924 175.63 40.0375V28.9524H180.719V39.3531C180.719 40.6492 180.892 41.5369 181.237 42.0172C181.584 42.4966 182.126 42.7359 182.865 42.7359C183.511 42.7359 184.053 42.5807 184.492 42.2687C184.93 41.9567 185.404 41.4528 185.911 40.7578V28.9515H191V46.803H186.846L186.465 44.3194H186.361C185.623 45.2309 184.826 45.9512 183.973 46.4788C183.142 46.9827 182.138 47.2343 180.961 47.2343V47.2351Z" fill="#FF465C"/>
<path d="M50.1232 47.2351C49.3385 47.2351 48.6228 47.0913 47.9771 46.8039C47.3755 46.5548 46.8325 46.174 46.3849 45.6874C45.9437 45.1795 45.5919 44.5948 45.3456 43.9601C45.1155 43.3125 45 42.6044 45 41.8367C45 39.9656 45.762 38.5021 47.2843 37.4461C48.8082 36.3901 51.2653 35.682 54.658 35.3227C54.6117 34.5305 54.3807 33.9073 53.966 33.4508C53.5732 32.9714 52.904 32.7313 51.9582 32.7313C51.2198 32.7313 50.4814 32.875 49.743 33.1633C49.0274 33.4508 48.2536 33.8469 47.4233 34.3508L45.5884 30.8602C46.6819 30.1717 47.8423 29.605 49.0502 29.1696C50.2995 28.7331 51.6095 28.514 52.9275 28.5212C55.1427 28.5212 56.8269 29.1811 57.9808 30.5008C59.1583 31.7961 59.7467 33.824 59.7467 36.5828V46.8047H55.5928L55.2472 44.9687H55.1081C54.4028 45.6169 53.6238 46.1728 52.7885 46.6242C51.981 47.0325 51.0917 47.2367 50.1232 47.2367V47.2351ZM51.8537 43.1328C52.4311 43.1328 52.9275 43.0005 53.3423 42.7367C53.7586 42.4729 54.1961 42.1005 54.658 41.6211V38.4898C52.8576 38.7536 51.6118 39.1375 50.9189 39.6414C50.2277 40.1453 49.8813 40.7448 49.8813 41.4406C49.8813 42.0172 50.0541 42.4484 50.3997 42.7367C50.7689 43.0005 51.2543 43.1328 51.8537 43.1328V43.1328ZM64.0505 53.4257V28.9524H68.2052L68.5508 30.7165H68.6891C69.3628 30.0892 70.121 29.5676 70.9396 29.168C71.7935 28.7359 72.6701 28.5203 73.5711 28.5203C74.6088 28.5203 75.5428 28.7359 76.3746 29.168C77.2063 29.6007 77.9294 30.2294 78.4861 31.0039C79.0627 31.7961 79.501 32.7549 79.8011 33.8828C80.1247 34.987 80.2858 36.2227 80.2858 37.5906C80.2858 39.126 80.0784 40.4932 79.6629 41.6929C79.2701 42.869 78.7281 43.876 78.036 44.7164C77.3668 45.5314 76.5938 46.1554 75.7164 46.5874C74.8875 47.0132 73.9756 47.2348 73.0511 47.2351C72.3127 47.2351 71.5979 47.0799 70.905 46.7671C70.1887 46.414 69.5336 45.9399 68.9664 45.364L69.1392 48.207V53.4257H64.0505ZM71.8744 42.9164C72.751 42.9164 73.5004 42.508 74.1241 41.6929C74.747 40.8534 75.0589 39.5091 75.0589 37.6617C75.0589 34.4472 74.0668 32.8391 72.0818 32.8391C71.0896 32.8391 70.1085 33.3789 69.1392 34.4586V41.7648C69.6011 42.1968 70.063 42.4966 70.5241 42.6648C70.9859 42.8322 71.4353 42.9164 71.8744 42.9164V42.9164ZM89.5935 47.2351C88.5322 47.2351 87.6202 47.0677 86.859 46.7312C86.1207 46.3963 85.5079 45.9275 85.0241 45.3281C84.5622 44.7278 84.2165 44.0083 83.9856 43.1687C83.7782 42.3047 83.6737 41.3573 83.6737 40.325V33.0914H81.3203V29.168L83.951 28.9524L84.5394 24.2016H88.7624V28.9524H92.8817V33.0914H88.7624V40.2539C88.7624 41.2609 88.9588 41.9935 89.3515 42.4484C89.7663 42.8812 90.3091 43.0969 90.9776 43.0969C91.2548 43.0969 91.5321 43.0601 91.8086 42.9882C92.0799 42.9256 92.3462 42.8415 92.6052 42.7367L93.4009 46.5874C92.9398 46.7312 92.397 46.8757 91.7749 47.0195C91.1512 47.1632 90.4238 47.2351 89.5935 47.2351V47.2351ZM103.31 47.2351C102.086 47.2351 100.944 47.0309 99.8823 46.6234C98.8502 46.211 97.9085 45.5869 97.1133 44.7882C96.3286 43.9715 95.7174 42.9882 95.2783 41.8367C94.84 40.6851 94.6208 39.3653 94.6208 37.8781C94.6208 36.4383 94.8518 35.1422 95.3129 33.9906C95.7748 32.8146 96.3749 31.8313 97.1133 31.0399C97.8498 30.242 98.7325 29.6055 99.7095 29.168C100.66 28.7401 101.685 28.5197 102.721 28.5203C103.944 28.5203 105.005 28.7359 105.906 29.168C106.829 29.6008 107.591 30.2003 108.191 30.968C108.814 31.7357 109.275 32.6471 109.575 33.7031C109.875 34.7346 110.025 35.8625 110.025 37.0859C110.025 37.5661 110.001 38.0219 109.956 38.4539C109.909 38.8859 109.864 39.2093 109.818 39.4258H99.5366C99.7676 40.7211 100.275 41.6807 101.06 42.3047C101.867 42.9041 102.848 43.2047 104.002 43.2047C105.225 43.2047 106.46 42.8086 107.706 42.0172L109.402 45.2203C108.496 45.8587 107.504 46.3556 106.459 46.6952C105.444 47.0474 104.38 47.2296 103.31 47.2351V47.2351ZM99.5021 35.9344H105.698C105.698 34.9266 105.478 34.1107 105.04 33.4867C104.602 32.8636 103.863 32.5516 102.825 32.5516C102.036 32.5443 101.272 32.8387 100.679 33.3789C100.079 33.931 99.6867 34.7828 99.5021 35.9352V35.9344ZM113.542 46.8039V21.5743H118.491V36.0422H118.63L124.065 28.9524H129.603L123.58 36.2945L130.053 46.8039H124.549L120.673 39.857L118.491 42.4133V46.8039H113.542ZM136.495 47.2351C135.711 47.2351 134.994 47.0913 134.349 46.8039C133.747 46.5549 133.204 46.1741 132.756 45.6874C132.316 45.1793 131.964 44.5947 131.718 43.9601C131.487 43.3125 131.372 42.6044 131.372 41.8367C131.372 39.9656 132.134 38.5021 133.657 37.4461C135.18 36.3901 137.637 35.682 141.03 35.3227C140.983 34.5305 140.753 33.9073 140.338 33.4508C139.945 32.9714 139.276 32.7313 138.33 32.7313C137.591 32.7313 136.853 32.875 136.115 33.1633C135.399 33.4508 134.626 33.8469 133.795 34.3508L131.96 30.8594C133.054 30.1709 134.214 29.6042 135.422 29.1688C136.671 28.7323 137.981 28.5132 139.299 28.5203C141.514 28.5203 143.198 29.1802 144.353 30.5C145.53 31.7953 146.118 33.8232 146.118 36.582V46.8039H141.964L141.619 44.9679H141.48C140.774 45.6161 139.995 46.172 139.16 46.6234C138.353 47.0317 137.464 47.2359 136.495 47.2359V47.2351ZM138.226 43.1328C138.803 43.1328 139.299 43.0005 139.714 42.7367C140.13 42.4729 140.568 42.1005 141.03 41.6211V38.4898C139.23 38.7536 137.983 39.1375 137.291 39.6414C136.599 40.1453 136.253 40.7448 136.253 41.4406C136.253 42.0172 136.426 42.4484 136.771 42.7367C137.14 43.0005 137.625 43.1328 138.226 43.1328Z" fill="#1C257B"/>
</g>
<defs>
<clipPath id="clip0_337_958">
<rect width="146" height="32" fill="white" transform="translate(45 21.5)"/>
</clipPath>
</defs>
</svg>
