<svg width="236" height="75" viewBox="0 0 236 75" fill="none" xmlns="http://www.w3.org/2000/svg">
<g clip-path="url(#clip0_337_976)">
<path d="M83.8585 25.8012C81.1066 23.4629 77.5659 22 73.6344 22C64.9805 22 58 28.9211 58 37.5C58 46.0789 64.9805 53 73.6337 53C77.5666 53 81.1059 51.5378 83.8593 49.1988V52.3173H89.4634V22.5846H83.8585V25.8019V25.8012ZM73.7317 47.8333C68.3083 47.8333 63.8537 43.3398 63.8537 37.869C63.8537 32.3983 68.3083 27.9048 73.7317 27.9048C79.1551 27.9048 83.6098 32.3983 83.6098 37.869C83.6098 43.4372 79.1551 47.8333 73.7317 47.8333ZM107.171 47.4436C110.195 47.4436 112.927 46.0781 114.683 43.934L118 48.5161C115.269 51.343 111.366 53 107.171 53C98.5856 53 91.6585 46.0789 91.6585 37.5C91.6585 28.9211 98.5856 22 107.171 22C111.366 22 115.17 23.7545 118 26.4839L114.683 31.066C112.927 28.9211 110.195 27.5564 107.171 27.5564C101.61 27.5564 97.2195 32.041 97.2195 37.5C97.2195 43.0564 101.707 47.4436 107.171 47.4436ZM172.395 22.5846V25.8019C169.642 23.4622 166.102 22 162.17 22C153.517 22 146.537 28.9211 146.537 37.5C146.537 46.0789 153.517 53 162.17 53C166.103 53 169.642 51.5378 172.396 49.1988V52.3173H178V22.5846H172.395ZM162.268 47.8333C156.845 47.8333 152.39 43.3398 152.39 37.869C152.39 32.3983 156.845 27.9048 162.268 27.9048C167.692 27.9048 172.146 32.3983 172.146 37.869C172.146 43.4372 167.692 47.8333 162.268 47.8333ZM138.757 34.741V22.7381H144.341V52.2619H138.757V40.259H126.511V52.2619H120.927V22.7381H126.511V34.741H138.757V34.741Z" fill="#50BE14"/>
</g>
<defs>
<clipPath id="clip0_337_976">
<rect width="120" height="31" fill="white" transform="translate(58 22)"/>
</clipPath>
</defs>
</svg>
