<svg width="236" height="75" viewBox="0 0 236 75" fill="none" xmlns="http://www.w3.org/2000/svg">
<g clip-path="url(#clip0_337_962)">
<path fill-rule="evenodd" clip-rule="evenodd" d="M42.6289 37.5243C42.6289 26.1972 51.9101 17 63.4005 17C74.8918 17 84.3203 26.1487 84.3203 37.4757C84.3203 48.8028 74.9897 58 63.4993 58C57.9991 58 52.9416 55.8702 49.2089 52.3847L57.9991 44.6399C59.5216 45.8016 61.4363 46.4793 63.4993 46.4793C68.5075 46.4793 72.5839 42.4616 72.5839 37.5243C72.5839 32.5867 68.5075 28.5691 63.4993 28.5691C58.4902 28.5691 54.4147 32.5867 54.4147 37.5243C54.4147 39.2184 54.8563 40.7674 55.6912 42.1227L46.8516 49.8679C44.1998 46.4309 42.6289 42.1713 42.6289 37.5243ZM67.2823 42.6458C67.0323 42.3632 67.0817 41.892 67.3822 41.6566C68.7817 40.6203 69.5812 39.0189 69.5309 37.3233C69.5309 35.8161 68.8815 34.3559 67.7321 33.3199C67.4316 33.0371 67.4316 32.6132 67.7321 32.3307C68.0315 32.0482 68.4812 32.0482 68.7817 32.3307C70.2306 33.6495 71.0301 35.4392 71.0301 37.3233C71.0301 39.4429 70.0814 41.421 68.3319 42.7399C68.2322 42.8342 68.0315 42.8812 67.8823 42.8812C67.6322 42.8812 67.4316 42.8342 67.2823 42.6458Z" fill="#2CB143"/>
<path fill-rule="evenodd" clip-rule="evenodd" d="M94.2529 48.3918V26.4754H97.9779V36.2126H102.626C103.008 33.3321 104.218 30.9526 106.224 29.0428C108.229 27.1642 110.553 26.225 113.228 26.225C115.998 26.225 118.322 27.2582 120.136 29.2933C121.951 31.3284 122.874 33.8957 122.874 36.9326C122.874 40.2201 121.824 42.9753 119.754 45.2296C117.653 47.5151 115.138 48.6422 112.177 48.6422C109.471 48.6422 107.179 47.6404 105.364 45.6679C103.549 43.6955 102.594 41.2533 102.531 38.279H97.9779V48.3918H94.2529ZM106.351 36.6196C106.351 39.2808 106.988 41.5351 108.293 43.3823C109.599 45.2296 111.191 46.1688 113.101 46.1688C114.852 46.1688 116.284 45.4175 117.399 43.9459C118.513 42.4744 119.054 40.5645 119.054 38.2476C119.054 35.5864 118.386 33.3008 117.08 31.4536C115.775 29.6063 114.151 28.6984 112.241 28.6984C110.49 28.6984 109.089 29.4498 108.007 30.9213C106.893 32.3929 106.351 34.3027 106.351 36.6196ZM140.067 33.3634H125.04V35.5238L130.77 35.3672V48.3918H134.336V35.3672L140.067 35.5238V33.3634ZM145.574 41.4725C145.733 42.9753 146.307 44.1024 147.23 44.8538C148.153 45.6366 149.427 46.0123 150.987 46.0123C151.974 46.0123 152.897 45.887 153.788 45.6366C154.648 45.3861 155.285 45.1356 155.698 44.8852L156.303 44.4782V46.4819C156.24 46.5446 156.144 46.6072 156.049 46.7011C155.921 46.795 155.667 46.9829 155.253 47.2334C154.839 47.4838 154.425 47.703 153.979 47.8908C153.502 48.0787 152.929 48.2352 152.196 48.4231C151.464 48.5796 150.7 48.6422 149.936 48.6422C147.485 48.6422 145.511 47.9534 144.046 46.5446C142.55 45.1356 141.818 43.3823 141.818 41.222C141.818 38.9364 142.645 36.9953 144.269 35.4298C145.893 33.8957 147.867 33.1129 150.254 33.1129C152.419 33.1129 154.075 33.8017 155.221 35.1793C156.335 36.557 156.908 38.4668 156.908 40.9402L155.953 41.4725H145.574ZM149.776 35.43C148.662 35.43 147.707 35.8057 146.975 36.5258C146.242 37.2459 145.765 38.2478 145.606 39.5002H153.629C153.215 36.7762 151.909 35.43 149.776 35.43ZM163.944 33.3634H160.729V48.3918H164.295V41.8482L165.632 41.6291L170.948 48.3918H174.96L168.37 39.9071L174.037 33.3634H171.14L165.791 39.6252L164.295 39.8445V34.1462L163.944 33.3634ZM189.763 38.0285V45.1043C189.763 45.8558 190.082 46.2314 190.75 46.2314C190.973 46.2314 191.26 46.1688 191.546 46.0749C191.833 45.981 192.087 45.9184 192.247 45.8244L192.533 45.6679V47.5464C191.61 48.2666 190.432 48.6422 188.999 48.6422C187.439 48.6422 186.516 48.0161 186.261 46.7637C184.924 48.0161 183.269 48.6422 181.295 48.6422C179.83 48.6422 178.716 48.2666 177.984 47.5464C177.251 46.8263 176.869 45.9497 176.869 44.8852C176.869 44.2277 177.029 43.6328 177.315 43.1006C177.602 42.5683 177.984 42.0986 178.461 41.723C178.907 41.3786 179.448 41.0342 180.085 40.7524C180.722 40.4706 181.327 40.2514 181.9 40.0949C182.441 39.9383 183.046 39.8131 183.714 39.6878C184.383 39.5939 184.86 39.5 185.211 39.4687C185.561 39.4374 185.879 39.4374 186.198 39.4061V38.686C186.198 37.7154 185.879 36.964 185.242 36.4004C184.574 35.8681 183.619 35.5864 182.345 35.5864C181.518 35.5864 180.722 35.7116 179.989 35.9308C179.225 36.1812 178.684 36.4317 178.334 36.6822L177.824 37.0266V35.1167C177.888 35.0541 177.984 34.9915 178.079 34.8976C178.175 34.8036 178.429 34.6471 178.843 34.4279C179.225 34.2088 179.639 33.9896 180.085 33.8017C180.531 33.6452 181.104 33.4887 181.804 33.3321C182.504 33.1756 183.237 33.1129 184.001 33.1129C185.943 33.1129 187.376 33.5513 188.331 34.3966C189.286 35.242 189.763 36.463 189.763 38.0285ZM180.467 44.2589C180.467 44.8537 180.69 45.3548 181.167 45.7304C181.645 46.1374 182.25 46.3253 183.046 46.3253C184.16 46.3253 185.211 45.9183 186.198 45.1355V41.1593C185.752 41.1906 185.274 41.222 184.797 41.3158C184.287 41.4097 183.682 41.535 182.95 41.7229C182.218 41.942 181.645 42.2552 181.167 42.6934C180.69 43.1317 180.467 43.664 180.467 44.2589Z" fill="#212121"/>
</g>
<defs>
<clipPath id="clip0_337_962">
<rect width="151" height="41" fill="white" transform="translate(42.5 17)"/>
</clipPath>
</defs>
</svg>
