<svg width="236" height="75" viewBox="0 0 236 75" fill="none" xmlns="http://www.w3.org/2000/svg">
<path d="M212.957 25.7231C211.081 23.8233 208.04 23.8233 206.164 25.7231L203.775 28.1436L201.385 25.7231C199.509 23.8233 196.469 23.8233 194.593 25.7231C192.718 27.6229 192.718 30.7036 194.593 32.6034L196.982 35.0239L203.775 41.9043L212.957 32.6034C214.832 30.7036 214.832 27.6247 212.957 25.7231Z" fill="#FF5B00"/>
<path d="M34.3545 36.9703C34.3545 40.5976 31.1212 42.4276 26.5574 42.4276C20.8838 42.4295 18.6336 39.732 18 36.1029H22.5964C22.9458 38.1898 24.1804 38.9288 26.4632 38.9288C28.7768 38.9288 29.7598 38.0944 29.7598 36.6494C29.7598 35.5894 29.2529 34.7551 27.2235 34.7551H24.3072V31.2232H26.7475C28.6483 31.2232 29.2204 30.6126 29.2204 29.4903C29.2204 28.2709 28.46 27.4035 26.2406 27.4035C24.6873 27.4035 23.2934 27.8528 22.944 29.6829H18.3494C18.9196 26.5691 21.0106 24 26.3039 24C30.6776 24 33.7842 25.7971 33.7842 29.1694C33.7842 30.9665 32.8971 32.0594 31.6281 32.7013C33.3406 33.4073 34.3545 34.9165 34.3545 36.9703Z" fill="#007FDB"/>
<path d="M57.4593 37.7096V46.5063H52.9263V42.0428H39.8359V46.5063H35.3047V37.7096H38.4111C39.014 37.1961 39.3941 36.1693 39.6784 34.3703L41.2624 24.3854H54.2895V37.7096H57.4593ZM49.7564 37.7096V28.7204H45.1292L44.1789 34.5958C43.9561 36.0409 43.6393 37.0036 43.1959 37.7096H49.7564Z" fill="#007FDB"/>
<path d="M77.3161 33.2147C77.3161 38.6409 73.8928 42.4295 69.3598 42.4295C66.8869 42.4295 65.0802 41.3384 63.8455 39.6678V50.0708H59.3125V24.3851H63.8455V26.857C65.0512 25.1553 66.9213 24 69.3616 24C73.8294 24 77.3161 27.7556 77.3161 33.2147ZM72.7215 33.2147C72.7215 30.3247 70.8515 28.3662 68.3152 28.3662C65.779 28.3662 63.8455 30.3247 63.8455 33.2147C63.8455 36.1359 65.779 38.0633 68.3152 38.0633C70.8189 38.0614 72.7215 36.1359 72.7215 33.2147Z" fill="#007FDB"/>
<path d="M96.9865 24.3851L96.9539 42.0425H92.4209V39.6678C91.217 41.3365 89.4103 42.4295 86.97 42.4295C82.4062 42.4295 79.0137 38.6409 79.0137 33.2147C79.0155 27.7556 82.4696 24 86.9392 24C89.4121 24 91.2496 25.1553 92.4535 26.857V24.3851H96.9865ZM92.4535 33.2147C92.4535 30.3247 90.52 28.3662 87.9838 28.3662C85.4476 28.3662 83.5775 30.3247 83.5775 33.2147C83.5775 36.1359 85.4783 38.0633 87.9838 38.0633C90.52 38.0614 92.4535 36.1359 92.4535 33.2147Z" fill="#007FDB"/>
<path d="M114.739 36.9394C114.739 40.5666 111.981 42.0446 108.398 42.0446H99.1748V24.3854H107.605C111.092 24.3854 113.849 25.3169 113.849 28.8488C113.849 30.6789 112.899 31.6416 111.599 32.509C113.629 33.1178 114.739 34.6912 114.739 36.9394ZM107.227 27.9814H103.71V31.3849H107.227C108.78 31.3849 109.288 30.8073 109.288 29.7162C109.288 28.5591 108.78 27.9814 107.227 27.9814ZM110.143 36.5213C110.143 35.2689 109.573 34.66 108.051 34.66H103.708V38.4486H108.051C109.635 38.4486 110.143 37.805 110.143 36.5213Z" fill="#007FDB"/>
<path d="M116.065 33.2147C116.065 27.9811 119.9 24 125.161 24C129.407 24 133.18 26.6003 133.845 31.0949H129.185C128.645 29.1694 126.998 28.2379 125.159 28.2379C122.402 28.2379 120.625 30.2935 120.658 33.2147C120.625 36.1689 122.465 38.1916 125.128 38.1916C126.998 38.1916 128.645 37.2289 129.185 35.3015H133.845C133.148 39.9576 129.312 42.4295 125.128 42.4295C119.9 42.4295 116.065 38.4484 116.065 33.2147Z" fill="#007FDB"/>
<path d="M152.34 24.3854V42.0428H147.807V35.7823L148.093 30.5487L140.899 42.0428H135.669V24.3854H140.202V30.6459L139.979 35.8153L147.143 24.3854H152.34Z" fill="#007FDB"/>
<path d="M169.455 28.7204H164.068V42.0446H159.535V28.7204H154.178V24.3854H164.066H169.453V28.7204H169.455Z" fill="#007FDB"/>
<path d="M187.9 24.3854V42.0428H183.368V35.7823L183.654 30.5487L176.459 42.0428H171.229V24.3854H175.762V30.6459L175.54 35.8153L182.703 24.3854H187.9Z" fill="#007FDB"/>
<path d="M196.982 35.0261L194.592 32.6055C192.717 30.7057 192.717 27.6249 194.592 25.7251C196.468 23.8253 199.509 23.8253 201.385 25.7251L203.774 28.1457L196.982 35.0261Z" fill="#FF8150"/>
</svg>
