<svg width="236" height="75" viewBox="0 0 236 75" fill="none" xmlns="http://www.w3.org/2000/svg">
<g clip-path="url(#clip0_337_969)">
<path fill-rule="evenodd" clip-rule="evenodd" d="M89.1328 23V33.2354H79.2764V41.7654H89.132V52H97.6286V41.7654H107.484V33.2346H97.6294V23H89.1328Z" fill="#1DD3A2"/>
<path fill-rule="evenodd" clip-rule="evenodd" d="M33.9031 29.4774C35.0642 29.4813 36.1764 29.947 36.9965 30.7729C37.8166 31.5987 38.2777 32.7172 38.279 33.8838C38.279 35.0841 37.8003 36.1732 37.0243 36.9683C37.7244 37.3715 38.3063 37.9533 38.711 38.6549C39.1157 39.3565 39.329 40.1529 39.3292 40.9638C39.3282 42.1861 38.8442 43.358 37.9837 44.222C37.1233 45.086 35.9566 45.5714 34.7401 45.5716H25V29.4911H29.0391C29.1545 29.4815 29.2716 29.4774 29.3902 29.4774H33.9031ZM33.4598 38.8879H28.9782V42.2068H33.4598C33.8978 42.2066 34.3179 42.0317 34.6277 41.7206C34.9375 41.4095 35.1117 40.9875 35.1121 40.5474C35.1121 39.6315 34.3722 38.8879 33.4598 38.8879V38.8879ZM34.2615 34.2205C34.2611 33.8234 34.1038 33.4427 33.8242 33.1621C33.5446 32.8815 33.1655 32.7238 32.7703 32.7238H28.9782V35.7173H32.7703C33.1657 35.7173 33.5448 35.5595 33.8245 35.2787C34.1041 34.9979 34.2613 34.617 34.2615 34.2197V34.2205ZM55.69 32.1333C54.8956 31.1586 53.8956 30.3734 52.7623 29.8345C51.6289 29.2956 50.3906 29.0166 49.1367 29.0175C44.4594 29.0175 40.6625 32.8293 40.6625 37.5241C40.6625 42.2205 44.4594 46.0316 49.1367 46.0316C51.8217 46.0316 54.2164 44.7749 55.7694 42.8166L52.9216 40.317C52.0959 41.4448 50.7859 42.1722 49.3139 42.1722C46.8173 42.1722 44.7914 40.0785 44.7914 37.5C44.7914 34.9214 46.8173 32.8277 49.3139 32.8277C50.769 32.8277 52.0654 33.5398 52.8928 34.6443L55.69 32.1333V32.1333ZM57.8915 29.4847H69.9094V33.1798H61.9723V35.677H69.0323V39.3721H61.9731V41.8693H70.0665V45.5644H57.8915V29.4847ZM179.813 29.4847H183.86V35.685H185.334L189.539 29.4847H194.047L188.615 37.4943L194.078 45.5644H189.384L185.419 39.7064H183.86V45.5644H179.812L179.813 29.4847ZM165.402 29.4847H177.42V33.1798H169.483V35.677H176.544V39.3721H169.484V41.8693H177.577V45.5644H165.402V29.4847ZM131.94 45.5636H127.385L126.461 43.3298H119.567L118.644 45.5644H114.088L120.737 29.4847H125.292L131.94 45.5636V45.5636ZM120.866 39.5235H125.185L123.025 34.3011L120.866 39.5235ZM133.49 29.4847H147.873V45.5644H143.792V33.5382H137.571V45.5652H133.49V29.4847ZM163.214 33.1798H158.705V45.5644H154.624V33.1798H150.115V29.4847H163.215L163.214 33.1798Z" fill="black"/>
<mask id="mask0_337_969" style="mask-type:alpha" maskUnits="userSpaceOnUse" x="195" y="29" width="16" height="17">
<path d="M195.79 29.4847H210.804V45.5636H195.79V29.4847Z" fill="white"/>
</mask>
<g mask="url(#mask0_337_969)">
<path fill-rule="evenodd" clip-rule="evenodd" d="M195.79 45.5636H199.871L206.723 36.1926V45.5644H210.805V29.4847H206.724L199.917 38.7913L199.872 38.8638V29.4855H195.791L195.79 45.5636Z" fill="black"/>
</g>
</g>
<defs>
<clipPath id="clip0_337_969">
<rect width="186" height="29" fill="white" transform="translate(25 23)"/>
</clipPath>
</defs>
</svg>
