<svg width="236" height="75" viewBox="0 0 236 75" fill="none" xmlns="http://www.w3.org/2000/svg">
<path d="M50.8298 31.1601H51.5135C53.825 31.1601 55.7025 33.0471 55.7025 35.3704V40.5405C55.7025 42.8639 53.825 44.7509 51.5135 44.7509H46.0222C44.72 44.7509 44.1014 45.4162 44.1014 46.6815V52.2007C44.1014 54.5239 42.2239 56.411 39.9124 56.411H34.7684C32.4568 56.411 30.5794 54.5239 30.5794 52.2007C30.5794 52.2007 30.5794 48.0668 30.5794 46.6815C30.5794 45.3072 29.9065 44.7509 28.6477 44.7509H23.189C20.8774 44.7399 19 42.853 19 40.5296V35.3595C19 33.0362 20.8774 31.1493 23.189 31.1493H28.6694C29.8848 31.1493 30.6011 30.462 30.6011 29.1859V23.7103C30.6011 21.387 32.4785 19.5 34.7901 19.5H39.9341C42.2456 19.5 44.1231 21.387 44.1231 23.7103V29.1967C44.1231 30.5384 44.6114 31.1601 46.0113 31.1601H46.9772L44.1556 35.0323C41.996 34.8577 40.2705 33.0362 40.2705 30.822V25.3246C40.2705 23.983 39.7605 23.3721 38.3279 23.3721H36.3746C35.159 23.3721 34.4536 24.0267 34.4536 25.3246V30.822C34.4536 33.1452 32.5762 35.0323 30.2646 35.0323H24.7951C23.3843 35.0323 22.8526 35.9594 22.8526 36.9957V38.9372C22.8526 40.1043 23.558 40.8787 24.7734 40.8787H30.2646C32.5762 40.8787 34.4536 42.7657 34.4536 45.089V50.5972C34.4536 51.8407 35.0722 52.5388 36.3529 52.5388H38.3171C39.5325 52.5388 40.2596 51.7971 40.2596 50.5754V45.089C40.2596 42.7657 42.137 40.8787 44.4486 40.8787H49.9399C51.2638 40.8787 51.8607 40.2025 51.8607 38.9154V36.9738C51.8607 35.6431 51.1662 35.0323 49.8965 35.0323H48.0081L50.8298 31.1601Z" fill="url(#paint0_linear_337_960)"/>
<path d="M98.9232 27.2707L107.666 48.6402H103.628L101.595 43.5721H91.8505L89.8468 48.6402H85.9951L94.6114 27.2707H98.9232ZM93.2161 40.064H100.2L96.7116 31.3012L93.2161 40.064Z" fill="#8168F0"/>
<path d="M125.782 30.7862H114.464V48.6402H110.672V27.2707H129.582V48.6402H125.789V30.7862H125.782Z" fill="#8168F0"/>
<path d="M150.757 30.7861H143.595V48.6401H139.803V30.7861H132.76V27.278H150.757V30.7861Z" fill="#8168F0"/>
<path d="M167.513 39.3922H157.739V45.1321H168.967V48.6402H153.947V27.2707H168.634V30.7788H157.739V35.8767H167.513V39.3922Z" fill="#8168F0"/>
<path d="M82.7909 39.3922H73.0169V45.1321H84.2454V48.6402H69.2246V27.2707H83.9115V30.7788H73.0169V35.8767H82.7909V39.3922Z" fill="#8168F0"/>
<path d="M177.279 48.6402H173.486V27.2707H177.279V36.2425H180.463L187.29 27.2707H191.907L183.802 37.4366L193.212 48.6402H188.359L180.648 39.3922H177.279V48.6402Z" fill="#8168F0"/>
<path d="M206.517 27.2707L215.259 48.6402H211.222L209.188 43.5721H199.445L197.44 48.6402H193.589L202.206 27.2707H206.517ZM200.81 40.064H207.793L204.305 31.3012L200.81 40.064Z" fill="#8168F0"/>
<defs>
<linearGradient id="paint0_linear_337_960" x1="29.3103" y1="51.9478" x2="46.0207" y2="23.1509" gradientUnits="userSpaceOnUse">
<stop stop-color="#8168F0"/>
<stop offset="0.137" stop-color="#7F6DF0"/>
<stop offset="0.2924" stop-color="#787AF0"/>
<stop offset="0.4568" stop-color="#6C91F1"/>
<stop offset="0.6273" stop-color="#5DB1F1"/>
<stop offset="0.8012" stop-color="#48D9F2"/>
<stop offset="0.8195" stop-color="#46DEF2"/>
<stop offset="1" stop-color="#50E3C2"/>
</linearGradient>
</defs>
</svg>
