<svg width="100" height="100" viewBox="0 0 100 100" fill="none" xmlns="http://www.w3.org/2000/svg">
<g clip-path="url(#clip0_129_48)">
<path d="M-3.84543e-05 41.0149C0.471297 40.1285 0.854288 39.1973 1.14334 38.2349C1.20786 37.4299 1.13677 36.6198 0.933066 35.8388C0.432384 33.1717 0.841556 30.4125 2.09412 28.0093C3.34668 25.6061 5.36906 23.7 7.83279 22.6006C8.16252 22.4228 8.41187 22.1243 8.52933 21.7666C10.1327 17.2259 12.9977 15.1475 17.8078 15.1475C18.0014 15.1506 18.1936 15.1135 18.3722 15.0383C18.5509 14.9631 18.7122 14.8516 18.8461 14.7107C20.8568 11.5468 23.919 10.2362 27.4149 9.68018C28.348 9.53457 29.2942 9.56106 30.2273 9.45516C30.6069 9.43122 30.9821 9.36007 31.3444 9.24334C33.1975 8.55496 35.0243 7.80039 36.9036 7.1782C37.15 7.09113 37.4118 7.05675 37.6721 7.07724C37.9324 7.09773 38.1856 7.17262 38.4156 7.29717C38.6456 7.42173 38.8473 7.59319 39.0079 7.80063C39.1684 8.00808 39.2843 8.24695 39.3481 8.50201C39.4222 8.74709 39.4469 9.00463 39.4207 9.25946C39.3944 9.5143 39.3178 9.76127 39.1953 9.98581C39.0729 10.2103 38.907 10.4079 38.7075 10.5669C38.508 10.7258 38.279 10.843 38.0339 10.9114C36.8248 11.3482 35.5894 11.7321 34.3277 12.1425L36.3122 16.4581C37.4817 16.2569 38.6624 16.1287 39.8475 16.0742C41.2082 16.0422 42.5473 16.4209 43.6926 17.1616C44.8378 17.9024 45.7369 18.9713 46.2741 20.231C46.5158 20.6893 46.5672 21.2254 46.4169 21.7218C46.2666 22.2182 45.9269 22.6342 45.4724 22.8786C45.2456 23.0047 44.9954 23.0826 44.7375 23.1074C44.4796 23.1322 44.2193 23.1033 43.9729 23.0227C43.7265 22.942 43.4991 22.8112 43.3049 22.6384C43.1107 22.4656 42.9538 22.2545 42.844 22.0181C41.5297 19.3705 39.1115 19.7412 37.1402 20.5487C36.9431 20.6414 36.8379 21.0518 36.7459 21.343C36.4042 22.455 36.1677 23.62 35.734 24.7055C35.6358 24.9523 35.487 25.1755 35.2975 25.3606C35.108 25.5457 34.8818 25.6884 34.6339 25.7796C34.3859 25.8708 34.1216 25.9083 33.8583 25.8898C33.5949 25.8712 33.3384 25.7969 33.1055 25.6719C32.8716 25.569 32.6606 25.4198 32.485 25.2333C32.3094 25.0467 32.1728 24.8265 32.0834 24.5857C31.9939 24.3449 31.9533 24.0885 31.9641 23.8316C31.9749 23.5748 32.0368 23.3227 32.1461 23.0904C33.6838 19.6617 32.4615 16.7229 30.6216 13.8237C30.5285 13.7061 30.4107 13.6106 30.2766 13.5442C30.1426 13.4779 29.9956 13.4422 29.8462 13.4399C28.1502 13.6995 26.4763 14.0889 24.839 14.6048C24.0965 14.862 23.4286 15.2999 22.8944 15.8795C22.3602 16.4592 21.9764 17.1627 21.7768 17.9276C21.667 18.383 21.3911 18.7801 21.004 19.0401C20.6168 19.3001 20.1468 19.4039 19.6872 19.3308C19.2666 19.3308 18.8461 19.2381 18.3729 19.1719C17.6542 18.9998 16.907 18.9859 16.1824 19.131C15.4577 19.2761 14.7727 19.577 14.174 20.0129C13.5752 20.4489 13.0768 21.0099 12.7128 21.6575C12.3488 22.3051 12.1277 23.0241 12.0646 23.7656C12.0346 24.1908 11.8817 24.5978 11.6248 24.9365C11.368 25.2753 11.0183 25.5309 10.619 25.6719C5.36204 27.5385 3.87695 31.7217 5.09918 36.8316C5.28324 37.382 5.33633 37.9683 5.25415 38.5432C5.17197 39.1181 4.95681 39.6654 4.62606 40.1412C3.69295 41.465 3.31182 43.0536 5.2306 44.2979C5.46909 44.5052 5.65798 44.7641 5.78315 45.0552C5.90832 45.3463 5.96653 45.6622 5.95344 45.9792C5.58545 50.03 7.70136 52.36 11.1052 53.8559C13.4773 54.8622 16.0011 55.4575 18.5701 55.6165C19.119 55.5893 19.6623 55.4915 20.1866 55.3253C20.5153 55.2209 20.865 55.2023 21.2028 55.2711C21.5406 55.34 21.8556 55.494 22.1182 55.7189C22.3808 55.9437 22.5825 56.232 22.7044 56.5568C22.8263 56.8816 22.8643 57.2322 22.8151 57.5758C22.6022 59.4409 23.0007 61.3249 23.9498 62.9406C24.8989 64.5563 26.3465 65.815 28.072 66.5247C31.1709 67.8354 34.5434 68.3538 37.8893 68.0339C41.5034 67.9015 44.881 66.7101 48.4032 66.0482C51.2813 65.5584 54.1727 65.1215 57.0771 64.7244C58.5753 64.5523 59.4427 65.2539 59.5347 66.4453C59.6267 67.6368 58.917 68.4311 57.3925 68.6694C53.8967 69.2121 50.4139 69.8211 46.8787 70.4036C46.627 70.473 46.381 70.5614 46.1427 70.6683C51.0842 76.4269 52.7138 83.5225 54.4224 90.6711L59.5084 89.8239C59.4033 88.884 59.2587 88.0235 59.2193 87.1763C59.1405 85.7697 59.1405 84.3598 59.2193 82.9533C59.3902 80.8881 60.5335 80.2262 62.4523 81.0602C65.2473 82.3334 68.2974 82.9361 71.3628 82.8209C74.4162 82.819 77.3813 81.7892 79.7871 79.8953C81.3004 78.6729 82.3076 76.9268 82.6126 74.9972C82.6851 74.7337 82.6675 74.4534 82.5626 74.2012C82.4577 73.9491 82.2717 73.7399 82.0344 73.6072C79.4562 71.8827 76.6084 70.6072 73.6102 69.8343L72.861 69.6357C72.5853 69.5961 72.3209 69.4985 72.0851 69.3491C71.8493 69.1998 71.6473 69.0022 71.4923 68.769C71.3373 68.5359 71.2328 68.2725 71.1855 67.996C71.1383 67.7195 71.1493 67.4361 71.218 67.1642C71.2866 66.8922 71.4113 66.6379 71.584 66.4177C71.7566 66.1976 71.9734 66.0165 72.2201 65.8862C72.4668 65.756 72.738 65.6795 73.016 65.6618C73.294 65.6441 73.5725 65.6855 73.8336 65.7834C75.0033 66.0747 76.1466 66.4188 77.29 66.816C80.0655 67.7603 82.6774 69.1361 85.0309 70.8934C85.3179 71.0837 85.6616 71.168 86.0034 71.1316C88.1815 70.8041 90.1522 69.6481 91.51 67.9015C93.5598 65.1969 94.8816 62.005 95.3476 58.6348C96.235 55.1916 96.1942 51.5723 95.2293 48.1502C94.6372 46.2672 93.5522 44.5797 92.0883 43.2654C91.8865 43.0562 91.6305 42.9082 91.3495 42.838C91.0684 42.7678 90.7735 42.7783 90.498 42.8682C89.4701 43.0451 88.528 43.5564 87.816 44.3238C87.1039 45.0913 86.6611 46.0726 86.5554 47.1176C86.5205 47.5803 86.3248 48.0158 86.0027 48.3475C85.6806 48.6792 85.2527 48.8859 84.7943 48.9313C84.3702 48.9857 83.9404 48.8919 83.5767 48.6653C83.2131 48.4388 82.9377 48.0934 82.7966 47.6869C82.6653 47.0807 82.6653 46.453 82.7966 45.8468C83.1178 44.0917 83.9759 42.4818 85.2509 41.2426C86.5259 40.0034 88.1539 39.197 89.9066 38.9365C90.8003 38.7776 91.2209 38.4599 91.1289 37.4935C91.1427 36.709 90.9596 35.9337 90.5966 35.2394C90.2337 34.5451 89.7025 33.9544 89.0524 33.5221C88.6968 33.2928 88.4013 32.9806 88.1908 32.6119C87.9803 32.2432 87.8611 31.8289 87.8433 31.404C87.7875 30.757 87.5454 30.1405 87.1468 29.6301C85.9949 28.2471 84.3686 27.3513 82.591 27.1207C80.8135 26.8902 79.015 27.3417 77.5529 28.3857C76.9236 28.8954 76.3895 29.514 75.9758 30.2126C75.8512 30.4521 75.6809 30.6646 75.4745 30.8376C75.2682 31.0107 75.03 31.1409 74.7735 31.2209C74.517 31.3009 74.2473 31.329 73.98 31.3036C73.7127 31.2782 73.453 31.1998 73.2159 31.073C72.974 30.9369 72.7633 30.751 72.5976 30.5273C72.4318 30.3036 72.3147 30.0473 72.254 29.7749C72.1932 29.5026 72.1901 29.2205 72.2449 28.9469C72.2997 28.6733 72.4111 28.4144 72.5719 28.1871C73.3421 26.7728 74.4515 25.5751 75.799 24.7034C77.1465 23.8316 78.6892 23.3136 80.2865 23.1964L81.2984 23.0772C81.1452 21.8955 80.7053 20.7701 80.0176 19.8004C79.33 18.8306 78.4157 18.0465 77.3557 17.5172C74.9513 16.3261 72.2729 15.8094 69.6018 16.0213C69.1315 16.11 68.6453 16.0336 68.2243 15.8047C67.8033 15.5758 67.4731 15.2083 67.2887 14.7637C66.9577 13.9373 66.3866 13.231 65.6502 12.7373C64.9138 12.2436 64.0465 11.9855 63.162 11.9969C62.0318 11.9042 60.8884 12.1028 59.7581 12.116C59.0839 12.15 58.4081 12.0966 57.7474 11.9571C56.0783 11.5468 54.4355 11.0305 52.7664 10.6333C51.4522 10.2759 50.6768 9.30952 50.9134 8.19752C50.9713 7.92278 51.0862 7.66344 51.2503 7.43639C51.4145 7.20935 51.6243 7.0197 51.8661 6.87981C52.1079 6.73992 52.3762 6.65294 52.6536 6.62452C52.9311 6.5961 53.2113 6.62687 53.4761 6.71485C54.7847 6.95829 56.0755 7.28999 57.34 7.70772C58.4512 8.06447 59.6272 8.16847 60.7832 8.01221C63.1251 7.74042 65.4932 8.2027 67.5647 9.33602C68.1928 9.61757 68.7465 10.0438 69.1812 10.5804C69.5333 11.111 70.0201 11.5369 70.591 11.814C71.1618 12.091 71.7959 12.209 72.4273 12.1558C74.7779 12.2597 77.0762 12.8882 79.1562 13.9958C80.8075 14.8279 82.2286 16.0589 83.2926 17.5788C84.3567 19.0987 85.0306 20.8604 85.2543 22.7065C85.2738 23.0387 85.3884 23.358 85.5844 23.6258C85.7803 23.8936 86.0491 24.0985 86.3582 24.2157C88.9867 25.5395 91.142 27.2472 91.7991 30.3582C91.7991 30.6362 92.154 30.8877 92.3774 31.0995C93.478 32.1603 94.2903 33.4876 94.7367 34.9546C95.183 36.4216 95.2486 37.9794 94.927 39.4792C94.8767 39.6823 94.8671 39.8934 94.8987 40.1002C94.9303 40.3071 95.0025 40.5055 95.111 40.6839C97.9479 43.4135 99.6288 47.1412 99.8028 51.0891C100.31 57.0391 99.0231 63.0048 96.1098 68.206C95.2099 69.9474 93.9342 71.4637 92.3763 72.6434C90.8185 73.8232 89.0181 74.6365 87.1073 75.0237C86.9677 75.0742 86.8416 75.1568 86.739 75.2647C86.6364 75.3727 86.56 75.5031 86.5159 75.6458C85.2017 82.0134 80.8647 85.0052 75.0427 86.3687C71.4563 87.1635 67.7298 87.0452 64.2002 86.0245L63.0831 85.7466C63.3854 87.5469 63.622 89.1884 63.9374 90.8035C64.2528 92.4185 63.7009 93.3187 62.1763 93.5835L53.8178 94.9735C53.5401 95.0806 53.2417 95.122 52.9456 95.0948C52.6495 95.0675 52.3636 94.9723 52.1098 94.8163C51.8559 94.6603 51.641 94.4478 51.4814 94.1951C51.3218 93.9424 51.2219 93.6562 51.1894 93.3585C50.414 90.7109 49.7568 88.0632 49.034 85.3229C47.9492 80.712 45.7813 76.4309 42.7125 72.8394C42.4584 72.4942 42.1172 72.2239 41.7243 72.0563C41.3315 71.8887 40.9013 71.83 40.4783 71.8862C38.1179 72.1507 35.7397 72.2171 33.3683 72.0848C28.5188 71.6744 24.1687 69.9931 21.0934 65.9423C19.7658 64.1403 18.9523 62.0072 18.7409 59.7733C15.6718 59.5785 12.654 58.8856 9.80414 57.7214C6.51856 56.3182 3.71924 54.2795 2.61528 50.7052C1.95817 48.5606 1.86617 46.2439 0.367945 44.4038C0.190557 44.0948 0.0619754 43.7598 -0.0131836 43.411L-3.84543e-05 41.0149Z" fill="#8A8C8D"/>
<path d="M28.7161 52.5453C29.8968 54.4412 30.4872 56.6496 30.4114 58.8864C30.4313 59.2831 30.3378 59.6773 30.1422 60.0221C29.9465 60.367 29.6569 60.6482 29.3075 60.8324C29.0031 61.0321 28.6412 61.1236 28.2793 61.0924C27.9174 61.0612 27.5762 60.9091 27.3099 60.6603C26.8811 60.1475 26.5793 59.5395 26.4293 58.8864C26.2716 58.3039 26.4293 57.642 26.2979 57.0463C25.7328 53.8956 23.538 52.7571 20.1341 52.8631C19.9633 52.8631 19.8056 52.863 19.6479 52.9292C19.3765 52.9846 19.0968 52.9843 18.8255 52.9285C18.5543 52.8727 18.2969 52.7624 18.0688 52.6043C17.8407 52.4462 17.6465 52.2434 17.4979 52.0082C17.3492 51.7729 17.249 51.5098 17.2034 51.2347C17.1706 50.9641 17.1928 50.6896 17.2686 50.4278C17.3444 50.1661 17.4723 49.9226 17.6443 49.7121C17.8164 49.5017 18.0291 49.3286 18.2696 49.2035C18.5101 49.0784 18.7733 49.0038 19.0433 48.9842C21.011 48.6732 23.0255 48.8972 24.8785 49.6329C25.1282 49.7732 25.4187 49.8208 25.6997 49.7676C25.9806 49.7144 26.2341 49.5637 26.4162 49.3417C27.1672 48.7358 27.7648 47.9591 28.16 47.0754C28.5553 46.1918 28.7368 45.2263 28.6898 44.2583C28.6558 43.9963 28.6782 43.73 28.7555 43.4775C28.8328 43.225 28.9632 42.9923 29.1377 42.7951C29.3123 42.5979 29.527 42.4409 29.7672 42.3347C30.0074 42.2286 30.2675 42.1757 30.5297 42.1799C30.7983 42.1633 31.0673 42.2031 31.3198 42.2966C31.5724 42.3902 31.8029 42.5354 31.9968 42.7233C32.1907 42.9112 32.3438 43.1376 32.4465 43.3881C32.5491 43.6386 32.599 43.9079 32.5931 44.1788C32.7072 45.6037 32.4926 47.0358 31.9659 48.3632C31.4392 49.6906 30.6148 50.8773 29.5572 51.8305C29.3206 52.0688 29.0315 52.2938 28.7161 52.5453Z" fill="#8A8C8D"/>
<path d="M52.9111 44.6818C51.7465 46.6069 49.96 48.07 47.8513 48.8254C47.6014 48.9657 47.325 49.0518 47.0401 49.0781C46.7551 49.1044 46.4678 49.0703 46.1967 48.9781C45.9256 48.8858 45.6767 48.7374 45.466 48.5424C45.2552 48.3473 45.0874 48.1101 44.9732 47.8458C44.5395 46.7205 45.0914 45.8071 46.2874 45.1187C47.316 44.5186 48.2805 43.8132 49.1656 43.0138C49.6518 42.6035 49.6387 42.0871 49.1656 41.5047C47.4386 39.6531 46.2399 37.3663 45.696 34.8856C45.6088 34.6312 45.5739 34.3616 45.5933 34.0932C45.6128 33.8248 45.6862 33.5632 45.8091 33.3242C45.932 33.0852 46.1019 32.874 46.3084 32.7032C46.5148 32.5324 46.7536 32.4056 47.0102 32.3307C47.2767 32.2496 47.5574 32.2276 47.8332 32.2661C48.1089 32.3045 48.3732 32.4025 48.6078 32.5533C48.8424 32.7042 49.0419 32.9044 49.1927 33.1401C49.3434 33.3758 49.4417 33.6417 49.481 33.9192C49.9848 36.1016 51.1627 38.0668 52.8454 39.5322C54.4846 40.8493 56.5318 41.543 58.628 41.4914C60.0474 41.4914 60.8228 42.1798 60.9279 43.2654C60.9709 43.5605 60.9455 43.8616 60.8536 44.1452C60.7618 44.4288 60.606 44.6871 60.3986 44.8999C60.1911 45.1128 59.9375 45.2743 59.6577 45.372C59.3779 45.4697 59.0795 45.5007 58.7857 45.4629C56.867 45.3437 55.0008 44.9863 52.9111 44.6818Z" fill="#8A8C8D"/>
<path d="M80.8779 58.4495C78.7668 57.5397 77.0053 55.9651 75.8575 53.9618C75.6881 53.7081 75.5796 53.4182 75.5405 53.115C75.5014 52.8118 75.5328 52.5037 75.6322 52.2148C75.7316 51.9259 75.8963 51.6643 76.1133 51.4506C76.3304 51.2368 76.5937 51.0768 76.8826 50.9832C77.3179 50.8413 77.7883 50.8531 78.216 51.0168C78.6437 51.1804 79.0032 51.4861 79.2351 51.8834C79.7376 52.6048 80.3147 53.2705 80.9568 53.8691C81.5523 54.439 82.3026 54.8176 83.1124 54.9567C83.9221 55.0958 84.7547 54.9891 85.504 54.6501C86.3657 54.2675 87.2001 53.8252 88.0011 53.3263C88.4344 53.0281 88.9658 52.9111 89.4832 53C90.0006 53.0889 90.4634 53.3768 90.7741 53.8029C90.9397 54.0208 91.0564 54.2722 91.1159 54.54C91.1755 54.8078 91.1766 55.0854 91.1191 55.3536C91.0616 55.6218 90.9469 55.8742 90.7829 56.0933C90.6189 56.3125 90.4097 56.4931 90.1695 56.6226C88.7714 57.4273 87.3072 58.1093 85.7931 58.6613C85.0703 58.9128 84.6892 59.204 84.5972 59.9851C84.372 60.8959 84.3868 61.8503 84.6404 62.7535C84.894 63.6568 85.3774 64.4776 86.0428 65.1348C86.2469 65.3018 86.4139 65.5101 86.533 65.7463C86.6521 65.9824 86.7206 66.2411 86.7343 66.5056C86.7479 66.7701 86.7063 67.0346 86.6121 67.2819C86.5179 67.5292 86.3732 67.7538 86.1874 67.9412C86.004 68.1414 85.7815 68.3011 85.5338 68.4104C85.2862 68.5196 85.0187 68.576 84.7483 68.576C84.4779 68.576 84.2105 68.5196 83.9628 68.4104C83.7152 68.3011 83.4926 68.1414 83.3092 67.9412C80.6808 65.5187 80.1157 62.4607 80.7728 59.0585C80.8122 58.8864 80.8385 58.6878 80.8779 58.4495Z" fill="#8A8C8D"/>
<path d="M16.5067 37.6127C15.0084 38.4864 13.6811 39.3733 12.2617 40.0617C12.0157 40.2124 11.7395 40.3061 11.4532 40.3362C11.1668 40.3662 10.8774 40.3319 10.6058 40.2357C10.3343 40.1394 10.0873 39.9836 9.88272 39.7796C9.67816 39.5755 9.52113 39.3282 9.42295 39.0556C9.33074 38.7874 9.29515 38.5027 9.31846 38.2199C9.34177 37.937 9.42346 37.6622 9.55831 37.4129C9.69316 37.1637 9.8782 36.9456 10.1016 36.7725C10.3249 36.5995 10.5817 36.4753 10.8555 36.408C11.5234 36.217 12.1459 35.8914 12.6851 35.4508C13.2243 35.0101 13.669 34.4637 13.9922 33.8448C14.3155 33.2258 14.5105 32.5471 14.5654 31.8499C14.6204 31.1527 14.5341 30.4515 14.3119 29.7889C14.198 29.3573 14.1449 28.9116 14.1542 28.4651C14.2104 28.0044 14.4229 27.5775 14.7559 27.2566C15.0888 26.9358 15.5216 26.7407 15.981 26.7045C16.4243 26.6869 16.8606 26.8195 17.2204 27.0811C17.5801 27.3426 17.8424 27.7181 17.9655 28.1474C18.4729 29.8137 18.6032 31.5734 18.3466 33.2971C18.3342 33.4842 18.3658 33.6717 18.4388 33.8442C18.5119 34.0167 18.6244 34.1695 18.7671 34.2899C19.3078 34.6595 19.9333 34.8838 20.5841 34.9417C21.235 34.9996 21.8898 34.8892 22.4864 34.6209C23.0957 34.3979 23.6923 34.1416 24.2738 33.853C24.7272 33.6085 25.2582 33.5548 25.7508 33.7037C26.2434 33.8525 26.6574 34.1918 26.9023 34.6473C27.0312 34.8694 27.1141 35.1154 27.1462 35.3706C27.1782 35.6257 27.1586 35.8848 27.0886 36.1322C27.0187 36.3795 26.8997 36.6101 26.7389 36.8099C26.5781 37.0098 26.3789 37.1747 26.1531 37.295C22.9858 39.1351 19.7003 39.6911 16.5067 37.6127Z" fill="#8A8C8D"/>
<path d="M71.6783 44.5098C71.6038 47.1346 70.8616 49.6963 69.523 51.9496C69.4043 52.1777 69.2417 52.3796 69.0445 52.5435C68.8473 52.7074 68.6196 52.8299 68.3747 52.9039C68.1298 52.9779 67.8728 53.0019 67.6186 52.9744C67.3644 52.9469 67.1182 52.8685 66.8945 52.7439C66.4383 52.4838 66.0975 52.0585 65.9412 51.5545C65.785 51.0504 65.8251 50.5054 66.0534 50.0301C66.698 48.6482 67.1958 47.2016 67.5385 45.7144C68.0642 42.4578 66.5397 39.9558 64.1346 37.9172C63.8455 37.6656 63.5038 37.4671 63.2015 37.2288C62.7827 36.9497 62.4873 36.5183 62.377 36.0248C62.2668 35.5313 62.3503 35.014 62.6101 34.5812C62.7405 34.3521 62.9164 34.1526 63.1267 33.9952C63.3371 33.8377 63.5775 33.7257 63.8328 33.666C64.0881 33.6064 64.3529 33.6005 64.6106 33.6486C64.8684 33.6967 65.1134 33.7979 65.3306 33.9457C66.8961 34.8942 68.2482 36.1611 69.3004 37.6655C70.3527 39.1699 71.082 40.8787 71.4417 42.6829C71.5995 43.3448 71.6258 44.0729 71.6783 44.5098Z" fill="#8A8C8D"/>
<path d="M46.3136 61.9576C44.8548 61.6532 43.3828 61.4148 41.9503 61.0177C41.6759 60.9649 41.4161 60.8532 41.1884 60.6901C40.9607 60.5271 40.7706 60.3166 40.6309 60.0729C40.4913 59.8292 40.4053 59.5581 40.379 59.2779C40.3527 58.9978 40.3866 58.7153 40.4784 58.4495C40.8069 57.364 41.8846 56.9801 43.1857 57.2184C44.6939 57.5639 46.2395 57.7152 47.7855 57.6685C48.7916 57.5384 49.7541 57.1756 50.5978 56.6083C51.4414 56.041 52.1432 55.2847 52.6482 54.3986C52.9849 53.8384 53.4664 53.3808 54.0413 53.0748C54.3884 52.9201 54.7774 52.8882 55.1448 52.9844C55.5123 53.0805 55.8366 53.299 56.0652 53.6044C56.349 53.8828 56.5337 54.2477 56.5908 54.6426C56.6478 55.0375 56.5739 55.4403 56.3806 55.7887C55.5836 57.3541 54.4229 58.7024 52.9973 59.7188C51.5718 60.7353 49.9236 61.3898 48.1929 61.6267C47.5752 61.7193 46.9575 61.7458 46.3399 61.812L46.3136 61.9576Z" fill="#8A8C8D"/>
<path d="M64.2004 23.1699C64.2094 23.6403 64.0577 24.0996 63.7705 24.4708C63.4834 24.8419 63.0784 25.1024 62.6233 25.2085C62.1746 25.308 61.7054 25.2443 61.2988 25.0286C60.8923 24.813 60.5747 24.4594 60.4023 24.0304C60.2183 23.5803 60.1263 23.0904 59.9554 22.6271C58.996 20.0986 56.9195 19.0793 53.8311 19.622C53.5738 19.6972 53.3039 19.7184 53.0382 19.6843C52.7725 19.6502 52.5165 19.5615 52.2862 19.4238C52.0558 19.2861 51.8559 19.1022 51.6989 18.8835C51.542 18.6649 51.4312 18.4161 51.3735 18.1526C51.3061 17.8882 51.2951 17.6124 51.3412 17.3434C51.3873 17.0744 51.4894 16.8182 51.6409 16.5918C51.7924 16.3655 51.9898 16.174 52.22 16.03C52.4503 15.886 52.7082 15.7928 52.9768 15.7565C57.7869 14.6975 62.8073 16.7361 64.1215 22.8257L64.2004 23.1699Z" fill="#8A8C8D"/>
<path d="M45.1702 5.99998C45.5552 5.99759 45.9324 6.1096 46.2545 6.32196C46.5767 6.53432 46.8295 6.83761 46.9815 7.19395C47.1335 7.55028 47.1777 7.94386 47.1089 8.32542C47.04 8.70697 46.8609 9.05958 46.5941 9.3392C46.3274 9.61882 45.9847 9.81303 45.6089 9.89753C45.2332 9.98202 44.841 9.95309 44.4815 9.8143C44.122 9.67552 43.8111 9.43306 43.5876 9.11725C43.3641 8.80143 43.2381 8.42626 43.2251 8.03866C43.2214 7.51047 43.4227 7.00172 43.7861 6.62088C44.1494 6.24004 44.6461 6.01722 45.1702 5.99998Z" fill="#8A8C8D"/>
<path d="M65.5144 68.6164C65.254 68.6235 64.9948 68.5781 64.752 68.4829C64.5091 68.3878 64.2876 68.2448 64.1004 68.0624C63.9131 67.8799 63.7639 67.6616 63.6614 67.4203C63.5589 67.179 63.5053 66.9196 63.5037 66.6571C63.5171 66.129 63.7323 65.6264 64.1044 65.254C64.4765 64.8817 64.9769 64.6682 65.5013 64.6582C66.0093 64.6649 66.4948 64.8704 66.8553 65.231C67.2158 65.5916 67.423 66.0793 67.4332 66.591C67.4476 66.8529 67.4085 67.1151 67.3184 67.3612C67.2282 67.6074 67.089 67.8323 66.9091 68.0221C66.7293 68.2119 66.5128 68.3626 66.2729 68.4648C66.033 68.567 65.7749 68.6186 65.5144 68.6164Z" fill="#8A8C8D"/>
</g>
<defs>
<clipPath id="clip0_129_48">
<rect width="100" height="89" fill="white" transform="translate(0 6)"/>
</clipPath>
</defs>
</svg>
