<svg width="100" height="100" viewBox="0 0 100 100" fill="none" xmlns="http://www.w3.org/2000/svg">
<g clip-path="url(#clip0_129_59)">
<path d="M8.38041e-05 48.7602C0.31767 46.9876 0.502943 45.1756 0.96609 43.5081C4.73743 29.3667 13.8416 20.53 28.0933 16.906C32.5931 15.9809 37.2153 15.7946 41.7759 16.3545C46.2486 16.6959 50.7213 16.9585 55.2072 17.2474L71.7481 18.3372C73.0714 18.416 74.2756 18.5079 75.546 18.5079H99.8413C100.286 22.3833 99.8329 26.3082 98.518 29.9838C94.8526 39.0569 88.1568 44.3484 78.2984 45.5039C77.7776 45.4915 77.2687 45.6589 76.8584 45.9774C76.4482 46.2959 76.162 46.7457 76.0488 47.2502C74.5413 51.7781 71.3585 55.5697 67.1432 57.8596C61.109 61.2209 55.0352 64.5035 48.9613 67.7861C48.7022 67.8908 48.4833 68.0743 48.3359 68.3102C48.1885 68.5461 48.1202 68.8223 48.1409 69.0991C48.2117 71.3279 48.1632 73.5588 47.9953 75.7825C47.7566 77.8562 46.7523 79.7687 45.1761 81.1508C43.5999 82.5329 41.5636 83.2868 39.4602 83.2668C33.4658 83.2668 27.4846 83.2668 21.4901 83.2668C20.914 83.2679 20.3451 83.3933 19.8228 83.6344C17.8926 84.5602 15.7722 85.0284 13.6286 85.0022C11.4849 84.976 9.37673 84.4561 7.47017 83.4835C5.5636 82.5108 3.91081 81.112 2.64203 79.3974C1.37326 77.6828 0.523215 75.6991 0.158911 73.6029C0.114089 73.456 0.0518835 73.315 -0.0263672 73.1827L8.38041e-05 48.7602ZM71.2982 24.1539C70.9145 24.1539 70.4911 24.0358 70.0808 24.0095L53.8178 22.9722C49.1466 22.6833 44.4754 22.4207 39.8043 22.0662C36.0486 21.6662 32.252 21.888 28.5697 22.7227C22.0749 24.3257 16.309 28.0421 12.1928 33.2784C8.07666 38.5147 5.84778 44.9687 5.86223 51.6095C5.86223 58.0959 5.86223 64.5823 5.86223 71.0818C5.86243 71.8214 5.95578 72.558 6.14011 73.2746C6.45498 74.4442 7.03727 75.5261 7.84177 76.4362C8.64628 77.3464 9.65135 78.0603 10.779 78.5226C11.9066 78.9849 13.1264 79.1831 14.3437 79.1018C15.561 79.0206 16.7431 78.662 17.7982 78.054C26.62 73.2483 35.4771 68.4339 44.3695 63.6107C50.9065 60.0392 57.47 56.494 63.9938 52.8831C66.0382 51.8795 67.7808 50.36 69.0466 48.4771C70.3124 46.5942 71.0569 44.4142 71.2056 42.1557C71.5364 36.2995 71.3512 30.3383 71.3776 24.5347C71.3692 24.4047 71.3425 24.2766 71.2982 24.1539ZM93.8733 24.3903H77.3456V39.6084C81.4461 39.3505 85.3308 37.695 88.3426 34.9219C91.3543 32.1488 93.3081 28.4284 93.8733 24.3903ZM42.1994 71.4495L31.6793 77.1874C34.3259 77.3713 36.9724 77.4238 39.619 77.345C40.249 77.3527 40.8597 77.129 41.3336 76.717C41.8075 76.3049 42.1111 75.7336 42.1861 75.1128C42.2655 73.9705 42.1994 72.815 42.1994 71.4495Z" fill="#8A8C8D"/>
</g>
<defs>
<clipPath id="clip0_129_59">
<rect width="100" height="69" fill="white" transform="translate(0 16)"/>
</clipPath>
</defs>
</svg>
