<svg width="101" height="100" viewBox="0 0 101 100" fill="none" xmlns="http://www.w3.org/2000/svg">
<g clip-path="url(#clip0_448_58)">
<g clip-path="url(#clip1_448_58)">
<path d="M0.500084 48.7602C0.81767 46.9876 1.00294 45.1756 1.46609 43.5081C5.23743 29.3667 14.3416 20.53 28.5933 16.906C33.0931 15.9809 37.7153 15.7946 42.2759 16.3545C46.7486 16.6959 51.2213 16.9585 55.7072 17.2474L72.2481 18.3372C73.5714 18.416 74.7756 18.5079 76.046 18.5079H100.341C100.786 22.3833 100.333 26.3082 99.018 29.9838C95.3526 39.0569 88.6568 44.3484 78.7984 45.5039C78.2776 45.4915 77.7687 45.6589 77.3584 45.9774C76.9482 46.2959 76.662 46.7457 76.5488 47.2502C75.0413 51.7781 71.8585 55.5697 67.6432 57.8596C61.609 61.2209 55.5352 64.5035 49.4613 67.7861C49.2022 67.8908 48.9833 68.0743 48.8359 68.3102C48.6885 68.5461 48.6202 68.8223 48.6409 69.0991C48.7117 71.3279 48.6632 73.5588 48.4953 75.7825C48.2566 77.8562 47.2523 79.7687 45.6761 81.1508C44.0999 82.5329 42.0636 83.2868 39.9602 83.2668C33.9658 83.2668 27.9846 83.2668 21.9901 83.2668C21.414 83.2679 20.8451 83.3933 20.3228 83.6344C18.3926 84.5602 16.2722 85.0284 14.1286 85.0022C11.9849 84.976 9.87673 84.4561 7.97017 83.4835C6.0636 82.5108 4.41081 81.112 3.14203 79.3974C1.87326 77.6828 1.02322 75.6991 0.658911 73.6029C0.614089 73.456 0.551884 73.315 0.473633 73.1827L0.500084 48.7602ZM71.7982 24.1539C71.4145 24.1539 70.9911 24.0358 70.5808 24.0095L54.3178 22.9722C49.6466 22.6833 44.9754 22.4207 40.3043 22.0662C36.5486 21.6662 32.752 21.888 29.0697 22.7227C22.5749 24.3257 16.809 28.0421 12.6928 33.2784C8.57666 38.5147 6.34778 44.9687 6.36223 51.6095C6.36223 58.0959 6.36223 64.5823 6.36223 71.0818C6.36243 71.8214 6.45578 72.558 6.64011 73.2746C6.95498 74.4442 7.53727 75.5261 8.34177 76.4362C9.14628 77.3464 10.1513 78.0603 11.279 78.5226C12.4066 78.9849 13.6264 79.1831 14.8437 79.1018C16.061 79.0206 17.2431 78.662 18.2982 78.054C27.12 73.2483 35.9771 68.4339 44.8695 63.6107C51.4065 60.0392 57.97 56.494 64.4938 52.8831C66.5382 51.8795 68.2808 50.36 69.5466 48.4771C70.8124 46.5942 71.5569 44.4142 71.7056 42.1557C72.0364 36.2995 71.8512 30.3383 71.8776 24.5347C71.8692 24.4047 71.8425 24.2766 71.7982 24.1539ZM94.3733 24.3903H77.8456V39.6084C81.9461 39.3505 85.8308 37.695 88.8426 34.9219C91.8543 32.1488 93.8081 28.4284 94.3733 24.3903ZM42.6994 71.4495L32.1793 77.1874C34.8259 77.3713 37.4724 77.4238 40.119 77.345C40.749 77.3527 41.3597 77.129 41.8336 76.717C42.3075 76.3049 42.6111 75.7336 42.6861 75.1128C42.7655 73.9705 42.6994 72.815 42.6994 71.4495Z" fill="#8A9CA7"/>
</g>
</g>
<defs>
<clipPath id="clip0_448_58">
<rect width="100" height="100" fill="white" transform="translate(0.5)"/>
</clipPath>
<clipPath id="clip1_448_58">
<rect width="100" height="69" fill="white" transform="translate(0.5 16)"/>
</clipPath>
</defs>
</svg>
