<svg width="101" height="100" viewBox="0 0 101 100" fill="none" xmlns="http://www.w3.org/2000/svg">
<g clip-path="url(#clip0_448_44)">
<g clip-path="url(#clip1_448_44)">
<path d="M0.499962 41.0149C0.971297 40.1285 1.35429 39.1973 1.64334 38.2349C1.70786 37.4299 1.63677 36.6198 1.43307 35.8388C0.932384 33.1717 1.34156 30.4125 2.59412 28.0093C3.84668 25.6061 5.86906 23.7 8.33279 22.6006C8.66252 22.4228 8.91187 22.1243 9.02933 21.7666C10.6327 17.2259 13.4977 15.1475 18.3078 15.1475C18.5014 15.1506 18.6936 15.1135 18.8722 15.0383C19.0509 14.9631 19.2122 14.8516 19.3461 14.7107C21.3568 11.5468 24.419 10.2362 27.9149 9.68018C28.848 9.53457 29.7942 9.56106 30.7273 9.45516C31.1069 9.43122 31.4821 9.36007 31.8444 9.24334C33.6975 8.55496 35.5243 7.80039 37.4036 7.1782C37.65 7.09113 37.9118 7.05675 38.1721 7.07724C38.4324 7.09773 38.6856 7.17262 38.9156 7.29717C39.1456 7.42173 39.3473 7.59319 39.5079 7.80063C39.6684 8.00808 39.7843 8.24695 39.8481 8.50201C39.9222 8.74709 39.9469 9.00463 39.9207 9.25946C39.8944 9.5143 39.8178 9.76127 39.6953 9.98581C39.5729 10.2103 39.407 10.4079 39.2075 10.5669C39.008 10.7258 38.779 10.843 38.5339 10.9114C37.3248 11.3482 36.0894 11.7321 34.8277 12.1425L36.8122 16.4581C37.9817 16.2569 39.1624 16.1287 40.3475 16.0742C41.7082 16.0422 43.0473 16.4209 44.1926 17.1616C45.3378 17.9024 46.2369 18.9713 46.7741 20.231C47.0158 20.6893 47.0672 21.2254 46.9169 21.7218C46.7666 22.2182 46.4269 22.6342 45.9724 22.8786C45.7456 23.0047 45.4954 23.0826 45.2375 23.1074C44.9796 23.1322 44.7193 23.1033 44.4729 23.0227C44.2265 22.942 43.9991 22.8112 43.8049 22.6384C43.6107 22.4656 43.4538 22.2545 43.344 22.0181C42.0297 19.3705 39.6115 19.7412 37.6402 20.5487C37.4431 20.6414 37.3379 21.0518 37.2459 21.343C36.9042 22.455 36.6677 23.62 36.234 24.7055C36.1358 24.9523 35.987 25.1755 35.7975 25.3606C35.608 25.5457 35.3818 25.6884 35.1339 25.7796C34.8859 25.8708 34.6216 25.9083 34.3583 25.8898C34.0949 25.8712 33.8384 25.7969 33.6055 25.6719C33.3716 25.569 33.1606 25.4198 32.985 25.2333C32.8094 25.0467 32.6728 24.8265 32.5834 24.5857C32.4939 24.3449 32.4533 24.0885 32.4641 23.8316C32.4749 23.5748 32.5368 23.3227 32.6461 23.0904C34.1838 19.6617 32.9615 16.7229 31.1216 13.8237C31.0285 13.7061 30.9107 13.6106 30.7766 13.5442C30.6426 13.4779 30.4956 13.4422 30.3462 13.4399C28.6502 13.6995 26.9763 14.0889 25.339 14.6048C24.5965 14.862 23.9286 15.2999 23.3944 15.8795C22.8602 16.4592 22.4764 17.1627 22.2768 17.9276C22.167 18.383 21.8911 18.7801 21.504 19.0401C21.1168 19.3001 20.6468 19.4039 20.1872 19.3308C19.7666 19.3308 19.3461 19.2381 18.8729 19.1719C18.1542 18.9998 17.407 18.9859 16.6824 19.131C15.9577 19.2761 15.2727 19.577 14.674 20.0129C14.0752 20.4489 13.5768 21.0099 13.2128 21.6575C12.8488 22.3051 12.6277 23.0241 12.5646 23.7656C12.5346 24.1908 12.3817 24.5978 12.1248 24.9365C11.868 25.2753 11.5183 25.5309 11.119 25.6719C5.86204 27.5385 4.37695 31.7217 5.59918 36.8316C5.78324 37.382 5.83633 37.9683 5.75415 38.5432C5.67197 39.1181 5.45681 39.6654 5.12606 40.1412C4.19295 41.465 3.81182 43.0536 5.7306 44.2979C5.96909 44.5052 6.15798 44.7641 6.28315 45.0552C6.40832 45.3463 6.46653 45.6622 6.45344 45.9792C6.08545 50.03 8.20136 52.36 11.6052 53.8559C13.9773 54.8622 16.5011 55.4575 19.0701 55.6165C19.619 55.5893 20.1623 55.4915 20.6866 55.3253C21.0153 55.2209 21.365 55.2023 21.7028 55.2711C22.0406 55.34 22.3556 55.494 22.6182 55.7189C22.8808 55.9437 23.0825 56.232 23.2044 56.5568C23.3263 56.8816 23.3643 57.2322 23.3151 57.5758C23.1022 59.4409 23.5007 61.3249 24.4498 62.9406C25.3989 64.5563 26.8465 65.815 28.572 66.5247C31.6709 67.8354 35.0434 68.3538 38.3893 68.0339C42.0034 67.9015 45.381 66.7101 48.9032 66.0482C51.7813 65.5584 54.6727 65.1215 57.5771 64.7244C59.0753 64.5523 59.9427 65.2539 60.0347 66.4453C60.1267 67.6368 59.417 68.4311 57.8925 68.6694C54.3967 69.2121 50.9139 69.8211 47.3787 70.4036C47.127 70.473 46.881 70.5614 46.6427 70.6683C51.5842 76.4269 53.2138 83.5225 54.9224 90.6711L60.0084 89.8239C59.9033 88.884 59.7587 88.0235 59.7193 87.1763C59.6405 85.7697 59.6405 84.3598 59.7193 82.9533C59.8902 80.8881 61.0335 80.2262 62.9523 81.0602C65.7473 82.3334 68.7974 82.9361 71.8628 82.8209C74.9162 82.819 77.8813 81.7892 80.2871 79.8953C81.8004 78.6729 82.8076 76.9268 83.1126 74.9972C83.1851 74.7337 83.1675 74.4534 83.0626 74.2012C82.9577 73.9491 82.7717 73.7399 82.5344 73.6072C79.9562 71.8827 77.1084 70.6072 74.1102 69.8343L73.361 69.6357C73.0853 69.5961 72.8209 69.4985 72.5851 69.3491C72.3493 69.1998 72.1473 69.0022 71.9923 68.769C71.8373 68.5359 71.7328 68.2725 71.6855 67.996C71.6383 67.7195 71.6493 67.4361 71.718 67.1642C71.7866 66.8922 71.9113 66.6379 72.084 66.4177C72.2566 66.1976 72.4734 66.0165 72.7201 65.8862C72.9668 65.756 73.238 65.6795 73.516 65.6618C73.794 65.6441 74.0725 65.6855 74.3336 65.7834C75.5033 66.0747 76.6466 66.4188 77.79 66.816C80.5655 67.7603 83.1774 69.1361 85.5309 70.8934C85.8179 71.0837 86.1616 71.168 86.5034 71.1316C88.6815 70.8041 90.6522 69.6481 92.01 67.9015C94.0598 65.1969 95.3816 62.005 95.8476 58.6348C96.735 55.1916 96.6942 51.5723 95.7293 48.1502C95.1372 46.2672 94.0522 44.5797 92.5883 43.2654C92.3865 43.0562 92.1305 42.9082 91.8495 42.838C91.5684 42.7678 91.2735 42.7783 90.998 42.8682C89.9701 43.0451 89.028 43.5564 88.316 44.3238C87.6039 45.0913 87.1611 46.0726 87.0554 47.1176C87.0205 47.5803 86.8248 48.0158 86.5027 48.3475C86.1806 48.6792 85.7527 48.8859 85.2943 48.9313C84.8702 48.9857 84.4404 48.8919 84.0767 48.6653C83.7131 48.4388 83.4377 48.0934 83.2966 47.6869C83.1653 47.0807 83.1653 46.453 83.2966 45.8468C83.6178 44.0917 84.4759 42.4818 85.7509 41.2426C87.0259 40.0034 88.6539 39.197 90.4066 38.9365C91.3003 38.7776 91.7209 38.4599 91.6289 37.4935C91.6427 36.709 91.4596 35.9337 91.0966 35.2394C90.7337 34.5451 90.2025 33.9544 89.5524 33.5221C89.1968 33.2928 88.9013 32.9806 88.6908 32.6119C88.4803 32.2432 88.3611 31.8289 88.3433 31.404C88.2875 30.757 88.0454 30.1405 87.6468 29.6301C86.4949 28.2471 84.8686 27.3513 83.091 27.1207C81.3135 26.8902 79.515 27.3417 78.0529 28.3857C77.4236 28.8954 76.8895 29.514 76.4758 30.2126C76.3512 30.4521 76.1809 30.6646 75.9745 30.8376C75.7682 31.0107 75.53 31.1409 75.2735 31.2209C75.017 31.3009 74.7473 31.329 74.48 31.3036C74.2127 31.2782 73.953 31.1998 73.7159 31.073C73.474 30.9369 73.2633 30.751 73.0976 30.5273C72.9318 30.3036 72.8147 30.0473 72.754 29.7749C72.6932 29.5026 72.6901 29.2205 72.7449 28.9469C72.7997 28.6733 72.9111 28.4144 73.0719 28.1871C73.8421 26.7728 74.9515 25.5751 76.299 24.7034C77.6465 23.8316 79.1892 23.3136 80.7865 23.1964L81.7984 23.0772C81.6452 21.8955 81.2053 20.7701 80.5176 19.8004C79.83 18.8306 78.9157 18.0465 77.8557 17.5172C75.4513 16.3261 72.7729 15.8094 70.1018 16.0213C69.6315 16.11 69.1453 16.0336 68.7243 15.8047C68.3033 15.5758 67.9731 15.2083 67.7887 14.7637C67.4577 13.9373 66.8866 13.231 66.1502 12.7373C65.4138 12.2436 64.5465 11.9855 63.662 11.9969C62.5318 11.9042 61.3884 12.1028 60.2581 12.116C59.5839 12.15 58.9081 12.0966 58.2474 11.9571C56.5783 11.5468 54.9355 11.0305 53.2664 10.6333C51.9522 10.2759 51.1768 9.30952 51.4134 8.19752C51.4713 7.92278 51.5862 7.66344 51.7503 7.43639C51.9145 7.20935 52.1243 7.0197 52.3661 6.87981C52.6079 6.73992 52.8762 6.65294 53.1536 6.62452C53.4311 6.5961 53.7113 6.62687 53.9761 6.71485C55.2847 6.95829 56.5755 7.28999 57.84 7.70772C58.9512 8.06447 60.1272 8.16847 61.2832 8.01221C63.6251 7.74042 65.9932 8.2027 68.0647 9.33602C68.6928 9.61757 69.2465 10.0438 69.6812 10.5804C70.0333 11.111 70.5201 11.5369 71.091 11.814C71.6618 12.091 72.2959 12.209 72.9273 12.1558C75.2779 12.2597 77.5762 12.8882 79.6562 13.9958C81.3075 14.8279 82.7286 16.0589 83.7926 17.5788C84.8567 19.0987 85.5306 20.8604 85.7543 22.7065C85.7738 23.0387 85.8884 23.358 86.0844 23.6258C86.2803 23.8936 86.5491 24.0985 86.8582 24.2157C89.4867 25.5395 91.642 27.2472 92.2991 30.3582C92.2991 30.6362 92.654 30.8877 92.8774 31.0995C93.978 32.1603 94.7903 33.4876 95.2367 34.9546C95.683 36.4216 95.7486 37.9794 95.427 39.4792C95.3767 39.6823 95.3671 39.8934 95.3987 40.1002C95.4303 40.3071 95.5025 40.5055 95.611 40.6839C98.4479 43.4135 100.129 47.1412 100.303 51.0891C100.81 57.0391 99.5231 63.0048 96.6098 68.206C95.7099 69.9474 94.4342 71.4637 92.8763 72.6434C91.3185 73.8232 89.5181 74.6365 87.6073 75.0237C87.4677 75.0742 87.3416 75.1568 87.239 75.2647C87.1364 75.3727 87.06 75.5031 87.0159 75.6458C85.7017 82.0134 81.3647 85.0052 75.5427 86.3687C71.9563 87.1635 68.2298 87.0452 64.7002 86.0245L63.5831 85.7466C63.8854 87.5469 64.122 89.1884 64.4374 90.8035C64.7528 92.4185 64.2009 93.3187 62.6763 93.5835L54.3178 94.9735C54.0401 95.0806 53.7417 95.122 53.4456 95.0948C53.1495 95.0675 52.8636 94.9723 52.6098 94.8163C52.3559 94.6603 52.141 94.4478 51.9814 94.1951C51.8218 93.9424 51.7219 93.6562 51.6894 93.3585C50.914 90.7109 50.2568 88.0632 49.534 85.3229C48.4492 80.712 46.2813 76.4309 43.2125 72.8394C42.9584 72.4942 42.6172 72.2239 42.2243 72.0563C41.8315 71.8887 41.4013 71.83 40.9783 71.8862C38.6179 72.1507 36.2397 72.2171 33.8683 72.0848C29.0188 71.6744 24.6687 69.9931 21.5934 65.9423C20.2658 64.1403 19.4523 62.0072 19.2409 59.7733C16.1718 59.5785 13.154 58.8856 10.3041 57.7214C7.01856 56.3182 4.21924 54.2795 3.11528 50.7052C2.45817 48.5606 2.36617 46.2439 0.867945 44.4038C0.690557 44.0948 0.561975 43.7598 0.486816 43.411L0.499962 41.0149Z" fill="#8A9CA7"/>
<path d="M29.2161 52.5453C30.3968 54.4412 30.9872 56.6496 30.9114 58.8864C30.9313 59.2831 30.8378 59.6773 30.6422 60.0221C30.4465 60.367 30.1569 60.6482 29.8075 60.8324C29.5031 61.0321 29.1412 61.1236 28.7793 61.0924C28.4174 61.0612 28.0762 60.9091 27.8099 60.6603C27.3811 60.1475 27.0793 59.5395 26.9293 58.8864C26.7716 58.3039 26.9293 57.642 26.7979 57.0463C26.2328 53.8956 24.038 52.7571 20.6341 52.8631C20.4633 52.8631 20.3056 52.863 20.1479 52.9292C19.8765 52.9846 19.5968 52.9843 19.3255 52.9285C19.0543 52.8727 18.7969 52.7624 18.5688 52.6043C18.3407 52.4462 18.1465 52.2434 17.9979 52.0082C17.8492 51.7729 17.749 51.5098 17.7034 51.2347C17.6706 50.9641 17.6928 50.6896 17.7686 50.4278C17.8444 50.1661 17.9723 49.9226 18.1443 49.7121C18.3164 49.5017 18.5291 49.3286 18.7696 49.2035C19.0101 49.0784 19.2733 49.0038 19.5433 48.9842C21.511 48.6732 23.5255 48.8972 25.3785 49.6329C25.6282 49.7732 25.9187 49.8208 26.1997 49.7676C26.4806 49.7144 26.7341 49.5637 26.9162 49.3417C27.6672 48.7358 28.2648 47.9591 28.66 47.0754C29.0553 46.1918 29.2368 45.2263 29.1898 44.2583C29.1558 43.9963 29.1782 43.73 29.2555 43.4775C29.3328 43.225 29.4632 42.9923 29.6377 42.7951C29.8123 42.5979 30.027 42.4409 30.2672 42.3347C30.5074 42.2286 30.7675 42.1757 31.0297 42.1799C31.2983 42.1633 31.5673 42.2031 31.8198 42.2966C32.0724 42.3902 32.3029 42.5354 32.4968 42.7233C32.6907 42.9112 32.8438 43.1376 32.9465 43.3881C33.0491 43.6386 33.099 43.9079 33.0931 44.1788C33.2072 45.6037 32.9926 47.0358 32.4659 48.3632C31.9392 49.6906 31.1148 50.8773 30.0572 51.8305C29.8206 52.0688 29.5315 52.2938 29.2161 52.5453Z" fill="#8A9CA7"/>
<path d="M53.4111 44.6818C52.2465 46.6069 50.46 48.07 48.3513 48.8254C48.1014 48.9657 47.825 49.0518 47.5401 49.0781C47.2551 49.1044 46.9678 49.0703 46.6967 48.9781C46.4256 48.8858 46.1767 48.7374 45.966 48.5424C45.7552 48.3473 45.5874 48.1101 45.4732 47.8458C45.0395 46.7205 45.5914 45.8071 46.7874 45.1187C47.816 44.5186 48.7805 43.8132 49.6656 43.0138C50.1518 42.6035 50.1387 42.0871 49.6656 41.5047C47.9386 39.6531 46.7399 37.3663 46.196 34.8856C46.1088 34.6312 46.0739 34.3616 46.0933 34.0932C46.1128 33.8248 46.1862 33.5632 46.3091 33.3242C46.432 33.0852 46.6019 32.874 46.8084 32.7032C47.0148 32.5324 47.2536 32.4056 47.5102 32.3307C47.7767 32.2496 48.0574 32.2276 48.3332 32.2661C48.6089 32.3045 48.8732 32.4025 49.1078 32.5533C49.3424 32.7042 49.5419 32.9044 49.6927 33.1401C49.8434 33.3758 49.9417 33.6417 49.981 33.9192C50.4848 36.1016 51.6627 38.0668 53.3454 39.5322C54.9846 40.8493 57.0318 41.543 59.128 41.4914C60.5474 41.4914 61.3228 42.1798 61.4279 43.2654C61.4709 43.5605 61.4455 43.8616 61.3536 44.1452C61.2618 44.4288 61.106 44.6871 60.8986 44.8999C60.6911 45.1128 60.4375 45.2743 60.1577 45.372C59.8779 45.4697 59.5795 45.5007 59.2857 45.4629C57.367 45.3437 55.5008 44.9863 53.4111 44.6818Z" fill="#8A9CA7"/>
<path d="M81.3779 58.4495C79.2668 57.5397 77.5053 55.9651 76.3575 53.9618C76.1881 53.7081 76.0796 53.4182 76.0405 53.115C76.0014 52.8118 76.0328 52.5037 76.1322 52.2148C76.2316 51.9259 76.3963 51.6643 76.6133 51.4506C76.8304 51.2368 77.0937 51.0768 77.3826 50.9832C77.8179 50.8413 78.2883 50.8531 78.716 51.0168C79.1437 51.1804 79.5032 51.4861 79.7351 51.8834C80.2376 52.6048 80.8147 53.2705 81.4568 53.8691C82.0523 54.439 82.8026 54.8176 83.6124 54.9567C84.4221 55.0958 85.2547 54.9891 86.004 54.6501C86.8657 54.2675 87.7001 53.8252 88.5011 53.3263C88.9344 53.0281 89.4658 52.9111 89.9832 53C90.5006 53.0889 90.9634 53.3768 91.2741 53.8029C91.4397 54.0208 91.5564 54.2722 91.6159 54.54C91.6755 54.8078 91.6766 55.0854 91.6191 55.3536C91.5616 55.6218 91.4469 55.8742 91.2829 56.0933C91.1189 56.3125 90.9097 56.4931 90.6695 56.6226C89.2714 57.4273 87.8072 58.1093 86.2931 58.6613C85.5703 58.9128 85.1892 59.204 85.0972 59.9851C84.872 60.8959 84.8868 61.8503 85.1404 62.7535C85.394 63.6568 85.8774 64.4776 86.5428 65.1348C86.7469 65.3018 86.9139 65.5101 87.033 65.7463C87.1521 65.9824 87.2206 66.2411 87.2343 66.5056C87.2479 66.7701 87.2063 67.0346 87.1121 67.2819C87.0179 67.5292 86.8732 67.7538 86.6874 67.9412C86.504 68.1414 86.2815 68.3011 86.0338 68.4104C85.7862 68.5196 85.5187 68.576 85.2483 68.576C84.9779 68.576 84.7105 68.5196 84.4628 68.4104C84.2152 68.3011 83.9926 68.1414 83.8092 67.9412C81.1808 65.5187 80.6157 62.4607 81.2728 59.0585C81.3122 58.8864 81.3385 58.6878 81.3779 58.4495Z" fill="#8A9CA7"/>
<path d="M17.0067 37.6127C15.5084 38.4864 14.1811 39.3733 12.7617 40.0617C12.5157 40.2124 12.2395 40.3061 11.9532 40.3362C11.6668 40.3662 11.3774 40.3319 11.1058 40.2357C10.8343 40.1394 10.5873 39.9836 10.3827 39.7796C10.1782 39.5755 10.0211 39.3282 9.92295 39.0556C9.83074 38.7874 9.79515 38.5027 9.81846 38.2199C9.84177 37.937 9.92346 37.6622 10.0583 37.4129C10.1932 37.1637 10.3782 36.9456 10.6016 36.7725C10.8249 36.5995 11.0817 36.4753 11.3555 36.408C12.0234 36.217 12.6459 35.8914 13.1851 35.4508C13.7243 35.0101 14.169 34.4637 14.4922 33.8448C14.8155 33.2258 15.0105 32.5471 15.0654 31.8499C15.1204 31.1527 15.0341 30.4515 14.8119 29.7889C14.698 29.3573 14.6449 28.9116 14.6542 28.4651C14.7104 28.0044 14.9229 27.5775 15.2559 27.2566C15.5888 26.9358 16.0216 26.7407 16.481 26.7045C16.9243 26.6869 17.3606 26.8195 17.7204 27.0811C18.0801 27.3426 18.3424 27.7181 18.4655 28.1474C18.9729 29.8137 19.1032 31.5734 18.8466 33.2971C18.8342 33.4842 18.8658 33.6717 18.9388 33.8442C19.0119 34.0167 19.1244 34.1695 19.2671 34.2899C19.8078 34.6595 20.4333 34.8838 21.0841 34.9417C21.735 34.9996 22.3898 34.8892 22.9864 34.6209C23.5957 34.3979 24.1923 34.1416 24.7738 33.853C25.2272 33.6085 25.7582 33.5548 26.2508 33.7037C26.7434 33.8525 27.1574 34.1918 27.4023 34.6473C27.5312 34.8694 27.6141 35.1154 27.6462 35.3706C27.6782 35.6257 27.6586 35.8848 27.5886 36.1322C27.5187 36.3795 27.3997 36.6101 27.2389 36.8099C27.0781 37.0098 26.8789 37.1747 26.6531 37.295C23.4858 39.1351 20.2003 39.6911 17.0067 37.6127Z" fill="#8A9CA7"/>
<path d="M72.1783 44.5098C72.1038 47.1346 71.3616 49.6963 70.023 51.9496C69.9043 52.1777 69.7417 52.3796 69.5445 52.5435C69.3473 52.7074 69.1196 52.8299 68.8747 52.9039C68.6298 52.9779 68.3728 53.0019 68.1186 52.9744C67.8644 52.9469 67.6182 52.8685 67.3945 52.7439C66.9383 52.4838 66.5975 52.0585 66.4412 51.5545C66.285 51.0504 66.3251 50.5054 66.5534 50.0301C67.198 48.6482 67.6958 47.2016 68.0385 45.7144C68.5642 42.4578 67.0397 39.9558 64.6346 37.9172C64.3455 37.6656 64.0038 37.4671 63.7015 37.2288C63.2827 36.9497 62.9873 36.5183 62.877 36.0248C62.7668 35.5313 62.8503 35.014 63.1101 34.5812C63.2405 34.3521 63.4164 34.1526 63.6267 33.9952C63.8371 33.8377 64.0775 33.7257 64.3328 33.666C64.5881 33.6064 64.8529 33.6005 65.1106 33.6486C65.3684 33.6967 65.6134 33.7979 65.8306 33.9457C67.3961 34.8942 68.7482 36.1611 69.8004 37.6655C70.8527 39.1699 71.582 40.8787 71.9417 42.6829C72.0995 43.3448 72.1258 44.0729 72.1783 44.5098Z" fill="#8A9CA7"/>
<path d="M46.8136 61.9576C45.3548 61.6532 43.8828 61.4148 42.4503 61.0177C42.1759 60.9649 41.9161 60.8532 41.6884 60.6901C41.4607 60.5271 41.2706 60.3166 41.1309 60.0729C40.9913 59.8292 40.9053 59.5581 40.879 59.2779C40.8527 58.9978 40.8866 58.7153 40.9784 58.4495C41.3069 57.364 42.3846 56.9801 43.6857 57.2184C45.1939 57.5639 46.7395 57.7152 48.2855 57.6685C49.2916 57.5384 50.2541 57.1756 51.0978 56.6083C51.9414 56.041 52.6432 55.2847 53.1482 54.3986C53.4849 53.8384 53.9664 53.3808 54.5413 53.0748C54.8884 52.9201 55.2774 52.8882 55.6448 52.9844C56.0123 53.0805 56.3366 53.299 56.5652 53.6044C56.849 53.8828 57.0337 54.2477 57.0908 54.6426C57.1478 55.0375 57.0739 55.4403 56.8806 55.7887C56.0836 57.3541 54.9229 58.7024 53.4973 59.7188C52.0718 60.7353 50.4236 61.3898 48.6929 61.6267C48.0752 61.7193 47.4575 61.7458 46.8399 61.812L46.8136 61.9576Z" fill="#8A9CA7"/>
<path d="M64.7004 23.1699C64.7094 23.6403 64.5577 24.0996 64.2705 24.4708C63.9834 24.8419 63.5784 25.1024 63.1233 25.2085C62.6746 25.308 62.2054 25.2443 61.7988 25.0286C61.3923 24.813 61.0747 24.4594 60.9023 24.0304C60.7183 23.5803 60.6263 23.0904 60.4554 22.6271C59.496 20.0986 57.4195 19.0793 54.3311 19.622C54.0738 19.6972 53.8039 19.7184 53.5382 19.6843C53.2725 19.6502 53.0165 19.5615 52.7862 19.4238C52.5558 19.2861 52.3559 19.1022 52.1989 18.8835C52.042 18.6649 51.9312 18.4161 51.8735 18.1526C51.8061 17.8882 51.7951 17.6124 51.8412 17.3434C51.8873 17.0744 51.9894 16.8182 52.1409 16.5918C52.2924 16.3655 52.4898 16.174 52.72 16.03C52.9503 15.886 53.2082 15.7928 53.4768 15.7565C58.2869 14.6975 63.3073 16.7361 64.6215 22.8257L64.7004 23.1699Z" fill="#8A9CA7"/>
<path d="M45.6702 5.99998C46.0552 5.99759 46.4324 6.1096 46.7545 6.32196C47.0767 6.53432 47.3295 6.83761 47.4815 7.19395C47.6335 7.55028 47.6777 7.94386 47.6089 8.32542C47.54 8.70697 47.3609 9.05958 47.0941 9.3392C46.8274 9.61882 46.4847 9.81303 46.1089 9.89753C45.7332 9.98202 45.341 9.95309 44.9815 9.8143C44.622 9.67552 44.3111 9.43306 44.0876 9.11725C43.8641 8.80143 43.7381 8.42626 43.7251 8.03866C43.7214 7.51047 43.9227 7.00172 44.2861 6.62088C44.6494 6.24004 45.1461 6.01722 45.6702 5.99998Z" fill="#8A9CA7"/>
<path d="M66.0144 68.6164C65.754 68.6234 65.4948 68.578 65.252 68.4829C65.0091 68.3878 64.7876 68.2448 64.6004 68.0623C64.4131 67.8799 64.2639 67.6616 64.1614 67.4203C64.0589 67.179 64.0053 66.9195 64.0037 66.6571C64.0171 66.1289 64.2323 65.6264 64.6044 65.254C64.9765 64.8816 65.4769 64.6682 66.0013 64.6581C66.5093 64.6649 66.9948 64.8703 67.3553 65.231C67.7158 65.5916 67.923 66.0793 67.9332 66.5909C67.9476 66.8529 67.9085 67.115 67.8184 67.3612C67.7282 67.6073 67.589 67.8323 67.4091 68.0221C67.2293 68.2119 67.0128 68.3625 66.7729 68.4648C66.533 68.567 66.2749 68.6186 66.0144 68.6164Z" fill="#8A9CA7"/>
</g>
</g>
<defs>
<clipPath id="clip0_448_44">
<rect width="100" height="100" fill="white" transform="translate(0.5)"/>
</clipPath>
<clipPath id="clip1_448_44">
<rect width="100" height="89" fill="white" transform="translate(0.5 6)"/>
</clipPath>
</defs>
</svg>
