<svg width="101" height="100" viewBox="0 0 101 100" fill="none" xmlns="http://www.w3.org/2000/svg">
<g clip-path="url(#clip0_448_25)">
<path d="M48.0199 45.62C47.6307 45.6337 47.2429 45.5661 46.8813 45.4215C46.5197 45.2768 46.1923 45.0584 45.9199 44.78C45.1399 43.98 45.1299 43.09 45.1299 41.56C45.1299 40.03 45.1299 39.15 45.9199 38.35C46.3051 37.9566 46.7933 37.6798 47.3286 37.5511C47.8639 37.4224 48.4247 37.4472 48.9465 37.6226C49.4684 37.7979 49.9303 38.1167 50.2794 38.5425C50.6284 38.9683 50.8504 39.4838 50.9199 40.03H49.3599C49.3232 39.7835 49.218 39.5522 49.0562 39.3625C48.8944 39.1729 48.6826 39.0326 48.4449 38.9575C48.2072 38.8825 47.9532 38.8757 47.7118 38.938C47.4705 39.0004 47.2515 39.1292 47.0799 39.31C46.7899 39.65 46.6999 40.04 46.6999 41.56C46.6999 43.08 46.7899 43.48 47.0799 43.82C47.2066 43.9571 47.3617 44.0649 47.5345 44.1357C47.7072 44.2066 47.8934 44.2387 48.0799 44.23C48.3994 44.2374 48.7104 44.1259 48.9524 43.9172C49.1944 43.7084 49.3503 43.4172 49.3899 43.1H50.9399C50.8737 43.8162 50.5325 44.4788 49.988 44.9488C49.4435 45.4187 48.738 45.6593 48.0199 45.62Z" fill="#8A9CA7"/>
<path d="M52.3201 46.24V45.24L54.0301 43.33C54.1052 43.2636 54.1655 43.1821 54.2068 43.0907C54.2482 42.9993 54.2698 42.9003 54.2701 42.8C54.2701 42.678 54.2216 42.561 54.1353 42.4747C54.0491 42.3884 53.9321 42.34 53.8101 42.34C53.6881 42.34 53.5711 42.3884 53.4848 42.4747C53.3985 42.561 53.3501 42.678 53.3501 42.8H52.3501C52.3501 42.4022 52.5081 42.0206 52.7894 41.7393C53.0707 41.458 53.4522 41.3 53.8501 41.3C54.2479 41.3 54.6294 41.458 54.9107 41.7393C55.192 42.0206 55.3501 42.4022 55.3501 42.8C55.341 43.0224 55.2856 43.2404 55.1874 43.4401C55.0893 43.6398 54.9505 43.8169 54.7801 43.96L53.6301 45.24H55.3501V46.24H52.3201Z" fill="#8A9CA7"/>
<path d="M61.11 45.55V42.21H58.4599V45.55H56.9399V37.55H58.4599V40.81H61.11V37.55H62.6299V45.55H61.11Z" fill="#8A9CA7"/>
<path d="M67.12 45.88C66.8317 46.1529 66.4469 46.3003 66.05 46.29C65.8514 46.3043 65.6521 46.2764 65.4651 46.2082C65.2781 46.1399 65.1077 46.0328 64.965 45.894C64.8224 45.7551 64.7108 45.5876 64.6375 45.4025C64.5642 45.2174 64.531 45.0189 64.54 44.82H65.54C65.54 45.14 65.71 45.34 66.01 45.34C66.0718 45.3411 66.1331 45.3292 66.1899 45.3051C66.2468 45.281 66.2979 45.2452 66.34 45.2C66.4545 45.0334 66.5043 44.8307 66.48 44.63C66.48 44.13 66.34 43.91 66.01 43.91C65.9046 43.8981 65.7985 43.9265 65.7132 43.9896C65.6278 44.0527 65.5695 44.1457 65.55 44.25H64.55V41.46H67.37V42.41H65.5V43.23C65.6813 43.0938 65.9034 43.0233 66.13 43.03C66.2961 43.0212 66.4622 43.0458 66.6185 43.1025C66.7749 43.1592 66.9182 43.2468 67.04 43.36C67.195 43.5308 67.3132 43.7317 67.3872 43.9502C67.4612 44.1687 67.4894 44.4001 67.47 44.63C67.5042 44.8513 67.4906 45.0773 67.4303 45.2929C67.3699 45.5085 67.2641 45.7086 67.12 45.88Z" fill="#8A9CA7"/>
<path d="M69.2999 39.16C69.2655 38.6638 69.3621 38.1672 69.5799 37.72C69.8542 37.2861 70.1912 36.8952 70.5799 36.56L71.5799 37.56C71.3393 37.7734 71.1335 38.0231 70.9699 38.3C70.8382 38.595 70.7798 38.9175 70.7999 39.24V43.99C70.7825 44.3123 70.8407 44.6342 70.9699 44.93C71.136 45.2051 71.3415 45.4544 71.5799 45.67L70.5799 46.67C70.1898 46.34 69.8525 45.9522 69.5799 45.52C69.3584 45.0741 69.2616 44.5765 69.2999 44.08V39.16Z" fill="#8A9CA7"/>
<path d="M77.2801 44.78C77.0122 45.0588 76.6884 45.2778 76.33 45.4226C75.9715 45.5674 75.5864 45.6346 75.2001 45.62C74.8107 45.635 74.4226 45.5679 74.0608 45.4232C73.699 45.2785 73.3717 45.0593 73.1001 44.78C72.3201 43.98 72.3101 43.09 72.3101 41.56C72.3101 40.03 72.3101 39.15 73.1001 38.35C73.3717 38.0706 73.699 37.8515 74.0608 37.7068C74.4226 37.5621 74.8107 37.495 75.2001 37.51C75.5864 37.4953 75.9715 37.5626 76.33 37.7074C76.6884 37.8522 77.0122 38.0711 77.2801 38.35C78.0601 39.15 78.0801 40.04 78.0801 41.56C78.0801 43.08 78.0601 43.98 77.2801 44.78ZM76.1701 39.32C76.0443 39.181 75.8895 39.0714 75.7167 38.9988C75.5439 38.9263 75.3573 38.8925 75.1701 38.9C74.9831 38.8952 74.7973 38.9301 74.6249 39.0025C74.4525 39.0749 74.2975 39.1831 74.1701 39.32C73.8901 39.66 73.8 40.04 73.8 41.56C73.8 43.08 73.8901 43.46 74.1701 43.79C74.2948 43.9315 74.4489 44.0441 74.6216 44.1201C74.7943 44.1961 74.9814 44.2336 75.1701 44.23C75.3591 44.2364 75.5471 44.2002 75.7202 44.124C75.8933 44.0478 76.0471 43.9337 76.1701 43.79C76.4601 43.46 76.5601 43.09 76.5601 41.56C76.5601 40.03 76.4601 39.66 76.1701 39.32Z" fill="#8A9CA7"/>
<path d="M83.8099 45.55V42.21H81.1699V45.55H79.6399V37.55H81.1699V40.81H83.8099V37.55H85.3399V45.55H83.8099Z" fill="#8A9CA7"/>
<path d="M88.76 45.45C88.4856 45.8808 88.1485 46.2684 87.76 46.6L86.76 45.6C87.0014 45.3847 87.2103 45.1354 87.38 44.86C87.5051 44.5632 87.5598 44.2415 87.54 43.92V39.16C87.5609 38.8385 87.5061 38.5165 87.38 38.22C87.2129 37.9428 87.0037 37.6931 86.76 37.48L87.76 36.48C88.1465 36.8175 88.4832 37.208 88.76 37.64C88.9855 38.0848 89.0857 38.5826 89.05 39.08V43.97C89.0976 44.481 88.9969 44.9948 88.76 45.45Z" fill="#8A9CA7"/>
<path d="M6.2801 72.44C5.8541 72.1265 5.33903 71.9574 4.8101 71.9574C4.28118 71.9574 3.7661 72.1265 3.3401 72.44C3.0771 72.6615 2.86569 72.9379 2.72066 73.2497C2.57564 73.5614 2.50049 73.9012 2.50049 74.245C2.50049 74.5889 2.57564 74.9286 2.72066 75.2404C2.86569 75.5522 3.0771 75.8285 3.3401 76.05C3.65616 76.2717 3.99073 76.4658 4.3401 76.63C5.38794 77.1962 6.37624 77.8662 7.2901 78.63C7.43129 78.7736 7.61253 78.8712 7.8101 78.91C8.3401 78.91 8.4701 78.46 8.4701 77.99C8.48272 77.7835 8.48272 77.5765 8.4701 77.37C8.1501 75.51 7.8301 73.58 6.2801 72.44ZM6.2801 76.39L5.5601 75.96C5.0072 75.7193 4.5024 75.3805 4.0701 74.96C3.9127 74.7861 3.79951 74.5769 3.7401 74.35C3.70085 74.1457 3.72258 73.9344 3.8026 73.7423C3.88262 73.5503 4.01738 73.386 4.1901 73.27C4.8001 72.88 5.6301 73.33 6.0601 73.8C6.75104 74.6993 7.15212 75.7874 7.2101 76.92C7.1401 76.79 6.3601 76.47 6.2301 76.39H6.2801Z" fill="#8A9CA7"/>
<path d="M22.5101 71.31C22.1318 71.4626 21.7877 71.6888 21.4976 71.9754C21.2074 72.2621 20.9772 72.6036 20.8201 72.98C20.3279 74.0414 20.0818 75.2002 20.1001 76.37C20.1001 76.61 20.1001 76.85 20.1001 77.09C20.0982 77.1892 20.1214 77.2874 20.1676 77.3753C20.2137 77.4632 20.2813 77.538 20.3641 77.5929C20.4468 77.6477 20.5421 77.6808 20.641 77.689C20.74 77.6972 20.8394 77.6804 20.9301 77.64C21.3784 77.3483 21.7971 77.0133 22.1801 76.64C22.6101 76.3 23.0701 75.97 23.5101 75.64C24.1783 75.2589 24.7258 74.6975 25.0901 74.02C25.211 73.6755 25.2405 73.3055 25.1757 72.9461C25.1108 72.5868 24.9538 72.2505 24.7201 71.97C24.4517 71.6624 24.1017 71.4371 23.7105 71.3203C23.3194 71.2035 22.9032 71.1999 22.5101 71.31ZM23.0501 74.46L21.3001 75.65C21.3653 75.388 21.4022 75.1198 21.4101 74.85C21.4567 74.63 21.5167 74.41 21.5901 74.19C21.7538 73.7215 21.9863 73.28 22.2801 72.88C22.3889 72.7174 22.5324 72.5808 22.7001 72.48C22.8685 72.4192 23.0501 72.4048 23.2261 72.4382C23.402 72.4716 23.5657 72.5517 23.7001 72.67C24.4801 73.35 23.6401 74.07 23.0501 74.46Z" fill="#8A9CA7"/>
<path d="M8.9901 71.87C8.85065 71.8884 8.72264 71.9569 8.62992 72.0627C8.5372 72.1685 8.48608 72.3043 8.48608 72.445C8.48608 72.5857 8.5372 72.7215 8.62992 72.8273C8.72264 72.9331 8.85065 73.0016 8.9901 73.02C9.07197 73.0308 9.15521 73.024 9.23425 73.0001C9.31328 72.9761 9.38629 72.9356 9.44839 72.8811C9.5105 72.8267 9.56027 72.7596 9.59436 72.6844C9.62845 72.6092 9.64609 72.5276 9.64609 72.445C9.64609 72.3624 9.62845 72.2808 9.59436 72.2055C9.56027 72.1303 9.5105 72.0633 9.44839 72.0088C9.38629 71.9544 9.31328 71.9138 9.23425 71.8899C9.15521 71.8659 9.07197 71.8592 8.9901 71.87Z" fill="#8A9CA7"/>
<path d="M21.86 66.57C21.9344 66.5713 22.0083 66.5578 22.0774 66.5303C22.1465 66.5027 22.2094 66.4617 22.2625 66.4096C22.3156 66.3574 22.3577 66.2952 22.3865 66.2266C22.4152 66.158 22.4301 66.0844 22.43 66.01C22.43 65.8588 22.37 65.7138 22.2631 65.6069C22.1562 65.5001 22.0112 65.44 21.86 65.44C21.7097 65.4426 21.5662 65.5035 21.4598 65.6098C21.3535 65.7161 21.2926 65.8596 21.29 66.01C21.2927 66.1594 21.3539 66.3019 21.4605 66.4066C21.5671 66.5113 21.7106 66.57 21.86 66.57Z" fill="#8A9CA7"/>
<path d="M19.53 70.16C19.3814 70.16 19.239 70.219 19.134 70.324C19.029 70.429 18.97 70.5714 18.97 70.72C18.97 70.8685 19.029 71.0109 19.134 71.116C19.239 71.221 19.3814 71.28 19.53 71.28C19.6785 71.28 19.8209 71.221 19.9259 71.116C20.031 71.0109 20.09 70.8685 20.09 70.72C20.09 70.5714 20.031 70.429 19.9259 70.324C19.8209 70.219 19.6785 70.16 19.53 70.16Z" fill="#8A9CA7"/>
<path d="M16.07 80.05H12.51L12.57 70.39H12.05L11.4 80.1H10.34C9.73002 80.1 9.52001 79.88 9.60001 79.28C9.81001 77.8 10.71 68.91 11.08 66.62H17.08C17.42 68.67 18.42 75.82 18.67 77.47C18.75 78.02 18.82 78.57 18.92 79.13C19.02 79.69 18.86 80.13 18.11 80.13H17.11L16.51 74.13H15.76L16.07 80.05Z" fill="#8A9CA7"/>
<path d="M67.0899 19C58.9573 19.0106 51.1609 22.2467 45.4111 27.9983C39.6614 33.7499 36.4279 41.5473 36.4199 49.68C36.4199 50.07 36.4199 50.45 36.4199 50.83H29.5599L29.4999 49C29.4999 49 29.4999 47.36 29.4999 46.51H31.3099C31.6384 46.5181 31.9651 46.46 32.2706 46.3392C32.5761 46.2184 32.8543 46.0374 33.0884 45.807C33.3226 45.5766 33.5081 45.3014 33.6337 44.9978C33.7594 44.6943 33.8227 44.3685 33.8199 44.04C33.8155 43.6976 33.7408 43.3596 33.6005 43.0473C33.4601 42.7349 33.257 42.4546 33.0038 42.224C32.7507 41.9933 32.4528 41.8171 32.1288 41.7064C31.8047 41.5956 31.4613 41.5526 31.1199 41.58C29.7699 41.58 23.3399 41.58 21.6699 41.58C21.3303 41.5553 20.9892 41.6008 20.6679 41.7137C20.3466 41.8266 20.052 42.0044 19.8024 42.2361C19.5528 42.4679 19.3537 42.7485 19.2173 43.0606C19.081 43.3726 19.0104 43.7094 19.0099 44.05C19.0084 44.3786 19.0731 44.7041 19.2 45.0071C19.3268 45.3102 19.5134 45.5847 19.7485 45.8142C19.9836 46.0437 20.2625 46.2236 20.5685 46.3431C20.8745 46.4626 21.2015 46.5194 21.5299 46.51H23.3299C23.3299 47.36 23.3299 48.97 23.3299 48.97V50.85C21.8799 50.85 17.0899 50.78 15.6499 50.93C14.0924 51.1486 12.6574 51.8958 11.5851 53.0464C10.5128 54.1969 9.86845 55.681 9.75992 57.25C9.67992 59.63 9.75992 62.02 9.75992 64.4C9.75992 64.5644 9.82524 64.7221 9.94152 64.8384C10.0578 64.9547 10.2155 65.02 10.3799 65.02H17.7199C17.8942 65.0201 18.0617 64.9522 18.1867 64.8309C18.3118 64.7095 18.3847 64.5442 18.3899 64.37C18.3899 63.89 18.3899 63.37 18.3899 62.94V59.47H38.0399C39.8427 64.8161 43.0852 69.5614 47.4106 73.1837C51.7361 76.8061 56.9769 79.1651 62.5565 80.0013C68.1361 80.8375 73.8383 80.1184 79.0356 77.9232C84.2329 75.7279 88.724 72.1416 92.0147 67.5588C95.3054 62.976 97.2683 57.5743 97.6874 51.948C98.1064 46.3217 96.9654 40.6888 94.3898 35.6691C91.8143 30.6493 87.9041 26.4373 83.0893 23.4964C78.2745 20.5555 72.7418 18.9996 67.0999 19H67.0899ZM21.6099 45.1C21.3247 45.0733 21.0597 44.9411 20.8668 44.7294C20.674 44.5176 20.567 44.2415 20.567 43.955C20.567 43.6685 20.674 43.3924 20.8668 43.1806C21.0597 42.9689 21.3247 42.8367 21.6099 42.81H31.0399C31.3251 42.8367 31.5901 42.9689 31.783 43.1806C31.9759 43.3924 32.0828 43.6685 32.0828 43.955C32.0828 44.2415 31.9759 44.5176 31.783 44.7294C31.5901 44.9411 31.3251 45.0733 31.0399 45.1H21.6099ZM95.0899 49.68C95.0899 50.06 95.0899 50.44 95.0899 50.82H39.1199C39.1199 50.44 39.1199 50.06 39.1199 49.68C39.1199 42.2539 42.0699 35.132 47.3209 29.881C52.572 24.63 59.6939 21.68 67.1199 21.68C74.546 21.68 81.6679 24.63 86.9189 29.881C92.1699 35.132 95.1199 42.2539 95.1199 49.68H95.0899Z" fill="#8A9CA7"/>
</g>
<defs>
<clipPath id="clip0_448_25">
<rect width="95.28" height="61.36" fill="white" transform="translate(2.5 19)"/>
</clipPath>
</defs>
</svg>
