<svg width="101" height="100" viewBox="0 0 101 100" fill="none" xmlns="http://www.w3.org/2000/svg">
<g clip-path="url(#clip0_448_63)">
<path d="M62.3701 89.03H24.7201L26.0301 86.46C27.3301 83.88 30.72 76.28 30.66 72.19C30.596 70.1315 30.1694 68.1004 29.4001 66.19C28.0367 63.9733 26.5476 61.8365 24.9401 59.79C22.3401 56.31 19.6501 52.72 18.4601 49.87C16.0874 43.5833 15.8624 36.6881 17.82 30.26C19.25 26.01 24.95 19.43 28.1 17.07C33.0452 13.3103 39.0408 11.1882 45.2501 11C52.1801 10.84 59.7901 13.21 63.6901 15.65C68.9701 18.93 70.6901 22.65 72.0301 25.65C72.2701 26.18 72.5 26.65 72.7401 27.17C72.8001 27.28 72.89 27.49 73.0201 27.78C73.9436 29.9473 75.0685 32.0231 76.38 33.98C76.59 34.26 77.18 35.07 76.88 37.82C78.39 39.61 82.88 44.87 84.32 46.59C85.48 47.94 84.94 51.17 83.7 52.26C83.0516 52.7473 82.3146 53.1039 81.5301 53.31C81.3001 53.39 80.9701 53.5 80.7201 53.6C80.7201 53.75 80.7201 53.93 80.7201 54.11C81.2911 54.9996 81.7638 55.9484 82.13 56.94C82.2687 57.511 82.2896 58.1043 82.1916 58.6836C82.0936 59.263 81.8788 59.8163 81.5601 60.31L81.41 60.47C82 61.66 82.2001 63.76 81.2701 64.9C80.9611 65.3008 80.5451 65.6058 80.07 65.78L80.2701 66.07C80.9663 66.8712 81.4022 67.8652 81.5201 68.92C81.5201 73.38 78.69 74.62 77.5201 75.15C75.8177 75.6999 74.039 75.9767 72.2501 75.97C70.4401 76.09 67.96 76.24 67.13 76.83C65.8 77.77 63.8301 83.17 62.7701 87.62L62.3701 89.03ZM30.3701 85.49H59.6C60.43 82.38 62.43 75.83 65.01 74C66.66 72.82 69.36 72.66 72.01 72.5C73.3808 72.4928 74.7451 72.3114 76.07 71.96C76.6817 71.7937 77.2124 71.4112 77.5636 70.8834C77.9148 70.3557 78.0628 69.7185 77.98 69.09C77.7987 68.7652 77.5983 68.4513 77.38 68.15C76.8711 67.5223 76.4875 66.8025 76.2501 66.03C76.0838 65.5626 76.036 65.0613 76.1111 64.5709C76.1861 64.0805 76.3816 63.6163 76.6801 63.22C76.8991 62.997 77.1607 62.8202 77.4492 62.7C77.7378 62.5798 78.0475 62.5186 78.36 62.52V62.34C77.9139 62.1601 77.5347 61.846 77.2749 61.4411C77.0151 61.0362 76.8876 60.5606 76.91 60.08C76.9987 59.6109 77.2157 59.1756 77.537 58.8225C77.8583 58.4694 78.2713 58.2124 78.73 58.08C78.736 58.0068 78.736 57.9332 78.73 57.86C78.3576 57.0663 77.9333 56.298 77.4601 55.56L77.1901 55.13V54.62C77.1901 52.05 77.83 51.45 78.11 51.19C78.7964 50.6334 79.5944 50.231 80.45 50.01C80.73 49.92 81.1101 49.79 81.3401 49.69C81.4411 49.3664 81.4917 49.0291 81.4901 48.69C79.4901 46.33 73.7401 39.55 73.7401 39.55L73.2201 38.94L73.3401 38.14C73.4652 37.4138 73.5055 36.6755 73.4601 35.94C72.0609 33.8336 70.8559 31.6044 69.86 29.28L69.64 28.79C69.38 28.27 69.1301 27.72 68.8701 27.15C67.5801 24.31 66.2501 21.37 61.8701 18.65C58.4901 16.54 51.5301 14.4 45.3701 14.53C39.8971 14.7028 34.6146 16.5801 30.26 19.9C27.26 22.17 22.2601 28.15 21.2101 31.39C19.5304 37.0051 19.7234 43.0143 21.76 48.51C22.76 50.95 25.4501 54.51 27.8101 57.67C29.5108 59.8386 31.0867 62.1023 32.5301 64.45C33.5899 66.8793 34.1706 69.4905 34.2401 72.14C34.2501 76.18 31.89 82.12 30.39 85.49H30.3701Z" fill="#8A9CA7"/>
<path d="M56.7999 58.02C56.8683 57.9508 56.9066 57.8574 56.9066 57.76C56.9066 57.6627 56.8683 57.5693 56.7999 57.5L56.1499 56.21C56.4369 55.6972 56.6459 55.1445 56.7699 54.57L58.2299 53.99C58.3266 53.9752 58.4135 53.9227 58.4716 53.844C58.5297 53.7653 58.5542 53.6668 58.5399 53.57L57.9799 50.64C57.9693 50.5931 57.9495 50.5487 57.9215 50.5095C57.8935 50.4704 57.8579 50.4373 57.8169 50.4121C57.7759 50.3869 57.7302 50.3702 57.6827 50.363C57.6351 50.3558 57.5865 50.3582 57.5399 50.37L56.0899 50.29C55.7904 49.7834 55.4162 49.325 54.9799 48.93L55.1999 47.38C55.2196 47.3361 55.2304 47.2887 55.2315 47.2406C55.2325 47.1925 55.224 47.1446 55.2063 47.0999C55.1886 47.0551 55.162 47.0144 55.1283 46.98C55.0946 46.9457 55.0543 46.9185 55.0099 46.9L52.1799 45.9C52.0858 45.8755 51.9857 45.8891 51.9015 45.9377C51.8173 45.9864 51.7556 46.0662 51.7299 46.16L50.9399 47.37C50.3491 47.3751 49.7624 47.4695 49.1999 47.65L47.9699 46.65C47.9106 46.5744 47.8242 46.5249 47.729 46.5118C47.6339 46.4987 47.5373 46.5232 47.4599 46.58L45.1899 48.58C45.1215 48.6493 45.0831 48.7427 45.0831 48.84C45.0831 48.9373 45.1215 49.0308 45.1899 49.1L45.8499 50.39C45.5585 50.9008 45.3493 51.4542 45.2299 52.03L43.7699 52.61C43.6725 52.6249 43.5847 52.677 43.525 52.7553C43.4653 52.8337 43.4384 52.9322 43.4499 53.03L44.0199 55.96C44.0304 56.007 44.0503 56.0513 44.0783 56.0905C44.1062 56.1296 44.1418 56.1628 44.1828 56.188C44.2239 56.2131 44.2695 56.2298 44.3171 56.237C44.3647 56.2443 44.4132 56.2419 44.4599 56.23L45.9099 56.31C46.2089 56.8141 46.5795 57.2722 47.0099 57.67L46.7899 59.22C46.7534 59.3102 46.7539 59.4112 46.7913 59.5011C46.8288 59.5909 46.9001 59.6624 46.9899 59.7L49.8199 60.7C49.8658 60.7137 49.9141 60.7181 49.9617 60.7129C50.0094 60.7077 50.0556 60.693 50.0975 60.6697C50.1394 60.6464 50.1762 60.615 50.2058 60.5772C50.2355 60.5395 50.2572 60.4963 50.2699 60.45L51.0599 59.24C51.6503 59.23 52.2362 59.1357 52.7999 58.96L54.0299 59.96C54.0892 60.0356 54.1755 60.0852 54.2707 60.0982C54.3659 60.1113 54.4624 60.0868 54.5399 60.03L56.7999 58.02Z" fill="#8A9CA7"/>
<path d="M34.6198 35.99C34.6443 35.9658 34.6637 35.937 34.677 35.9053C34.6903 35.8735 34.6971 35.8394 34.6971 35.805C34.6971 35.7706 34.6903 35.7365 34.677 35.7048C34.6637 35.673 34.6443 35.6442 34.6198 35.62L34.1598 34.68C34.3717 34.311 34.53 33.9136 34.6298 33.5L35.6798 33.09C35.7497 33.0824 35.8138 33.0479 35.8587 32.9937C35.9035 32.9396 35.9254 32.8701 35.9198 32.8L35.5398 30.66C35.521 30.5933 35.4773 30.5364 35.4177 30.5011C35.3582 30.4657 35.2873 30.4546 35.2198 30.47L34.1698 30.4C33.9642 30.0249 33.6971 29.6869 33.3798 29.4L33.5598 28.28C33.5867 28.2149 33.5872 28.1419 33.561 28.0765C33.5348 28.0111 33.4842 27.9586 33.4198 27.93L31.4198 27.19C31.3863 27.1793 31.351 27.1755 31.3161 27.1789C31.2811 27.1822 31.2472 27.1926 31.2163 27.2095C31.1855 27.2263 31.1584 27.2492 31.1366 27.2768C31.1149 27.3044 31.099 27.3361 31.0898 27.37L30.5098 28.24C30.0834 28.2409 29.6594 28.3015 29.2498 28.42L28.3698 27.72C28.3499 27.6912 28.3244 27.6668 28.2948 27.6481C28.2652 27.6294 28.2321 27.6168 28.1976 27.6112C28.163 27.6056 28.1277 27.6071 28.0937 27.6154C28.0597 27.6238 28.0278 27.639 27.9998 27.66L26.3398 29.06C26.3153 29.0842 26.2959 29.113 26.2826 29.1447C26.2693 29.1765 26.2625 29.2106 26.2625 29.245C26.2625 29.2794 26.2693 29.3135 26.2826 29.3453C26.2959 29.377 26.3153 29.4058 26.3398 29.43L26.8098 30.37C26.5979 30.739 26.4396 31.1364 26.3398 31.55L25.2798 31.96C25.2117 31.97 25.15 32.0055 25.1073 32.0594C25.0645 32.1133 25.044 32.1814 25.0498 32.25L25.4298 34.38C25.4465 34.4485 25.4893 34.5078 25.5491 34.5452C25.6089 34.5826 25.6809 34.5951 25.7498 34.58L26.7498 34.65C26.9586 35.0203 27.2215 35.3574 27.5298 35.65L27.3598 36.77C27.3329 36.8351 27.3324 36.9081 27.3586 36.9735C27.3848 37.0389 27.4354 37.0915 27.4998 37.12L29.4998 37.85C29.5333 37.8607 29.5686 37.8645 29.6035 37.8611C29.6385 37.8578 29.6724 37.8473 29.7033 37.8305C29.7341 37.8137 29.7612 37.7908 29.783 37.7632C29.8047 37.7356 29.8206 37.7039 29.8298 37.67L30.4098 36.8C30.8362 36.7999 31.2604 36.7393 31.6698 36.62L32.5498 37.33C32.5949 37.3851 32.6593 37.4209 32.7299 37.4302C32.8005 37.4395 32.872 37.4215 32.9298 37.38L34.6198 35.99Z" fill="#8A9CA7"/>
<path d="M39.5099 40.34C39.4237 40.2539 39.3068 40.2055 39.185 40.2055C39.0631 40.2055 38.9462 40.2539 38.86 40.34L37.2899 41.24C36.6322 40.9184 35.9317 40.6928 35.21 40.57L34.3799 38.79C34.3558 38.6708 34.2855 38.566 34.1843 38.4985C34.0831 38.4311 33.9593 38.4065 33.84 38.43L30.21 39.32C30.0953 39.3568 29.9996 39.4372 29.9435 39.5437C29.8874 39.6503 29.8754 39.7746 29.9099 39.89V41.73C29.2965 42.1361 28.7471 42.6316 28.28 43.2L26.28 43.03C26.2242 43.0093 26.1648 42.9999 26.1054 43.0023C26.0459 43.0047 25.9876 43.0189 25.9336 43.044C25.8797 43.0691 25.8312 43.1046 25.7911 43.1486C25.751 43.1925 25.72 43.244 25.6999 43.3L24.65 46.9C24.6259 47.0192 24.6488 47.143 24.7141 47.2455C24.7794 47.3481 24.8818 47.4214 25 47.45L26.5699 48.35C26.6114 49.0861 26.7665 49.8114 27.03 50.5L25.9099 52.1C25.8635 52.1377 25.825 52.1843 25.7968 52.2371C25.7685 52.2899 25.7511 52.3478 25.7455 52.4074C25.7399 52.467 25.7463 52.5271 25.7642 52.5842C25.7822 52.6413 25.8113 52.6943 25.8499 52.74L28.4499 55.44C28.4918 55.4823 28.5416 55.5159 28.5966 55.5389C28.6515 55.5618 28.7104 55.5736 28.77 55.5736C28.8295 55.5736 28.8884 55.5618 28.9434 55.5389C28.9983 55.5159 29.0481 55.4823 29.09 55.44L30.6599 54.53C31.3189 54.8574 32.0235 55.0833 32.75 55.2L33.5699 56.98C33.5942 57.0998 33.6641 57.2054 33.765 57.2745C33.8658 57.3435 33.9895 57.3706 34.11 57.35L37.74 56.45C37.7975 56.4329 37.851 56.4045 37.8974 56.3664C37.9438 56.3283 37.9821 56.2813 38.01 56.2282C38.038 56.1751 38.055 56.1169 38.0602 56.0571C38.0653 55.9973 38.0584 55.9371 38.0399 55.88V54.07C38.6555 53.6666 39.2053 53.1708 39.67 52.6L41.62 52.77C41.7354 52.8089 41.8615 52.8014 41.9715 52.7492C42.0816 52.697 42.1671 52.6041 42.21 52.49L43.21 48.9C43.2232 48.8409 43.2247 48.7798 43.2143 48.7201C43.2038 48.6604 43.1817 48.6034 43.1492 48.5523C43.1167 48.5012 43.0744 48.457 43.0247 48.4223C42.9751 48.3876 42.9191 48.363 42.86 48.35L41.3 47.45C41.2509 46.7149 41.096 45.9908 40.84 45.3L41.96 43.7C42.006 43.6607 42.0439 43.6126 42.0713 43.5587C42.0988 43.5047 42.1153 43.4458 42.12 43.3854C42.1246 43.325 42.1173 43.2643 42.0984 43.2067C42.0795 43.1492 42.0495 43.0959 42.0099 43.05L39.5099 40.34Z" fill="#8A9CA7"/>
<path d="M62.44 38.2L61.06 35.85C61.5465 34.855 61.8835 33.7935 62.06 32.7L64.72 31.43C64.8094 31.4132 64.8946 31.3789 64.9708 31.3291C65.0469 31.2792 65.1124 31.2148 65.1635 31.1395C65.2146 31.0642 65.2503 30.9795 65.2686 30.8904C65.2869 30.8012 65.2873 30.7094 65.27 30.62L63.8899 25.17C63.8627 25.0832 63.8185 25.0025 63.7599 24.9328C63.7013 24.8631 63.6295 24.8057 63.5486 24.7639C63.4678 24.722 63.3794 24.6966 63.2887 24.6891C63.198 24.6816 63.1066 24.6921 63.02 24.72H60.2899C59.668 23.8065 58.9169 22.988 58.06 22.29L58.31 19.35C58.365 19.1762 58.351 18.9878 58.271 18.824C58.1909 18.6602 58.0509 18.5334 57.8799 18.47L52.46 16.94C52.3712 16.9195 52.2793 16.9171 52.1896 16.9328C52.0999 16.9485 52.0143 16.982 51.9378 17.0315C51.8613 17.0809 51.7955 17.1452 51.7444 17.2205C51.6932 17.2959 51.6577 17.3807 51.6399 17.47L50.2899 19.84C49.1867 19.9111 48.1008 20.1505 47.0699 20.55L44.6399 18.87C44.5804 18.7975 44.5067 18.738 44.4233 18.6949C44.3399 18.6519 44.2486 18.6263 44.155 18.6198C44.0614 18.6132 43.9675 18.6258 43.8789 18.6568C43.7903 18.6878 43.709 18.7365 43.6399 18.8L39.6399 22.73C39.5734 22.7952 39.5206 22.873 39.4845 22.9588C39.4484 23.0447 39.4298 23.1369 39.4298 23.23C39.4298 23.3231 39.4484 23.4153 39.4845 23.5012C39.5206 23.5871 39.5734 23.6648 39.6399 23.73L41.02 26.07C40.5273 27.0662 40.1901 28.1318 40.02 29.23L37.3499 30.49C37.1711 30.5262 37.0139 30.6318 36.9127 30.7835C36.8115 30.9353 36.7746 31.1211 36.81 31.3L38.19 36.75C38.2452 36.9232 38.3664 37.0676 38.5275 37.1518C38.6885 37.2361 38.8762 37.2534 39.05 37.2H41.78C42.3991 38.1187 43.1505 38.9409 44.0099 39.64L43.77 42.58C43.7401 42.666 43.7275 42.7571 43.7329 42.848C43.7384 42.9389 43.7618 43.0277 43.8017 43.1095C43.8417 43.1913 43.8975 43.2644 43.9658 43.3246C44.0342 43.3847 44.1137 43.4308 44.1999 43.46L49.62 44.99C49.7086 45.0091 49.8001 45.0105 49.8893 44.9942C49.9785 44.9779 50.0636 44.9442 50.1398 44.895C50.216 44.8458 50.2817 44.782 50.3332 44.7074C50.3847 44.6327 50.421 44.5487 50.44 44.46L51.78 42.1C52.8864 42.0217 53.975 41.7791 55.0099 41.38L57.43 43.06C57.4903 43.1313 57.5644 43.1898 57.6477 43.232C57.7311 43.2742 57.822 43.2993 57.9152 43.3059C58.0084 43.3124 58.102 43.3002 58.1904 43.27C58.2788 43.2398 58.3602 43.1922 58.43 43.13L62.43 39.2C62.4997 39.137 62.5556 39.0603 62.5942 38.9746C62.6328 38.8889 62.6532 38.7962 62.6541 38.7022C62.6551 38.6083 62.6365 38.5151 62.5996 38.4287C62.5628 38.3423 62.5084 38.2644 62.44 38.2Z" fill="#8A9CA7"/>
</g>
<defs>
<clipPath id="clip0_448_63">
<rect width="68.46" height="78.03" fill="white" transform="translate(16.5 11)"/>
</clipPath>
</defs>
</svg>
