<svg width="85" height="84" viewBox="0 0 85 84" fill="none" xmlns="http://www.w3.org/2000/svg">
<path d="M64.5 63.0979C64.5 73.0703 56.2455 81.2051 46 81.2051C35.7545 81.2051 27.5 73.0703 27.5 63.0979C27.5 60.7274 28.6297 57.0386 30.5044 52.6513C32.3505 48.3306 34.8229 43.5455 37.3111 39.0695C39.7965 34.5984 42.2839 30.4602 44.1511 27.4384C44.8726 26.2707 45.5009 25.2706 46 24.4833C46.4991 25.2706 47.1274 26.2707 47.8489 27.4384C49.7161 30.4602 52.2035 34.5984 54.6889 39.0695C57.1771 43.5455 59.6495 48.3306 61.4956 52.6513C63.3703 57.0386 64.5 60.7274 64.5 63.0979Z" stroke="#E7F6FE" stroke-width="3"/>
<path d="M80.5 27.4551C80.5 32.8718 76.2151 37.2051 71 37.2051C65.7849 37.2051 61.5 32.8718 61.5 27.4551C61.5 26.2249 62.0766 24.2067 63.1068 21.6915C64.111 19.2397 65.4601 16.5148 66.8238 13.9555C68.185 11.4009 69.5481 9.03519 70.5719 7.30669C70.7223 7.05262 70.8654 6.81244 71 6.58759C71.1346 6.81244 71.2777 7.05262 71.4281 7.30669C72.4519 9.03519 73.815 11.4009 75.1762 13.9555C76.5399 16.5148 77.889 19.2397 78.8932 21.6915C79.9234 24.2067 80.5 26.2249 80.5 27.4551Z" stroke="#E7F6FE" stroke-width="3"/>
<path d="M24.5 35.1336C24.5 40.7684 20.176 45.2051 15 45.2051C9.82397 45.2051 5.5 40.7684 5.5 35.1336C5.5 33.8504 6.08251 31.7617 7.11233 29.1755C8.11769 26.6508 9.46777 23.846 10.8319 21.2128C12.1936 18.5843 13.5571 16.1502 14.5811 14.3719C14.7282 14.1165 14.8681 13.8748 15 13.6482C15.1319 13.8748 15.2718 14.1165 15.4189 14.3719C16.4429 16.1502 17.8064 18.5843 19.1681 21.2128C20.5322 23.846 21.8823 26.6508 22.8877 29.1755C23.9175 31.7617 24.5 33.8504 24.5 35.1336Z" stroke="#E7F6FE" stroke-width="3"/>
</svg>
