<svg width="118" height="104" viewBox="0 0 118 104" fill="none" xmlns="http://www.w3.org/2000/svg">
<g clip-path="url(#clip0_247_1274)">
<path d="M59.0045 46.5295L59.0045 69.5196L78.4273 81.0193L97.8501 69.5196L97.8501 46.5295L78.4273 35.0392L59.0045 46.5295Z" stroke="#E7F6FE" stroke-width="3" stroke-miterlimit="10"/>
<path d="M39.5817 12.0305L39.5817 35.0206L59.0045 46.5203L78.4272 35.0206L78.4272 12.0305L59.0045 0.540141L39.5817 12.0305Z" stroke="#E7F6FE" stroke-width="3" stroke-miterlimit="10"/>
<path d="M78.4272 104L78.4272 81.0099L59.0045 69.5196L39.5817 81.0099L39.5817 104" stroke="#E7F6FE" stroke-width="3" stroke-miterlimit="10"/>
<path d="M97.8502 0.540141L78.4274 12.0305L78.4274 35.0206L97.8502 46.5203L117.273 35.0206" stroke="#E7F6FE" stroke-width="3" stroke-miterlimit="10"/>
<path d="M20.15 46.5295L20.15 69.5196L39.5819 81.0193L59.0046 69.5196L59.0046 46.5295L39.5819 35.0392L20.15 46.5295Z" stroke="#E7F6FE" stroke-width="3" stroke-miterlimit="10"/>
<path d="M0.727142 35.0206L20.1499 46.5203L39.5818 35.0206L39.5818 12.0305" stroke="#E7F6FE" stroke-width="3" stroke-miterlimit="10"/>
<path d="M20.1498 59.5841C14.7964 59.5841 10.4566 64.0323 10.4566 69.5195C10.4566 75.0066 14.7964 79.4548 20.1498 79.4548C25.5032 79.4548 29.843 75.0066 29.843 69.5195C29.843 64.0323 25.5032 59.5841 20.1498 59.5841Z" fill="#E7F6FE"/>
<path d="M59.0045 35.7374C53.6511 35.7374 49.3113 40.1857 49.3113 45.6728C49.3113 51.1599 53.6511 55.6082 59.0045 55.6082C64.358 55.6082 68.6978 51.1599 68.6978 45.6728C68.6978 40.1857 64.358 35.7374 59.0045 35.7374Z" fill="#E7F6FE"/>
<path d="M97.8502 59.5841C92.4968 59.5841 88.157 64.0323 88.157 69.5195C88.157 75.0066 92.4968 79.4548 97.8502 79.4548C103.204 79.4548 107.543 75.0066 107.543 69.5195C107.543 64.0323 103.204 59.5841 97.8502 59.5841Z" fill="#E7F6FE"/>
<path d="M39.5817 2.37441C34.2283 2.37441 29.8885 6.82261 29.8885 12.3098C29.8885 17.7969 34.2283 22.2451 39.5817 22.2451C44.9351 22.2451 49.2749 17.7969 49.2749 12.3098C49.2749 6.82262 44.9351 2.37441 39.5817 2.37441Z" fill="#E7F6FE"/>
</g>
<defs>
<clipPath id="clip0_247_1274">
<rect width="117" height="104" fill="white" transform="translate(117.5 104) rotate(-180)"/>
</clipPath>
</defs>
</svg>
