<svg width="117" height="104" viewBox="0 0 117 104" fill="none" xmlns="http://www.w3.org/2000/svg">
<g clip-path="url(#clip0_152_284)">
<path d="M58.4955 56.3653V33.8174L39.0727 22.5388L19.6499 33.8174V56.3653L39.0727 67.6347L58.4955 56.3653Z" stroke="#E7F6FE" stroke-width="3" stroke-miterlimit="10"/>
<path d="M77.9183 90.201V67.6531L58.4955 56.3745L39.0728 67.6531V90.201L58.4955 101.47L77.9183 90.201Z" stroke="#E7F6FE" stroke-width="3" stroke-miterlimit="10"/>
<path d="M39.0728 0V22.5479L58.4955 33.8173L77.9183 22.5479V0" stroke="#E7F6FE" stroke-width="3" stroke-miterlimit="10"/>
<path d="M19.6498 101.47L39.0726 90.201V67.6531L19.6498 56.3745L0.227051 67.6531" stroke="#E7F6FE" stroke-width="3" stroke-miterlimit="10"/>
<path d="M97.35 56.3653V33.8174L77.9181 22.5388L58.4954 33.8174V56.3653L77.9181 67.6347L97.35 56.3653Z" stroke="#E7F6FE" stroke-width="3" stroke-miterlimit="10"/>
<path d="M116.773 67.6531L97.3501 56.3745L77.9182 67.6531V90.201" stroke="#E7F6FE" stroke-width="3" stroke-miterlimit="10"/>
<path d="M97.3502 43.5616C102.704 43.5616 107.043 39.1989 107.043 33.8173C107.043 28.4357 102.704 24.073 97.3502 24.073C91.9968 24.073 87.657 28.4357 87.657 33.8173C87.657 39.1989 91.9968 43.5616 97.3502 43.5616Z" fill="#E7F6FE"/>
<path d="M58.4955 66.9498C63.8489 66.9498 68.1887 62.5871 68.1887 57.2055C68.1887 51.8238 63.8489 47.4612 58.4955 47.4612C53.142 47.4612 48.8022 51.8238 48.8022 57.2055C48.8022 62.5871 53.142 66.9498 58.4955 66.9498Z" fill="#E7F6FE"/>
<path d="M19.65 43.5616C25.0034 43.5616 29.3432 39.1989 29.3432 33.8173C29.3432 28.4357 25.0034 24.073 19.65 24.073C14.2966 24.073 9.95679 28.4357 9.95679 33.8173C9.95679 39.1989 14.2966 43.5616 19.65 43.5616Z" fill="#E7F6FE"/>
<path d="M77.9183 99.6712C83.2717 99.6712 87.6115 95.3085 87.6115 89.9269C87.6115 84.5453 83.2717 80.1826 77.9183 80.1826C72.5649 80.1826 68.2251 84.5453 68.2251 89.9269C68.2251 95.3085 72.5649 99.6712 77.9183 99.6712Z" fill="#E7F6FE"/>
</g>
<defs>
<clipPath id="clip0_152_284">
<rect width="117" height="102" fill="white"/>
</clipPath>
</defs>
</svg>
